<?xml version="1.0" encoding="UTF-8" standalone="no"?><svg xmlns="http://www.w3.org/2000/svg" xmlns:xlink="http://www.w3.org/1999/xlink" contentScriptType="application/ecmascript" contentStyleType="text/css" height="1348px" preserveAspectRatio="none" style="width:876px;height:1348px;" version="1.1" viewBox="0 0 876 1348" width="876px" zoomAndPan="magnify"><defs><filter height="300%" id="f1w0yd83hvd5p3" width="300%" x="-1" y="-1"><feGaussianBlur result="blurOut" stdDeviation="2.0"/><feColorMatrix in="blurOut" result="blurOut2" type="matrix" values="0 0 0 0 0 0 0 0 0 0 0 0 0 0 0 0 0 0 .4 0"/><feOffset dx="4.0" dy="4.0" in="blurOut2" result="blurOut3"/><feBlend in="SourceGraphic" in2="blurOut3" mode="normal"/></filter></defs><g><!--class IInfoModule--><rect fill="#FEFECE" filter="url(#f1w0yd83hvd5p3)" height="131.0156" id="IInfoModule" style="stroke: #A80036; stroke-width: 1.5;" width="390" x="364" y="28.27"/><ellipse cx="425.75" cy="44.27" fill="#B4A7E5" rx="11" ry="11" style="stroke: #A80036; stroke-width: 1.0;"/><path d="M426.7031,40.9106 L426.7031,47.5669 L428.4219,47.5669 Q429.0313,47.5669 429.2969,47.8012 Q429.5625,48.0356 429.5625,48.4262 Q429.5625,48.8012 429.2969,49.0356 Q429.0313,49.27 428.4219,49.27 L423.2813,49.27 Q422.6719,49.27 422.4063,49.0356 Q422.1406,48.8012 422.1406,48.4106 Q422.1406,48.0356 422.4063,47.8012 Q422.6719,47.5669 423.2813,47.5669 L425,47.5669 L425,40.9106 L423.2813,40.9106 Q422.6719,40.9106 422.4063,40.6762 Q422.1406,40.4419 422.1406,40.0512 Q422.1406,39.6762 422.4063,39.4419 Q422.6719,39.2075 423.2813,39.2075 L428.4219,39.2075 Q429.0313,39.2075 429.2969,39.4419 Q429.5625,39.6762 429.5625,40.0512 Q429.5625,40.4419 429.2969,40.6762 Q429.0313,40.9106 428.4219,40.9106 L426.7031,40.9106 Z "/><text fill="#000000" font-family="sans-serif" font-size="12" font-style="italic" lengthAdjust="spacingAndGlyphs" textLength="65" x="446.25" y="49.1802">IInfoModule</text><rect fill="#FFFFFF" height="17.0938" style="stroke: #000000; stroke-width: 1.0; stroke-dasharray: 2.0,2.0;" width="191" x="566" y="25.27"/><text fill="#000000" font-family="sans-serif" font-size="12" font-style="italic" lengthAdjust="spacingAndGlyphs" textLength="189" x="567" y="38.727">Domain extends DomainTemplate</text><line style="stroke: #A80036; stroke-width: 1.5;" x1="365" x2="753" y1="60.27" y2="60.27"/><line style="stroke: #A80036; stroke-width: 1.5;" x1="365" x2="753" y1="68.27" y2="68.27"/><ellipse cx="375" cy="80.688" fill="#84BE84" rx="3" ry="3" style="stroke: #038048; stroke-width: 1.0;"/><text fill="#000000" font-family="sans-serif" font-size="11" lengthAdjust="spacingAndGlyphs" textLength="271" x="384" y="83.6889">getCurrencies(): Promise&lt;GetCurrencyType&lt;Domain&gt;[]&gt;</text><ellipse cx="375" cy="94.5239" fill="#84BE84" rx="3" ry="3" style="stroke: #038048; stroke-width: 1.0;"/><text fill="#000000" font-family="sans-serif" font-size="11" lengthAdjust="spacingAndGlyphs" textLength="259" x="384" y="97.5249">getSecurityLastPrice(ticker: string): Promise&lt;number&gt;</text><ellipse cx="375" cy="108.3598" fill="#84BE84" rx="3" ry="3" style="stroke: #038048; stroke-width: 1.0;"/><text fill="#000000" font-family="sans-serif" font-size="11" lengthAdjust="spacingAndGlyphs" textLength="356" x="384" y="111.3608">getSecurityCurrency(ticker: string): Promise&lt;GetCurrencyType&lt;Domain&gt;&gt;</text><ellipse cx="375" cy="122.1958" fill="#84BE84" rx="3" ry="3" style="stroke: #038048; stroke-width: 1.0;"/><text fill="#000000" font-family="sans-serif" font-size="11" lengthAdjust="spacingAndGlyphs" textLength="232" x="384" y="125.1968">getSecurityName(ticker: string): Promise&lt;string&gt;</text><ellipse cx="375" cy="136.0317" fill="#84BE84" rx="3" ry="3" style="stroke: #038048; stroke-width: 1.0;"/><text fill="#000000" font-family="sans-serif" font-size="11" lengthAdjust="spacingAndGlyphs" textLength="313" x="384" y="139.0327">getSecurity(ticker: string, ignoreCache?: boolean): Promise&lt;any&gt;</text><ellipse cx="375" cy="149.8677" fill="#84BE84" rx="3" ry="3" style="stroke: #038048; stroke-width: 1.0;"/><text fill="#000000" font-family="sans-serif" font-size="11" lengthAdjust="spacingAndGlyphs" textLength="364" x="384" y="152.8686">getSecurityByExchangeId(id: string, ignoreCache?: boolean): Promise&lt;any&gt;</text><!--class ITradeModule--><rect fill="#FEFECE" filter="url(#f1w0yd83hvd5p3)" height="131.0156" id="ITradeModule" style="stroke: #A80036; stroke-width: 1.5;" width="395" x="347.5" y="968.31"/><ellipse cx="406.25" cy="984.31" fill="#B4A7E5" rx="11" ry="11" style="stroke: #A80036; stroke-width: 1.0;"/><path d="M407.2031,980.9506 L407.2031,987.6069 L408.9219,987.6069 Q409.5313,987.6069 409.7969,987.8413 Q410.0625,988.0756 410.0625,988.4663 Q410.0625,988.8413 409.7969,989.0756 Q409.5313,989.31 408.9219,989.31 L403.7813,989.31 Q403.1719,989.31 402.9063,989.0756 Q402.6406,988.8413 402.6406,988.4506 Q402.6406,988.0756 402.9063,987.8413 Q403.1719,987.6069 403.7813,987.6069 L405.5,987.6069 L405.5,980.9506 L403.7813,980.9506 Q403.1719,980.9506 402.9063,980.7163 Q402.6406,980.4819 402.6406,980.0913 Q402.6406,979.7163 402.9063,979.4819 Q403.1719,979.2475 403.7813,979.2475 L408.9219,979.2475 Q409.5313,979.2475 409.7969,979.4819 Q410.0625,979.7163 410.0625,980.0913 Q410.0625,980.4819 409.7969,980.7163 Q409.5313,980.9506 408.9219,980.9506 L407.2031,980.9506 Z "/><text fill="#000000" font-family="sans-serif" font-size="12" font-style="italic" lengthAdjust="spacingAndGlyphs" textLength="76" x="426.75" y="989.2202">ITradeModule</text><rect fill="#FFFFFF" height="17.0938" style="stroke: #000000; stroke-width: 1.0; stroke-dasharray: 2.0,2.0;" width="191" x="554.5" y="965.31"/><text fill="#000000" font-family="sans-serif" font-size="12" font-style="italic" lengthAdjust="spacingAndGlyphs" textLength="189" x="555.5" y="978.767">Domain extends DomainTemplate</text><line style="stroke: #A80036; stroke-width: 1.5;" x1="348.5" x2="741.5" y1="1000.31" y2="1000.31"/><line style="stroke: #A80036; stroke-width: 1.5;" x1="348.5" x2="741.5" y1="1008.31" y2="1008.31"/><ellipse cx="358.5" cy="1020.728" fill="#84BE84" rx="3" ry="3" style="stroke: #038048; stroke-width: 1.0;"/><text fill="#000000" font-family="sans-serif" font-size="11" lengthAdjust="spacingAndGlyphs" textLength="334" x="367.5" y="1023.7289">sell(options: CreateOrderOptions): Promise&lt;GetOrderType&lt;Domain&gt;&gt;</text><ellipse cx="358.5" cy="1034.5639" fill="#84BE84" rx="3" ry="3" style="stroke: #038048; stroke-width: 1.0;"/><text fill="#000000" font-family="sans-serif" font-size="11" lengthAdjust="spacingAndGlyphs" textLength="336" x="367.5" y="1037.5649">buy(options: CreateOrderOptions): Promise&lt;GetOrderType&lt;Domain&gt;&gt;</text><ellipse cx="358.5" cy="1048.3998" fill="#84BE84" rx="3" ry="3" style="stroke: #038048; stroke-width: 1.0;"/><text fill="#000000" font-family="sans-serif" font-size="11" lengthAdjust="spacingAndGlyphs" textLength="367" x="367.5" y="1051.4008">marketSell(options: CreateOrderOptions): Promise&lt;GetOrderType&lt;Domain&gt;&gt;</text><ellipse cx="358.5" cy="1062.2358" fill="#84BE84" rx="3" ry="3" style="stroke: #038048; stroke-width: 1.0;"/><text fill="#000000" font-family="sans-serif" font-size="11" lengthAdjust="spacingAndGlyphs" textLength="369" x="367.5" y="1065.2368">marketBuy(options: CreateOrderOptions): Promise&lt;GetOrderType&lt;Domain&gt;&gt;</text><ellipse cx="358.5" cy="1076.0717" fill="#84BE84" rx="3" ry="3" style="stroke: #038048; stroke-width: 1.0;"/><text fill="#000000" font-family="sans-serif" font-size="11" lengthAdjust="spacingAndGlyphs" textLength="241" x="367.5" y="1079.0727">sellOrCancel(): Promise&lt;GetOrderType&lt;Domain&gt;&gt;</text><ellipse cx="358.5" cy="1089.9077" fill="#84BE84" rx="3" ry="3" style="stroke: #038048; stroke-width: 1.0;"/><text fill="#000000" font-family="sans-serif" font-size="11" lengthAdjust="spacingAndGlyphs" textLength="243" x="367.5" y="1092.9086">buyOrCancel(): Promise&lt;GetOrderType&lt;Domain&gt;&gt;</text><!--class IExchangeConnector--><rect fill="#FEFECE" filter="url(#f1w0yd83hvd5p3)" height="144.8516" id="IExchangeConnector" style="stroke: #A80036; stroke-width: 1.5;" width="427" x="125.5" y="477.95"/><ellipse cx="140.5" cy="493.95" fill="#B4A7E5" rx="11" ry="11" style="stroke: #A80036; stroke-width: 1.0;"/><path d="M141.4531,490.5906 L141.4531,497.2469 L143.1719,497.2469 Q143.7813,497.2469 144.0469,497.4813 Q144.3125,497.7156 144.3125,498.1063 Q144.3125,498.4813 144.0469,498.7156 Q143.7813,498.95 143.1719,498.95 L138.0313,498.95 Q137.4219,498.95 137.1563,498.7156 Q136.8906,498.4813 136.8906,498.0906 Q136.8906,497.7156 137.1563,497.4813 Q137.4219,497.2469 138.0313,497.2469 L139.75,497.2469 L139.75,490.5906 L138.0313,490.5906 Q137.4219,490.5906 137.1563,490.3563 Q136.8906,490.1219 136.8906,489.7313 Q136.8906,489.3563 137.1563,489.1219 Q137.4219,488.8875 138.0313,488.8875 L143.1719,488.8875 Q143.7813,488.8875 144.0469,489.1219 Q144.3125,489.3563 144.3125,489.7313 Q144.3125,490.1219 144.0469,490.3563 Q143.7813,490.5906 143.1719,490.5906 L141.4531,490.5906 Z "/><text fill="#000000" font-family="sans-serif" font-size="12" font-style="italic" lengthAdjust="spacingAndGlyphs" textLength="116" x="154.5" y="498.8602">IExchangeConnector</text><rect fill="#FFFFFF" height="17.0938" style="stroke: #000000; stroke-width: 1.0; stroke-dasharray: 2.0,2.0;" width="277" x="278.5" y="474.95"/><text fill="#000000" font-family="sans-serif" font-size="12" font-style="italic" lengthAdjust="spacingAndGlyphs" textLength="275" x="279.5" y="488.407">Domain extends DomainTemplate, TExchangeApi</text><line style="stroke: #A80036; stroke-width: 1.5;" x1="126.5" x2="551.5" y1="509.95" y2="509.95"/><ellipse cx="136.5" cy="522.368" fill="none" rx="3" ry="3" style="stroke: #038048; stroke-width: 1.0;"/><text fill="#000000" font-family="sans-serif" font-size="11" lengthAdjust="spacingAndGlyphs" textLength="90" x="145.5" y="525.3689">api: TExchangeApi</text><ellipse cx="136.5" cy="536.2039" fill="none" rx="3" ry="3" style="stroke: #038048; stroke-width: 1.0;"/><text fill="#000000" font-family="sans-serif" font-size="11" lengthAdjust="spacingAndGlyphs" textLength="176" x="145.5" y="539.2049">tradeModule: ITradeModule&lt;Domain&gt;</text><ellipse cx="136.5" cy="550.0398" fill="none" rx="3" ry="3" style="stroke: #038048; stroke-width: 1.0;"/><text fill="#000000" font-family="sans-serif" font-size="11" lengthAdjust="spacingAndGlyphs" textLength="159" x="145.5" y="553.0408">infoModule: IInfoModule&lt;Domain&gt;</text><ellipse cx="136.5" cy="563.8758" fill="none" rx="3" ry="3" style="stroke: #038048; stroke-width: 1.0;"/><text fill="#000000" font-family="sans-serif" font-size="11" lengthAdjust="spacingAndGlyphs" textLength="196" x="145.5" y="566.8768">domainMapper: IDomainMapper&lt;Domain&gt;</text><line style="stroke: #A80036; stroke-width: 1.5;" x1="126.5" x2="551.5" y1="573.2938" y2="573.2938"/><ellipse cx="136.5" cy="585.7117" fill="#84BE84" rx="3" ry="3" style="stroke: #038048; stroke-width: 1.0;"/><text fill="#000000" font-family="sans-serif" font-size="11" lengthAdjust="spacingAndGlyphs" textLength="166" x="145.5" y="588.7127">initAccount(): void | Promise&lt;void&gt;</text><ellipse cx="136.5" cy="599.5477" fill="#84BE84" rx="3" ry="3" style="stroke: #038048; stroke-width: 1.0;"/><text fill="#000000" font-family="sans-serif" font-size="11" lengthAdjust="spacingAndGlyphs" textLength="291" x="145.5" y="602.5486">getPortfolio(): Promise&lt;GetSecurityBalanceType&lt;Domain&gt;[]&gt;</text><ellipse cx="136.5" cy="613.3836" fill="#84BE84" rx="3" ry="3" style="stroke: #038048; stroke-width: 1.0;"/><text fill="#000000" font-family="sans-serif" font-size="11" lengthAdjust="spacingAndGlyphs" textLength="349" x="145.5" y="616.3846">getCurrenciesBalance(): Promise&lt;GetCurrencyBalanceType&lt;Domain&gt;[]&gt;</text><!--class AbstractInfoModule--><rect fill="#FEFECE" filter="url(#f1w0yd83hvd5p3)" height="158.6875" id="AbstractInfoModule" style="stroke: #A80036; stroke-width: 1.5;" width="500" x="6" y="239.27"/><ellipse cx="59.25" cy="255.27" fill="#A9DCDF" rx="11" ry="11" style="stroke: #A80036; stroke-width: 1.0;"/><path d="M61.4375,257.0356 L57.2969,257.0356 L56.875,258.0669 L57.2969,258.0669 Q57.9063,258.0669 58.1719,258.3013 Q58.4375,258.5356 58.4375,258.9263 Q58.4375,259.3013 58.1719,259.5356 Q57.9063,259.77 57.2969,259.77 L55,259.77 Q54.3906,259.77 54.1406,259.5356 Q53.875,259.3013 53.875,258.9106 Q53.875,258.5356 54.1563,258.3013 Q54.4219,258.0513 55.0469,258.0669 L57.7188,251.4106 L56.6094,251.4106 Q56,251.4106 55.7344,251.1762 Q55.4688,250.9419 55.4688,250.5512 Q55.4688,250.1762 55.7344,249.9419 Q56,249.7075 56.6094,249.7075 L60.2813,249.7075 L63.6719,258.0669 Q64.2656,258.0669 64.4531,258.2075 Q64.8438,258.4731 64.8438,258.9263 Q64.8438,259.3013 64.5781,259.5356 Q64.3281,259.77 63.7188,259.77 L61.4219,259.77 Q60.8125,259.77 60.5469,259.5356 Q60.2813,259.3013 60.2813,258.9106 Q60.2813,258.5356 60.5469,258.3013 Q60.8125,258.0669 61.4219,258.0669 L61.8438,258.0669 L61.4375,257.0356 Z M60.7188,255.3325 L59.3594,251.9575 L57.9844,255.3325 L60.7188,255.3325 Z "/><text fill="#000000" font-family="sans-serif" font-size="12" font-style="italic" lengthAdjust="spacingAndGlyphs" textLength="106" x="79.75" y="260.1802">AbstractInfoModule</text><rect fill="#FFFFFF" height="17.0938" style="stroke: #000000; stroke-width: 1.0; stroke-dasharray: 2.0,2.0;" width="277" x="232" y="236.27"/><text fill="#000000" font-family="sans-serif" font-size="12" font-style="italic" lengthAdjust="spacingAndGlyphs" textLength="275" x="233" y="249.727">Domain extends DomainTemplate, TExchangeApi</text><line style="stroke: #A80036; stroke-width: 1.5;" x1="7" x2="505" y1="271.27" y2="271.27"/><polygon fill="none" points="17,278.688,21,282.688,17,286.688,13,282.688" style="stroke: #B38D22; stroke-width: 1.0;"/><text fill="#000000" font-family="sans-serif" font-size="11" lengthAdjust="spacingAndGlyphs" textLength="327" x="26" y="286.6889">exchangeConnector: IExchangeConnector&lt;Domain, TExchangeApi&gt;</text><line style="stroke: #A80036; stroke-width: 1.5;" x1="7" x2="505" y1="293.1059" y2="293.1059"/><ellipse cx="17" cy="305.5239" fill="#84BE84" rx="3" ry="3" style="stroke: #038048; stroke-width: 1.0;"/><text fill="#000000" font-family="sans-serif" font-size="11" lengthAdjust="spacingAndGlyphs" textLength="474" x="26" y="308.5249">setExchangeConnector(exchangeConnector: IExchangeConnector&lt;Domain, TExchangeApi&gt;): void</text><ellipse cx="17" cy="319.3598" fill="#84BE84" rx="3" ry="3" style="stroke: #038048; stroke-width: 1.0;"/><text fill="#000000" font-family="sans-serif" font-size="11" font-style="italic" lengthAdjust="spacingAndGlyphs" textLength="280" x="26" y="322.3608">getCurrencies(): Promise&lt;GetCurrencyType&lt;Domain&gt;[]&gt;</text><ellipse cx="17" cy="333.1958" fill="#84BE84" rx="3" ry="3" style="stroke: #038048; stroke-width: 1.0;"/><text fill="#000000" font-family="sans-serif" font-size="11" font-style="italic" lengthAdjust="spacingAndGlyphs" textLength="269" x="26" y="336.1968">getSecurityLastPrice(ticker: string): Promise&lt;number&gt;</text><ellipse cx="17" cy="347.0317" fill="#84BE84" rx="3" ry="3" style="stroke: #038048; stroke-width: 1.0;"/><text fill="#000000" font-family="sans-serif" font-size="11" font-style="italic" lengthAdjust="spacingAndGlyphs" textLength="366" x="26" y="350.0327">getSecurityCurrency(ticker: string): Promise&lt;GetCurrencyType&lt;Domain&gt;&gt;</text><ellipse cx="17" cy="360.8677" fill="#84BE84" rx="3" ry="3" style="stroke: #038048; stroke-width: 1.0;"/><text fill="#000000" font-family="sans-serif" font-size="11" font-style="italic" lengthAdjust="spacingAndGlyphs" textLength="241" x="26" y="363.8686">getSecurityName(ticker: string): Promise&lt;string&gt;</text><ellipse cx="17" cy="374.7036" fill="#84BE84" rx="3" ry="3" style="stroke: #038048; stroke-width: 1.0;"/><text fill="#000000" font-family="sans-serif" font-size="11" font-style="italic" lengthAdjust="spacingAndGlyphs" textLength="322" x="26" y="377.7046">getSecurity(ticker: string, ignoreCache?: boolean): Promise&lt;any&gt;</text><ellipse cx="17" cy="388.5395" fill="#84BE84" rx="3" ry="3" style="stroke: #038048; stroke-width: 1.0;"/><text fill="#000000" font-family="sans-serif" font-size="11" font-style="italic" lengthAdjust="spacingAndGlyphs" textLength="373" x="26" y="391.5405">getSecurityByExchangeId(id: string, ignoreCache?: boolean): Promise&lt;any&gt;</text><!--class AbstractTradeModule--><rect fill="#FEFECE" filter="url(#f1w0yd83hvd5p3)" height="158.6875" id="AbstractTradeModule" style="stroke: #A80036; stroke-width: 1.5;" width="500" x="157" y="1179.31"/><ellipse cx="204.75" cy="1195.31" fill="#A9DCDF" rx="11" ry="11" style="stroke: #A80036; stroke-width: 1.0;"/><path d="M206.9375,1197.0756 L202.7969,1197.0756 L202.375,1198.1069 L202.7969,1198.1069 Q203.4063,1198.1069 203.6719,1198.3413 Q203.9375,1198.5756 203.9375,1198.9663 Q203.9375,1199.3413 203.6719,1199.5756 Q203.4063,1199.81 202.7969,1199.81 L200.5,1199.81 Q199.8906,1199.81 199.6406,1199.5756 Q199.375,1199.3413 199.375,1198.9506 Q199.375,1198.5756 199.6563,1198.3413 Q199.9219,1198.0913 200.5469,1198.1069 L203.2188,1191.4506 L202.1094,1191.4506 Q201.5,1191.4506 201.2344,1191.2163 Q200.9688,1190.9819 200.9688,1190.5913 Q200.9688,1190.2163 201.2344,1189.9819 Q201.5,1189.7475 202.1094,1189.7475 L205.7813,1189.7475 L209.1719,1198.1069 Q209.7656,1198.1069 209.9531,1198.2475 Q210.3438,1198.5131 210.3438,1198.9663 Q210.3438,1199.3413 210.0781,1199.5756 Q209.8281,1199.81 209.2188,1199.81 L206.9219,1199.81 Q206.3125,1199.81 206.0469,1199.5756 Q205.7813,1199.3413 205.7813,1198.9506 Q205.7813,1198.5756 206.0469,1198.3413 Q206.3125,1198.1069 206.9219,1198.1069 L207.3438,1198.1069 L206.9375,1197.0756 Z M206.2188,1195.3725 L204.8594,1191.9975 L203.4844,1195.3725 L206.2188,1195.3725 Z "/><text fill="#000000" font-family="sans-serif" font-size="12" font-style="italic" lengthAdjust="spacingAndGlyphs" textLength="117" x="225.25" y="1200.2202">AbstractTradeModule</text><rect fill="#FFFFFF" height="17.0938" style="stroke: #000000; stroke-width: 1.0; stroke-dasharray: 2.0,2.0;" width="277" x="383" y="1176.31"/><text fill="#000000" font-family="sans-serif" font-size="12" font-style="italic" lengthAdjust="spacingAndGlyphs" textLength="275" x="384" y="1189.767">Domain extends DomainTemplate, TExchangeApi</text><line style="stroke: #A80036; stroke-width: 1.5;" x1="158" x2="656" y1="1211.31" y2="1211.31"/><polygon fill="none" points="168,1218.728,172,1222.728,168,1226.728,164,1222.728" style="stroke: #B38D22; stroke-width: 1.0;"/><text fill="#000000" font-family="sans-serif" font-size="11" lengthAdjust="spacingAndGlyphs" textLength="327" x="177" y="1226.7289">exchangeConnector: IExchangeConnector&lt;Domain, TExchangeApi&gt;</text><line style="stroke: #A80036; stroke-width: 1.5;" x1="158" x2="656" y1="1233.1459" y2="1233.1459"/><ellipse cx="168" cy="1245.5639" fill="#84BE84" rx="3" ry="3" style="stroke: #038048; stroke-width: 1.0;"/><text fill="#000000" font-family="sans-serif" font-size="11" lengthAdjust="spacingAndGlyphs" textLength="474" x="177" y="1248.5649">setExchangeConnector(exchangeConnector: IExchangeConnector&lt;Domain, TExchangeApi&gt;): void</text><ellipse cx="168" cy="1259.3998" fill="#84BE84" rx="3" ry="3" style="stroke: #038048; stroke-width: 1.0;"/><text fill="#000000" font-family="sans-serif" font-size="11" font-style="italic" lengthAdjust="spacingAndGlyphs" textLength="331" x="177" y="1262.4008">sell(__0: CreateOrderOptions): Promise&lt;GetOrderType&lt;Domain&gt;&gt;</text><ellipse cx="168" cy="1273.2358" fill="#84BE84" rx="3" ry="3" style="stroke: #038048; stroke-width: 1.0;"/><text fill="#000000" font-family="sans-serif" font-size="11" font-style="italic" lengthAdjust="spacingAndGlyphs" textLength="331" x="177" y="1276.2368">buy(__0: CreateOrderOptions): Promise&lt;GetOrderType&lt;Domain&gt;&gt;</text><ellipse cx="168" cy="1287.0717" fill="#84BE84" rx="3" ry="3" style="stroke: #038048; stroke-width: 1.0;"/><text fill="#000000" font-family="sans-serif" font-size="11" font-style="italic" lengthAdjust="spacingAndGlyphs" textLength="366" x="177" y="1290.0727">marketSell(__0: CreateOrderOptions): Promise&lt;GetOrderType&lt;Domain&gt;&gt;</text><ellipse cx="168" cy="1300.9077" fill="#84BE84" rx="3" ry="3" style="stroke: #038048; stroke-width: 1.0;"/><text fill="#000000" font-family="sans-serif" font-size="11" font-style="italic" lengthAdjust="spacingAndGlyphs" textLength="365" x="177" y="1303.9086">marketBuy(__0: CreateOrderOptions): Promise&lt;GetOrderType&lt;Domain&gt;&gt;</text><ellipse cx="168" cy="1314.7436" fill="#84BE84" rx="3" ry="3" style="stroke: #038048; stroke-width: 1.0;"/><text fill="#000000" font-family="sans-serif" font-size="11" font-style="italic" lengthAdjust="spacingAndGlyphs" textLength="254" x="177" y="1317.7446">sellOrCancel(): Promise&lt;GetOrderType&lt;Domain&gt;&gt;</text><ellipse cx="168" cy="1328.5795" fill="#84BE84" rx="3" ry="3" style="stroke: #038048; stroke-width: 1.0;"/><text fill="#000000" font-family="sans-serif" font-size="11" font-style="italic" lengthAdjust="spacingAndGlyphs" textLength="254" x="177" y="1331.5805">buyOrCancel(): Promise&lt;GetOrderType&lt;Domain&gt;&gt;</text><!--class AbstractExchangeConnector--><rect fill="#FEFECE" filter="url(#f1w0yd83hvd5p3)" height="186.3594" id="AbstractExchangeConnector" style="stroke: #A80036; stroke-width: 1.5;" width="468" x="394" y="701.95"/><ellipse cx="409" cy="717.95" fill="#A9DCDF" rx="11" ry="11" style="stroke: #A80036; stroke-width: 1.0;"/><path d="M411.1875,719.7156 L407.0469,719.7156 L406.625,720.7469 L407.0469,720.7469 Q407.6563,720.7469 407.9219,720.9813 Q408.1875,721.2156 408.1875,721.6063 Q408.1875,721.9813 407.9219,722.2156 Q407.6563,722.45 407.0469,722.45 L404.75,722.45 Q404.1406,722.45 403.8906,722.2156 Q403.625,721.9813 403.625,721.5906 Q403.625,721.2156 403.9063,720.9813 Q404.1719,720.7313 404.7969,720.7469 L407.4688,714.0906 L406.3594,714.0906 Q405.75,714.0906 405.4844,713.8563 Q405.2188,713.6219 405.2188,713.2313 Q405.2188,712.8563 405.4844,712.6219 Q405.75,712.3875 406.3594,712.3875 L410.0313,712.3875 L413.4219,720.7469 Q414.0156,720.7469 414.2031,720.8875 Q414.5938,721.1531 414.5938,721.6063 Q414.5938,721.9813 414.3281,722.2156 Q414.0781,722.45 413.4688,722.45 L411.1719,722.45 Q410.5625,722.45 410.2969,722.2156 Q410.0313,721.9813 410.0313,721.5906 Q410.0313,721.2156 410.2969,720.9813 Q410.5625,720.7469 411.1719,720.7469 L411.5938,720.7469 L411.1875,719.7156 Z M410.4688,718.0125 L409.1094,714.6375 L407.7344,718.0125 L410.4688,718.0125 Z "/><text fill="#000000" font-family="sans-serif" font-size="12" font-style="italic" lengthAdjust="spacingAndGlyphs" textLength="157" x="423" y="722.8602">AbstractExchangeConnector</text><rect fill="#FFFFFF" height="17.0938" style="stroke: #000000; stroke-width: 1.0; stroke-dasharray: 2.0,2.0;" width="277" x="588" y="698.95"/><text fill="#000000" font-family="sans-serif" font-size="12" font-style="italic" lengthAdjust="spacingAndGlyphs" textLength="275" x="589" y="712.407">Domain extends DomainTemplate, TExchangeApi</text><line style="stroke: #A80036; stroke-width: 1.5;" x1="395" x2="861" y1="733.95" y2="733.95"/><ellipse cx="405" cy="746.368" fill="none" rx="3" ry="3" style="stroke: #038048; stroke-width: 1.0;"/><text fill="#000000" font-family="sans-serif" font-size="11" lengthAdjust="spacingAndGlyphs" textLength="90" x="414" y="749.3689">api: TExchangeApi</text><ellipse cx="405" cy="760.2039" fill="none" rx="3" ry="3" style="stroke: #038048; stroke-width: 1.0;"/><text fill="#000000" font-family="sans-serif" font-size="11" lengthAdjust="spacingAndGlyphs" textLength="176" x="414" y="763.2049">tradeModule: ITradeModule&lt;Domain&gt;</text><ellipse cx="405" cy="774.0398" fill="none" rx="3" ry="3" style="stroke: #038048; stroke-width: 1.0;"/><text fill="#000000" font-family="sans-serif" font-size="11" lengthAdjust="spacingAndGlyphs" textLength="159" x="414" y="777.0408">infoModule: IInfoModule&lt;Domain&gt;</text><ellipse cx="405" cy="787.8758" fill="none" rx="3" ry="3" style="stroke: #038048; stroke-width: 1.0;"/><text fill="#000000" font-family="sans-serif" font-size="11" lengthAdjust="spacingAndGlyphs" textLength="196" x="414" y="790.8768">domainMapper: IDomainMapper&lt;Domain&gt;</text><ellipse cx="405" cy="801.7117" fill="none" rx="3" ry="3" style="stroke: #038048; stroke-width: 1.0;"/><text fill="#000000" font-family="sans-serif" font-size="11" lengthAdjust="spacingAndGlyphs" textLength="136" x="414" y="804.7127">isAccountInitialized: boolean</text><polygon fill="none" points="405,810.5477,409,814.5477,405,818.5477,401,814.5477" style="stroke: #B38D22; stroke-width: 1.0;"/><text fill="#000000" font-family="sans-serif" font-size="11" lengthAdjust="spacingAndGlyphs" textLength="136" x="414" y="818.5486">isAccountInitialized: boolean</text><rect fill="none" height="6" style="stroke: #C82930; stroke-width: 1.0;" width="6" x="402" y="826.3836"/><text fill="#000000" font-family="sans-serif" font-size="11" lengthAdjust="spacingAndGlyphs" textLength="142" x="414" y="832.3846">_isAccountInitialized: boolean</text><line style="stroke: #A80036; stroke-width: 1.5;" x1="395" x2="861" y1="838.8016" y2="838.8016"/><ellipse cx="405" cy="851.2195" fill="#84BE84" rx="3" ry="3" style="stroke: #038048; stroke-width: 1.0;"/><text fill="#000000" font-family="sans-serif" font-size="11" font-style="italic" lengthAdjust="spacingAndGlyphs" textLength="171" x="414" y="854.2205">initAccount(): void | Promise&lt;void&gt;</text><ellipse cx="405" cy="865.0555" fill="#84BE84" rx="3" ry="3" style="stroke: #038048; stroke-width: 1.0;"/><text fill="#000000" font-family="sans-serif" font-size="11" font-style="italic" lengthAdjust="spacingAndGlyphs" textLength="301" x="414" y="868.0564">getPortfolio(): Promise&lt;GetSecurityBalanceType&lt;Domain&gt;[]&gt;</text><ellipse cx="405" cy="878.8914" fill="#84BE84" rx="3" ry="3" style="stroke: #038048; stroke-width: 1.0;"/><text fill="#000000" font-family="sans-serif" font-size="11" font-style="italic" lengthAdjust="spacingAndGlyphs" textLength="360" x="414" y="881.8924">getCurrenciesBalance(): Promise&lt;GetCurrencyBalanceType&lt;Domain&gt;[]&gt;</text><!--link IInfoModule to AbstractInfoModule--><path d="M454.75,171.44 C425.13,193.22 392.84,216.97 363.07,238.87 " fill="none" id="IInfoModule-AbstractInfoModule" style="stroke: #A80036; stroke-width: 1.0; stroke-dasharray: 7.0,7.0;"/><polygon fill="none" points="450.1,165.43,470.36,159.22,458.4,176.71,450.1,165.43" style="stroke: #A80036; stroke-width: 1.0;"/><!--link ITradeModule to AbstractTradeModule--><path d="M494.08,1117.04 C481.51,1137.33 468.09,1159.01 455.64,1179.11 " fill="none" id="ITradeModule-AbstractTradeModule" style="stroke: #A80036; stroke-width: 1.0; stroke-dasharray: 7.0,7.0;"/><polygon fill="none" points="488.6,1113.59,505.08,1100.27,500.51,1120.96,488.6,1113.59" style="stroke: #A80036; stroke-width: 1.0;"/><!--link IExchangeConnector to AbstractExchangeConnector--><path d="M439.31,635.36 C464.7,656.73 492.12,679.79 517.96,701.54 " fill="none" id="IExchangeConnector-AbstractExchangeConnector" style="stroke: #A80036; stroke-width: 1.0; stroke-dasharray: 7.0,7.0;"/><polygon fill="none" points="435.16,640.18,424.37,621.94,444.18,629.47,435.16,640.18" style="stroke: #A80036; stroke-width: 1.0;"/><!--link IExchangeConnector to ITradeModule--><path d="M332.15,621.87 C328.48,693.33 331.8,804.71 376,888.31 C391.44,917.51 415.43,943.33 440.53,964.77 " fill="none" id="IExchangeConnector-ITradeModule" style="stroke: #A80036; stroke-width: 1.0;"/><polygon fill="#A80036" points="443.9,968.45,439.5954,959.5916,440.0766,965.228,434.4402,965.7092,443.9,968.45" style="stroke: #A80036; stroke-width: 1.0;"/><text fill="#000000" font-family="sans-serif" font-size="13" lengthAdjust="spacingAndGlyphs" textLength="7" x="425.9213" y="957.4823">1</text><!--link IExchangeConnector to IInfoModule--><path d="M453.04,478.08 C480.18,455.76 506.13,428.76 523,397.95 C562.59,325.63 567.36,229.25 565.01,164.76 " fill="none" id="IExchangeConnector-IInfoModule" style="stroke: #A80036; stroke-width: 1.0;"/><polygon fill="#A80036" points="564.78,160.01,561.1429,169.1627,564.9798,165.006,569.1365,168.8429,564.78,160.01" style="stroke: #A80036; stroke-width: 1.0;"/><text fill="#000000" font-family="sans-serif" font-size="13" lengthAdjust="spacingAndGlyphs" textLength="7" x="558.7205" y="180.1859">1</text><!--link AbstractInfoModule to IExchangeConnector--><path d="M284.45,398.22 C293.17,422.33 302.76,448.8 311.42,472.75 " fill="none" id="AbstractInfoModule-IExchangeConnector" style="stroke: #A80036; stroke-width: 1.0;"/><polygon fill="#A80036" points="313.37,477.14,314.0703,467.3161,311.6693,472.4381,306.5473,470.0372,313.37,477.14" style="stroke: #A80036; stroke-width: 1.0;"/><text fill="#000000" font-family="sans-serif" font-size="13" lengthAdjust="spacingAndGlyphs" textLength="7" x="303.1839" y="466.8786">1</text><!--link AbstractTradeModule to IExchangeConnector--><path d="M336.79,1179.03 C324.14,1160.62 312.82,1140.23 306,1119.31 C250.91,950.44 289.43,738.57 317.28,627.29 " fill="none" id="AbstractTradeModule-IExchangeConnector" style="stroke: #A80036; stroke-width: 1.0;"/><polygon fill="#A80036" points="318.68,622.74,312.5952,630.4843,317.4539,627.5873,320.3509,632.4461,318.68,622.74" style="stroke: #A80036; stroke-width: 1.0;"/><text fill="#000000" font-family="sans-serif" font-size="13" lengthAdjust="spacingAndGlyphs" textLength="7" x="302.3009" y="644.254">1</text><!--link AbstractExchangeConnector to ITradeModule--><path d="M595.55,888.66 C586.88,913.38 577.66,939.69 569.49,962.97 " fill="none" id="AbstractExchangeConnector-ITradeModule" style="stroke: #A80036; stroke-width: 1.0;"/><polygon fill="#A80036" points="567.55,967.51,574.3015,960.3394,569.2037,962.7914,566.7517,957.6936,567.55,967.51" style="stroke: #A80036; stroke-width: 1.0;"/><text fill="#000000" font-family="sans-serif" font-size="13" lengthAdjust="spacingAndGlyphs" textLength="7" x="562.7527" y="957.5492">1</text><!--link AbstractExchangeConnector to IInfoModule--><path d="M618.86,701.45 C604.86,559.63 578.45,291.88 565.92,164.93 " fill="none" id="AbstractExchangeConnector-IInfoModule" style="stroke: #A80036; stroke-width: 1.0;"/><polygon fill="#A80036" points="565.34,159.99,562.2341,169.3363,565.8262,164.9663,570.1962,168.5584,565.34,159.99" style="stroke: #A80036; stroke-width: 1.0;"/><text fill="#000000" font-family="sans-serif" font-size="13" lengthAdjust="spacingAndGlyphs" textLength="7" x="569.399" y="180.1577">1</text><!--
@startuml
interface IInfoModule<Domain extends DomainTemplate> {
    +getCurrencies(): Promise<GetCurrencyType<Domain>[]>
    +getSecurityLastPrice(ticker: string): Promise<number>
    +getSecurityCurrency(ticker: string): Promise<GetCurrencyType<Domain>>
    +getSecurityName(ticker: string): Promise<string>
    +getSecurity(ticker: string, ignoreCache?: boolean): Promise<any>
    +getSecurityByExchangeId(id: string, ignoreCache?: boolean): Promise<any>
}
interface ITradeModule<Domain extends DomainTemplate> {
    +sell(options: CreateOrderOptions): Promise<GetOrderType<Domain>>
    +buy(options: CreateOrderOptions): Promise<GetOrderType<Domain>>
    +marketSell(options: CreateOrderOptions): Promise<GetOrderType<Domain>>
    +marketBuy(options: CreateOrderOptions): Promise<GetOrderType<Domain>>
    +sellOrCancel(): Promise<GetOrderType<Domain>>
    +buyOrCancel(): Promise<GetOrderType<Domain>>
}
interface IExchangeConnector<Domain extends DomainTemplate, TExchangeApi> {
    +api: TExchangeApi
    +tradeModule: ITradeModule<Domain>
    +infoModule: IInfoModule<Domain>
    +domainMapper: IDomainMapper<Domain>
    +initAccount(): void | Promise<void>
    +getPortfolio(): Promise<GetSecurityBalanceType<Domain>[]>
    +getCurrenciesBalance(): Promise<GetCurrencyBalanceType<Domain>[]>
}
abstract class AbstractInfoModule<Domain extends DomainTemplate, TExchangeApi> implements IInfoModule {
    #exchangeConnector: IExchangeConnector<Domain, TExchangeApi>
    +setExchangeConnector(exchangeConnector: IExchangeConnector<Domain, TExchangeApi>): void
    +{abstract} getCurrencies(): Promise<GetCurrencyType<Domain>[]>
    +{abstract} getSecurityLastPrice(ticker: string): Promise<number>
    +{abstract} getSecurityCurrency(ticker: string): Promise<GetCurrencyType<Domain>>
    +{abstract} getSecurityName(ticker: string): Promise<string>
    +{abstract} getSecurity(ticker: string, ignoreCache?: boolean): Promise<any>
    +{abstract} getSecurityByExchangeId(id: string, ignoreCache?: boolean): Promise<any>
}
abstract class AbstractTradeModule<Domain extends DomainTemplate, TExchangeApi> implements ITradeModule {
    #exchangeConnector: IExchangeConnector<Domain, TExchangeApi>
    +setExchangeConnector(exchangeConnector: IExchangeConnector<Domain, TExchangeApi>): void
    +{abstract} sell(__0: CreateOrderOptions): Promise<GetOrderType<Domain>>
    +{abstract} buy(__0: CreateOrderOptions): Promise<GetOrderType<Domain>>
    +{abstract} marketSell(__0: CreateOrderOptions): Promise<GetOrderType<Domain>>
    +{abstract} marketBuy(__0: CreateOrderOptions): Promise<GetOrderType<Domain>>
    +{abstract} sellOrCancel(): Promise<GetOrderType<Domain>>
    +{abstract} buyOrCancel(): Promise<GetOrderType<Domain>>
}
abstract class AbstractExchangeConnector<Domain extends DomainTemplate, TExchangeApi> implements IExchangeConnector {
    +api: TExchangeApi
    +tradeModule: ITradeModule<Domain>
    +infoModule: IInfoModule<Domain>
    +domainMapper: IDomainMapper<Domain>
    +{abstract} initAccount(): void | Promise<void>
    +{abstract} getPortfolio(): Promise<GetSecurityBalanceType<Domain>[]>
    +{abstract} getCurrenciesBalance(): Promise<GetCurrencyBalanceType<Domain>[]>
    +isAccountInitialized: boolean
    #isAccountInitialized: boolean
    -_isAccountInitialized: boolean
}
IExchangeConnector - -> "1" ITradeModule
IExchangeConnector - -> "1" IInfoModule
AbstractInfoModule - -> "1" IExchangeConnector
AbstractTradeModule - -> "1" IExchangeConnector
AbstractExchangeConnector - -> "1" ITradeModule
AbstractExchangeConnector - -> "1" IInfoModule
@enduml

PlantUML version 1.2019.06(Fri May 24 21:10:25 GET 2019)
(GPL source distribution)
Java Runtime: Java(TM) SE Runtime Environment
JVM: Java HotSpot(TM) 64-Bit Server VM
Java Version: 20.0.1+9-29
Operating System: Windows 10
OS Version: 10.0
Default Encoding: UTF-8
Language: en
Country: US
--></g></svg>