<?xml version="1.0" encoding="UTF-8" standalone="no"?><svg xmlns="http://www.w3.org/2000/svg" xmlns:xlink="http://www.w3.org/1999/xlink" contentScriptType="application/ecmascript" contentStyleType="text/css" height="1348px" preserveAspectRatio="none" style="width:852px;height:1348px;" version="1.1" viewBox="0 0 852 1348" width="852px" zoomAndPan="magnify"><defs><filter height="300%" id="fgah9ooevo5kx" width="300%" x="-1" y="-1"><feGaussianBlur result="blurOut" stdDeviation="2.0"/><feColorMatrix in="blurOut" result="blurOut2" type="matrix" values="0 0 0 0 0 0 0 0 0 0 0 0 0 0 0 0 0 0 .4 0"/><feOffset dx="4.0" dy="4.0" in="blurOut2" result="blurOut3"/><feBlend in="SourceGraphic" in2="blurOut3" mode="normal"/></filter></defs><g><!--class IInfoModule--><rect fill="#FEFECE" filter="url(#fgah9ooevo5kx)" height="131.0156" id="IInfoModule" style="stroke: #A80036; stroke-width: 1.5;" width="390" x="340" y="28"/><ellipse cx="401.75" cy="44" fill="#B4A7E5" rx="11" ry="11" style="stroke: #A80036; stroke-width: 1.0;"/><path d="M402.7031,40.6406 L402.7031,47.2969 L404.4219,47.2969 Q405.0313,47.2969 405.2969,47.5313 Q405.5625,47.7656 405.5625,48.1563 Q405.5625,48.5313 405.2969,48.7656 Q405.0313,49 404.4219,49 L399.2813,49 Q398.6719,49 398.4063,48.7656 Q398.1406,48.5313 398.1406,48.1406 Q398.1406,47.7656 398.4063,47.5313 Q398.6719,47.2969 399.2813,47.2969 L401,47.2969 L401,40.6406 L399.2813,40.6406 Q398.6719,40.6406 398.4063,40.4063 Q398.1406,40.1719 398.1406,39.7813 Q398.1406,39.4063 398.4063,39.1719 Q398.6719,38.9375 399.2813,38.9375 L404.4219,38.9375 Q405.0313,38.9375 405.2969,39.1719 Q405.5625,39.4063 405.5625,39.7813 Q405.5625,40.1719 405.2969,40.4063 Q405.0313,40.6406 404.4219,40.6406 L402.7031,40.6406 Z "/><text fill="#000000" font-family="sans-serif" font-size="12" font-style="italic" lengthAdjust="spacingAndGlyphs" textLength="65" x="422.25" y="48.9102">IInfoModule</text><rect fill="#FFFFFF" height="17.0938" style="stroke: #000000; stroke-width: 1.0; stroke-dasharray: 2.0,2.0;" width="191" x="542" y="25"/><text fill="#000000" font-family="sans-serif" font-size="12" font-style="italic" lengthAdjust="spacingAndGlyphs" textLength="189" x="543" y="38.457">Domain extends DomainTemplate</text><line style="stroke: #A80036; stroke-width: 1.5;" x1="341" x2="729" y1="60" y2="60"/><line style="stroke: #A80036; stroke-width: 1.5;" x1="341" x2="729" y1="68" y2="68"/><ellipse cx="351" cy="80.418" fill="#84BE84" rx="3" ry="3" style="stroke: #038048; stroke-width: 1.0;"/><text fill="#000000" font-family="sans-serif" font-size="11" lengthAdjust="spacingAndGlyphs" textLength="271" x="360" y="83.4189">getCurrencies(): Promise&lt;GetCurrencyType&lt;Domain&gt;[]&gt;</text><ellipse cx="351" cy="94.2539" fill="#84BE84" rx="3" ry="3" style="stroke: #038048; stroke-width: 1.0;"/><text fill="#000000" font-family="sans-serif" font-size="11" lengthAdjust="spacingAndGlyphs" textLength="259" x="360" y="97.2549">getSecurityLastPrice(ticker: string): Promise&lt;number&gt;</text><ellipse cx="351" cy="108.0898" fill="#84BE84" rx="3" ry="3" style="stroke: #038048; stroke-width: 1.0;"/><text fill="#000000" font-family="sans-serif" font-size="11" lengthAdjust="spacingAndGlyphs" textLength="356" x="360" y="111.0908">getSecurityCurrency(ticker: string): Promise&lt;GetCurrencyType&lt;Domain&gt;&gt;</text><ellipse cx="351" cy="121.9258" fill="#84BE84" rx="3" ry="3" style="stroke: #038048; stroke-width: 1.0;"/><text fill="#000000" font-family="sans-serif" font-size="11" lengthAdjust="spacingAndGlyphs" textLength="232" x="360" y="124.9268">getSecurityName(ticker: string): Promise&lt;string&gt;</text><ellipse cx="351" cy="135.7617" fill="#84BE84" rx="3" ry="3" style="stroke: #038048; stroke-width: 1.0;"/><text fill="#000000" font-family="sans-serif" font-size="11" lengthAdjust="spacingAndGlyphs" textLength="313" x="360" y="138.7627">getSecurity(ticker: string, ignoreCache?: boolean): Promise&lt;any&gt;</text><ellipse cx="351" cy="149.5977" fill="#84BE84" rx="3" ry="3" style="stroke: #038048; stroke-width: 1.0;"/><text fill="#000000" font-family="sans-serif" font-size="11" lengthAdjust="spacingAndGlyphs" textLength="364" x="360" y="152.5986">getSecurityByExchangeId(id: string, ignoreCache?: boolean): Promise&lt;any&gt;</text><!--class ITradeModule--><rect fill="#FEFECE" filter="url(#fgah9ooevo5kx)" height="131.0156" id="ITradeModule" style="stroke: #A80036; stroke-width: 1.5;" width="395" x="323.5" y="968"/><ellipse cx="382.25" cy="984" fill="#B4A7E5" rx="11" ry="11" style="stroke: #A80036; stroke-width: 1.0;"/><path d="M383.2031,980.6406 L383.2031,987.2969 L384.9219,987.2969 Q385.5313,987.2969 385.7969,987.5313 Q386.0625,987.7656 386.0625,988.1563 Q386.0625,988.5313 385.7969,988.7656 Q385.5313,989 384.9219,989 L379.7813,989 Q379.1719,989 378.9063,988.7656 Q378.6406,988.5313 378.6406,988.1406 Q378.6406,987.7656 378.9063,987.5313 Q379.1719,987.2969 379.7813,987.2969 L381.5,987.2969 L381.5,980.6406 L379.7813,980.6406 Q379.1719,980.6406 378.9063,980.4063 Q378.6406,980.1719 378.6406,979.7813 Q378.6406,979.4063 378.9063,979.1719 Q379.1719,978.9375 379.7813,978.9375 L384.9219,978.9375 Q385.5313,978.9375 385.7969,979.1719 Q386.0625,979.4063 386.0625,979.7813 Q386.0625,980.1719 385.7969,980.4063 Q385.5313,980.6406 384.9219,980.6406 L383.2031,980.6406 Z "/><text fill="#000000" font-family="sans-serif" font-size="12" font-style="italic" lengthAdjust="spacingAndGlyphs" textLength="76" x="402.75" y="988.9102">ITradeModule</text><rect fill="#FFFFFF" height="17.0938" style="stroke: #000000; stroke-width: 1.0; stroke-dasharray: 2.0,2.0;" width="191" x="530.5" y="965"/><text fill="#000000" font-family="sans-serif" font-size="12" font-style="italic" lengthAdjust="spacingAndGlyphs" textLength="189" x="531.5" y="978.457">Domain extends DomainTemplate</text><line style="stroke: #A80036; stroke-width: 1.5;" x1="324.5" x2="717.5" y1="1000" y2="1000"/><line style="stroke: #A80036; stroke-width: 1.5;" x1="324.5" x2="717.5" y1="1008" y2="1008"/><ellipse cx="334.5" cy="1020.418" fill="#84BE84" rx="3" ry="3" style="stroke: #038048; stroke-width: 1.0;"/><text fill="#000000" font-family="sans-serif" font-size="11" lengthAdjust="spacingAndGlyphs" textLength="334" x="343.5" y="1023.4189">sell(options: CreateOrderOptions): Promise&lt;GetOrderType&lt;Domain&gt;&gt;</text><ellipse cx="334.5" cy="1034.2539" fill="#84BE84" rx="3" ry="3" style="stroke: #038048; stroke-width: 1.0;"/><text fill="#000000" font-family="sans-serif" font-size="11" lengthAdjust="spacingAndGlyphs" textLength="336" x="343.5" y="1037.2549">buy(options: CreateOrderOptions): Promise&lt;GetOrderType&lt;Domain&gt;&gt;</text><ellipse cx="334.5" cy="1048.0898" fill="#84BE84" rx="3" ry="3" style="stroke: #038048; stroke-width: 1.0;"/><text fill="#000000" font-family="sans-serif" font-size="11" lengthAdjust="spacingAndGlyphs" textLength="367" x="343.5" y="1051.0908">marketSell(options: CreateOrderOptions): Promise&lt;GetOrderType&lt;Domain&gt;&gt;</text><ellipse cx="334.5" cy="1061.9258" fill="#84BE84" rx="3" ry="3" style="stroke: #038048; stroke-width: 1.0;"/><text fill="#000000" font-family="sans-serif" font-size="11" lengthAdjust="spacingAndGlyphs" textLength="369" x="343.5" y="1064.9268">marketBuy(options: CreateOrderOptions): Promise&lt;GetOrderType&lt;Domain&gt;&gt;</text><ellipse cx="334.5" cy="1075.7617" fill="#84BE84" rx="3" ry="3" style="stroke: #038048; stroke-width: 1.0;"/><text fill="#000000" font-family="sans-serif" font-size="11" lengthAdjust="spacingAndGlyphs" textLength="241" x="343.5" y="1078.7627">sellOrCancel(): Promise&lt;GetOrderType&lt;Domain&gt;&gt;</text><ellipse cx="334.5" cy="1089.5977" fill="#84BE84" rx="3" ry="3" style="stroke: #038048; stroke-width: 1.0;"/><text fill="#000000" font-family="sans-serif" font-size="11" lengthAdjust="spacingAndGlyphs" textLength="243" x="343.5" y="1092.5986">buyOrCancel(): Promise&lt;GetOrderType&lt;Domain&gt;&gt;</text><!--class IExchangeConnector--><rect fill="#FEFECE" filter="url(#fgah9ooevo5kx)" height="144.8516" id="IExchangeConnector" style="stroke: #A80036; stroke-width: 1.5;" width="427" x="101.5" y="478"/><ellipse cx="116.5" cy="494" fill="#B4A7E5" rx="11" ry="11" style="stroke: #A80036; stroke-width: 1.0;"/><path d="M117.4531,490.6406 L117.4531,497.2969 L119.1719,497.2969 Q119.7813,497.2969 120.0469,497.5313 Q120.3125,497.7656 120.3125,498.1563 Q120.3125,498.5313 120.0469,498.7656 Q119.7813,499 119.1719,499 L114.0313,499 Q113.4219,499 113.1563,498.7656 Q112.8906,498.5313 112.8906,498.1406 Q112.8906,497.7656 113.1563,497.5313 Q113.4219,497.2969 114.0313,497.2969 L115.75,497.2969 L115.75,490.6406 L114.0313,490.6406 Q113.4219,490.6406 113.1563,490.4063 Q112.8906,490.1719 112.8906,489.7813 Q112.8906,489.4063 113.1563,489.1719 Q113.4219,488.9375 114.0313,488.9375 L119.1719,488.9375 Q119.7813,488.9375 120.0469,489.1719 Q120.3125,489.4063 120.3125,489.7813 Q120.3125,490.1719 120.0469,490.4063 Q119.7813,490.6406 119.1719,490.6406 L117.4531,490.6406 Z "/><text fill="#000000" font-family="sans-serif" font-size="12" font-style="italic" lengthAdjust="spacingAndGlyphs" textLength="116" x="130.5" y="498.9102">IExchangeConnector</text><rect fill="#FFFFFF" height="17.0938" style="stroke: #000000; stroke-width: 1.0; stroke-dasharray: 2.0,2.0;" width="277" x="254.5" y="475"/><text fill="#000000" font-family="sans-serif" font-size="12" font-style="italic" lengthAdjust="spacingAndGlyphs" textLength="275" x="255.5" y="488.457">Domain extends DomainTemplate, TExchangeApi</text><line style="stroke: #A80036; stroke-width: 1.5;" x1="102.5" x2="527.5" y1="510" y2="510"/><ellipse cx="112.5" cy="522.418" fill="none" rx="3" ry="3" style="stroke: #038048; stroke-width: 1.0;"/><text fill="#000000" font-family="sans-serif" font-size="11" lengthAdjust="spacingAndGlyphs" textLength="90" x="121.5" y="525.4189">api: TExchangeApi</text><ellipse cx="112.5" cy="536.2539" fill="none" rx="3" ry="3" style="stroke: #038048; stroke-width: 1.0;"/><text fill="#000000" font-family="sans-serif" font-size="11" lengthAdjust="spacingAndGlyphs" textLength="176" x="121.5" y="539.2549">tradeModule: ITradeModule&lt;Domain&gt;</text><ellipse cx="112.5" cy="550.0898" fill="none" rx="3" ry="3" style="stroke: #038048; stroke-width: 1.0;"/><text fill="#000000" font-family="sans-serif" font-size="11" lengthAdjust="spacingAndGlyphs" textLength="159" x="121.5" y="553.0908">infoModule: IInfoModule&lt;Domain&gt;</text><ellipse cx="112.5" cy="563.9258" fill="none" rx="3" ry="3" style="stroke: #038048; stroke-width: 1.0;"/><text fill="#000000" font-family="sans-serif" font-size="11" lengthAdjust="spacingAndGlyphs" textLength="196" x="121.5" y="566.9268">domainMapper: IDomainMapper&lt;Domain&gt;</text><line style="stroke: #A80036; stroke-width: 1.5;" x1="102.5" x2="527.5" y1="573.3438" y2="573.3438"/><ellipse cx="112.5" cy="585.7617" fill="#84BE84" rx="3" ry="3" style="stroke: #038048; stroke-width: 1.0;"/><text fill="#000000" font-family="sans-serif" font-size="11" lengthAdjust="spacingAndGlyphs" textLength="166" x="121.5" y="588.7627">initAccount(): void | Promise&lt;void&gt;</text><ellipse cx="112.5" cy="599.5977" fill="#84BE84" rx="3" ry="3" style="stroke: #038048; stroke-width: 1.0;"/><text fill="#000000" font-family="sans-serif" font-size="11" lengthAdjust="spacingAndGlyphs" textLength="291" x="121.5" y="602.5986">getPortfolio(): Promise&lt;GetSecurityBalanceType&lt;Domain&gt;[]&gt;</text><ellipse cx="112.5" cy="613.4336" fill="#84BE84" rx="3" ry="3" style="stroke: #038048; stroke-width: 1.0;"/><text fill="#000000" font-family="sans-serif" font-size="11" lengthAdjust="spacingAndGlyphs" textLength="349" x="121.5" y="616.4346">getCurrenciesBalance(): Promise&lt;GetCurrencyBalanceType&lt;Domain&gt;[]&gt;</text><!--class AbstractInfoModule--><rect fill="#FEFECE" filter="url(#fgah9ooevo5kx)" height="158.6875" id="AbstractInfoModule" style="stroke: #A80036; stroke-width: 1.5;" width="476" x="6" y="239"/><ellipse cx="47.55" cy="255" fill="#A9DCDF" rx="11" ry="11" style="stroke: #A80036; stroke-width: 1.0;"/><path d="M49.7375,256.7656 L45.5969,256.7656 L45.175,257.7969 L45.5969,257.7969 Q46.2063,257.7969 46.4719,258.0313 Q46.7375,258.2656 46.7375,258.6563 Q46.7375,259.0313 46.4719,259.2656 Q46.2063,259.5 45.5969,259.5 L43.3,259.5 Q42.6906,259.5 42.4328,259.2656 Q42.175,259.0313 42.175,258.6406 Q42.175,258.2656 42.4484,258.0234 Q42.7219,257.7813 43.3469,257.7969 L46.0188,251.1406 L44.9094,251.1406 Q44.3,251.1406 44.0344,250.9063 Q43.7688,250.6719 43.7688,250.2813 Q43.7688,249.9063 44.0344,249.6719 Q44.3,249.4375 44.9094,249.4375 L48.5813,249.4375 L51.9719,257.7969 Q52.5656,257.7969 52.7531,257.9375 Q53.1438,258.2031 53.1438,258.6563 Q53.1438,259.0313 52.8859,259.2656 Q52.6281,259.5 52.0188,259.5 L49.7219,259.5 Q49.1125,259.5 48.8469,259.2656 Q48.5813,259.0313 48.5813,258.6406 Q48.5813,258.2656 48.8469,258.0313 Q49.1125,257.7969 49.7219,257.7969 L50.1438,257.7969 L49.7375,256.7656 Z M49.0188,255.0625 L47.6594,251.6875 L46.2844,255.0625 L49.0188,255.0625 Z "/><text fill="#000000" font-family="sans-serif" font-size="12" font-style="italic" lengthAdjust="spacingAndGlyphs" textLength="106" x="67.45" y="259.9102">AbstractInfoModule</text><rect fill="#FFFFFF" height="17.0938" style="stroke: #000000; stroke-width: 1.0; stroke-dasharray: 2.0,2.0;" width="277" x="208" y="236"/><text fill="#000000" font-family="sans-serif" font-size="12" font-style="italic" lengthAdjust="spacingAndGlyphs" textLength="275" x="209" y="249.457">Domain extends DomainTemplate, TExchangeApi</text><line style="stroke: #A80036; stroke-width: 1.5;" x1="7" x2="481" y1="271" y2="271"/><polygon fill="none" points="17,278.418,21,282.418,17,286.418,13,282.418" style="stroke: #B38D22; stroke-width: 1.0;"/><text fill="#000000" font-family="sans-serif" font-size="11" lengthAdjust="spacingAndGlyphs" textLength="327" x="26" y="286.4189">exchangeConnector: IExchangeConnector&lt;Domain, TExchangeApi&gt;</text><line style="stroke: #A80036; stroke-width: 1.5;" x1="7" x2="481" y1="292.8359" y2="292.8359"/><ellipse cx="17" cy="305.2539" fill="#84BE84" rx="3" ry="3" style="stroke: #038048; stroke-width: 1.0;"/><text fill="#000000" font-family="sans-serif" font-size="11" lengthAdjust="spacingAndGlyphs" textLength="450" x="26" y="308.2549">setExchangeClient(exchangeConnector: IExchangeConnector&lt;Domain, TExchangeApi&gt;): void</text><ellipse cx="17" cy="319.0898" fill="#84BE84" rx="3" ry="3" style="stroke: #038048; stroke-width: 1.0;"/><text fill="#000000" font-family="sans-serif" font-size="11" font-style="italic" lengthAdjust="spacingAndGlyphs" textLength="280" x="26" y="322.0908">getCurrencies(): Promise&lt;GetCurrencyType&lt;Domain&gt;[]&gt;</text><ellipse cx="17" cy="332.9258" fill="#84BE84" rx="3" ry="3" style="stroke: #038048; stroke-width: 1.0;"/><text fill="#000000" font-family="sans-serif" font-size="11" font-style="italic" lengthAdjust="spacingAndGlyphs" textLength="269" x="26" y="335.9268">getSecurityLastPrice(ticker: string): Promise&lt;number&gt;</text><ellipse cx="17" cy="346.7617" fill="#84BE84" rx="3" ry="3" style="stroke: #038048; stroke-width: 1.0;"/><text fill="#000000" font-family="sans-serif" font-size="11" font-style="italic" lengthAdjust="spacingAndGlyphs" textLength="366" x="26" y="349.7627">getSecurityCurrency(ticker: string): Promise&lt;GetCurrencyType&lt;Domain&gt;&gt;</text><ellipse cx="17" cy="360.5977" fill="#84BE84" rx="3" ry="3" style="stroke: #038048; stroke-width: 1.0;"/><text fill="#000000" font-family="sans-serif" font-size="11" font-style="italic" lengthAdjust="spacingAndGlyphs" textLength="241" x="26" y="363.5986">getSecurityName(ticker: string): Promise&lt;string&gt;</text><ellipse cx="17" cy="374.4336" fill="#84BE84" rx="3" ry="3" style="stroke: #038048; stroke-width: 1.0;"/><text fill="#000000" font-family="sans-serif" font-size="11" font-style="italic" lengthAdjust="spacingAndGlyphs" textLength="322" x="26" y="377.4346">getSecurity(ticker: string, ignoreCache?: boolean): Promise&lt;any&gt;</text><ellipse cx="17" cy="388.2695" fill="#84BE84" rx="3" ry="3" style="stroke: #038048; stroke-width: 1.0;"/><text fill="#000000" font-family="sans-serif" font-size="11" font-style="italic" lengthAdjust="spacingAndGlyphs" textLength="373" x="26" y="391.2705">getSecurityByExchangeId(id: string, ignoreCache?: boolean): Promise&lt;any&gt;</text><!--class AbstractTradeModule--><rect fill="#FEFECE" filter="url(#fgah9ooevo5kx)" height="158.6875" id="AbstractTradeModule" style="stroke: #A80036; stroke-width: 1.5;" width="476" x="145" y="1179"/><ellipse cx="181.6" cy="1195" fill="#A9DCDF" rx="11" ry="11" style="stroke: #A80036; stroke-width: 1.0;"/><path d="M183.7875,1196.7656 L179.6469,1196.7656 L179.225,1197.7969 L179.6469,1197.7969 Q180.2563,1197.7969 180.5219,1198.0313 Q180.7875,1198.2656 180.7875,1198.6563 Q180.7875,1199.0313 180.5219,1199.2656 Q180.2563,1199.5 179.6469,1199.5 L177.35,1199.5 Q176.7406,1199.5 176.4828,1199.2656 Q176.225,1199.0313 176.225,1198.6406 Q176.225,1198.2656 176.4984,1198.0234 Q176.7719,1197.7813 177.3969,1197.7969 L180.0688,1191.1406 L178.9594,1191.1406 Q178.35,1191.1406 178.0844,1190.9063 Q177.8188,1190.6719 177.8188,1190.2813 Q177.8188,1189.9063 178.0844,1189.6719 Q178.35,1189.4375 178.9594,1189.4375 L182.6313,1189.4375 L186.0219,1197.7969 Q186.6156,1197.7969 186.8031,1197.9375 Q187.1938,1198.2031 187.1938,1198.6563 Q187.1938,1199.0313 186.9359,1199.2656 Q186.6781,1199.5 186.0688,1199.5 L183.7719,1199.5 Q183.1625,1199.5 182.8969,1199.2656 Q182.6313,1199.0313 182.6313,1198.6406 Q182.6313,1198.2656 182.8969,1198.0313 Q183.1625,1197.7969 183.7719,1197.7969 L184.1938,1197.7969 L183.7875,1196.7656 Z M183.0688,1195.0625 L181.7094,1191.6875 L180.3344,1195.0625 L183.0688,1195.0625 Z "/><text fill="#000000" font-family="sans-serif" font-size="12" font-style="italic" lengthAdjust="spacingAndGlyphs" textLength="117" x="200.4" y="1199.9102">AbstractTradeModule</text><rect fill="#FFFFFF" height="17.0938" style="stroke: #000000; stroke-width: 1.0; stroke-dasharray: 2.0,2.0;" width="277" x="347" y="1176"/><text fill="#000000" font-family="sans-serif" font-size="12" font-style="italic" lengthAdjust="spacingAndGlyphs" textLength="275" x="348" y="1189.457">Domain extends DomainTemplate, TExchangeApi</text><line style="stroke: #A80036; stroke-width: 1.5;" x1="146" x2="620" y1="1211" y2="1211"/><polygon fill="none" points="156,1218.418,160,1222.418,156,1226.418,152,1222.418" style="stroke: #B38D22; stroke-width: 1.0;"/><text fill="#000000" font-family="sans-serif" font-size="11" lengthAdjust="spacingAndGlyphs" textLength="327" x="165" y="1226.4189">exchangeConnector: IExchangeConnector&lt;Domain, TExchangeApi&gt;</text><line style="stroke: #A80036; stroke-width: 1.5;" x1="146" x2="620" y1="1232.8359" y2="1232.8359"/><ellipse cx="156" cy="1245.2539" fill="#84BE84" rx="3" ry="3" style="stroke: #038048; stroke-width: 1.0;"/><text fill="#000000" font-family="sans-serif" font-size="11" lengthAdjust="spacingAndGlyphs" textLength="450" x="165" y="1248.2549">setExchangeClient(exchangeConnector: IExchangeConnector&lt;Domain, TExchangeApi&gt;): void</text><ellipse cx="156" cy="1259.0898" fill="#84BE84" rx="3" ry="3" style="stroke: #038048; stroke-width: 1.0;"/><text fill="#000000" font-family="sans-serif" font-size="11" font-style="italic" lengthAdjust="spacingAndGlyphs" textLength="331" x="165" y="1262.0908">sell(__0: CreateOrderOptions): Promise&lt;GetOrderType&lt;Domain&gt;&gt;</text><ellipse cx="156" cy="1272.9258" fill="#84BE84" rx="3" ry="3" style="stroke: #038048; stroke-width: 1.0;"/><text fill="#000000" font-family="sans-serif" font-size="11" font-style="italic" lengthAdjust="spacingAndGlyphs" textLength="331" x="165" y="1275.9268">buy(__0: CreateOrderOptions): Promise&lt;GetOrderType&lt;Domain&gt;&gt;</text><ellipse cx="156" cy="1286.7617" fill="#84BE84" rx="3" ry="3" style="stroke: #038048; stroke-width: 1.0;"/><text fill="#000000" font-family="sans-serif" font-size="11" font-style="italic" lengthAdjust="spacingAndGlyphs" textLength="366" x="165" y="1289.7627">marketSell(__0: CreateOrderOptions): Promise&lt;GetOrderType&lt;Domain&gt;&gt;</text><ellipse cx="156" cy="1300.5977" fill="#84BE84" rx="3" ry="3" style="stroke: #038048; stroke-width: 1.0;"/><text fill="#000000" font-family="sans-serif" font-size="11" font-style="italic" lengthAdjust="spacingAndGlyphs" textLength="365" x="165" y="1303.5986">marketBuy(__0: CreateOrderOptions): Promise&lt;GetOrderType&lt;Domain&gt;&gt;</text><ellipse cx="156" cy="1314.4336" fill="#84BE84" rx="3" ry="3" style="stroke: #038048; stroke-width: 1.0;"/><text fill="#000000" font-family="sans-serif" font-size="11" font-style="italic" lengthAdjust="spacingAndGlyphs" textLength="254" x="165" y="1317.4346">sellOrCancel(): Promise&lt;GetOrderType&lt;Domain&gt;&gt;</text><ellipse cx="156" cy="1328.2695" fill="#84BE84" rx="3" ry="3" style="stroke: #038048; stroke-width: 1.0;"/><text fill="#000000" font-family="sans-serif" font-size="11" font-style="italic" lengthAdjust="spacingAndGlyphs" textLength="254" x="165" y="1331.2705">buyOrCancel(): Promise&lt;GetOrderType&lt;Domain&gt;&gt;</text><!--class AbstractExchangeConnector--><rect fill="#FEFECE" filter="url(#fgah9ooevo5kx)" height="186.3594" id="AbstractExchangeConnector" style="stroke: #A80036; stroke-width: 1.5;" width="468" x="370" y="702"/><ellipse cx="385" cy="718" fill="#A9DCDF" rx="11" ry="11" style="stroke: #A80036; stroke-width: 1.0;"/><path d="M387.1875,719.7656 L383.0469,719.7656 L382.625,720.7969 L383.0469,720.7969 Q383.6563,720.7969 383.9219,721.0313 Q384.1875,721.2656 384.1875,721.6563 Q384.1875,722.0313 383.9219,722.2656 Q383.6563,722.5 383.0469,722.5 L380.75,722.5 Q380.1406,722.5 379.8828,722.2656 Q379.625,722.0313 379.625,721.6406 Q379.625,721.2656 379.8984,721.0234 Q380.1719,720.7813 380.7969,720.7969 L383.4688,714.1406 L382.3594,714.1406 Q381.75,714.1406 381.4844,713.9063 Q381.2188,713.6719 381.2188,713.2813 Q381.2188,712.9063 381.4844,712.6719 Q381.75,712.4375 382.3594,712.4375 L386.0313,712.4375 L389.4219,720.7969 Q390.0156,720.7969 390.2031,720.9375 Q390.5938,721.2031 390.5938,721.6563 Q390.5938,722.0313 390.3359,722.2656 Q390.0781,722.5 389.4688,722.5 L387.1719,722.5 Q386.5625,722.5 386.2969,722.2656 Q386.0313,722.0313 386.0313,721.6406 Q386.0313,721.2656 386.2969,721.0313 Q386.5625,720.7969 387.1719,720.7969 L387.5938,720.7969 L387.1875,719.7656 Z M386.4688,718.0625 L385.1094,714.6875 L383.7344,718.0625 L386.4688,718.0625 Z "/><text fill="#000000" font-family="sans-serif" font-size="12" font-style="italic" lengthAdjust="spacingAndGlyphs" textLength="157" x="399" y="722.9102">AbstractExchangeConnector</text><rect fill="#FFFFFF" height="17.0938" style="stroke: #000000; stroke-width: 1.0; stroke-dasharray: 2.0,2.0;" width="277" x="564" y="699"/><text fill="#000000" font-family="sans-serif" font-size="12" font-style="italic" lengthAdjust="spacingAndGlyphs" textLength="275" x="565" y="712.457">Domain extends DomainTemplate, TExchangeApi</text><line style="stroke: #A80036; stroke-width: 1.5;" x1="371" x2="837" y1="734" y2="734"/><rect fill="none" height="6" style="stroke: #C82930; stroke-width: 1.0;" width="6" x="378" y="743.418"/><text fill="#000000" font-family="sans-serif" font-size="11" lengthAdjust="spacingAndGlyphs" textLength="142" x="390" y="749.4189">_isAccountInitialized: boolean</text><ellipse cx="381" cy="760.2539" fill="none" rx="3" ry="3" style="stroke: #038048; stroke-width: 1.0;"/><text fill="#000000" font-family="sans-serif" font-size="11" lengthAdjust="spacingAndGlyphs" textLength="136" x="390" y="763.2549">isAccountInitialized: boolean</text><polygon fill="none" points="381,769.0898,385,773.0898,381,777.0898,377,773.0898" style="stroke: #B38D22; stroke-width: 1.0;"/><text fill="#000000" font-family="sans-serif" font-size="11" lengthAdjust="spacingAndGlyphs" textLength="136" x="390" y="777.0908">isAccountInitialized: boolean</text><ellipse cx="381" cy="787.9258" fill="none" rx="3" ry="3" style="stroke: #038048; stroke-width: 1.0;"/><text fill="#000000" font-family="sans-serif" font-size="11" lengthAdjust="spacingAndGlyphs" textLength="90" x="390" y="790.9268">api: TExchangeApi</text><ellipse cx="381" cy="801.7617" fill="none" rx="3" ry="3" style="stroke: #038048; stroke-width: 1.0;"/><text fill="#000000" font-family="sans-serif" font-size="11" lengthAdjust="spacingAndGlyphs" textLength="176" x="390" y="804.7627">tradeModule: ITradeModule&lt;Domain&gt;</text><ellipse cx="381" cy="815.5977" fill="none" rx="3" ry="3" style="stroke: #038048; stroke-width: 1.0;"/><text fill="#000000" font-family="sans-serif" font-size="11" lengthAdjust="spacingAndGlyphs" textLength="159" x="390" y="818.5986">infoModule: IInfoModule&lt;Domain&gt;</text><ellipse cx="381" cy="829.4336" fill="none" rx="3" ry="3" style="stroke: #038048; stroke-width: 1.0;"/><text fill="#000000" font-family="sans-serif" font-size="11" lengthAdjust="spacingAndGlyphs" textLength="196" x="390" y="832.4346">domainMapper: IDomainMapper&lt;Domain&gt;</text><line style="stroke: #A80036; stroke-width: 1.5;" x1="371" x2="837" y1="838.8516" y2="838.8516"/><ellipse cx="381" cy="851.2695" fill="#84BE84" rx="3" ry="3" style="stroke: #038048; stroke-width: 1.0;"/><text fill="#000000" font-family="sans-serif" font-size="11" font-style="italic" lengthAdjust="spacingAndGlyphs" textLength="171" x="390" y="854.2705">initAccount(): void | Promise&lt;void&gt;</text><ellipse cx="381" cy="865.1055" fill="#84BE84" rx="3" ry="3" style="stroke: #038048; stroke-width: 1.0;"/><text fill="#000000" font-family="sans-serif" font-size="11" font-style="italic" lengthAdjust="spacingAndGlyphs" textLength="301" x="390" y="868.1064">getPortfolio(): Promise&lt;GetSecurityBalanceType&lt;Domain&gt;[]&gt;</text><ellipse cx="381" cy="878.9414" fill="#84BE84" rx="3" ry="3" style="stroke: #038048; stroke-width: 1.0;"/><text fill="#000000" font-family="sans-serif" font-size="11" font-style="italic" lengthAdjust="spacingAndGlyphs" textLength="360" x="390" y="881.9424">getCurrenciesBalance(): Promise&lt;GetCurrencyBalanceType&lt;Domain&gt;[]&gt;</text><!--link IInfoModule to AbstractInfoModule--><path d="M434.86,171.24 C406.51,192.97 375.6,216.65 347.08,238.51 " fill="none" id="IInfoModule-AbstractInfoModule" style="stroke: #A80036; stroke-width: 1.0; stroke-dasharray: 7.0,7.0;"/><polygon fill="none" points="430.09,165.31,450.22,158.7,438.6,176.42,430.09,165.31" style="stroke: #A80036; stroke-width: 1.0;"/><!--link ITradeModule to AbstractTradeModule--><path d="M470.26,1116.5 C457.68,1136.82 444.24,1158.55 431.76,1178.71 " fill="none" id="ITradeModule-AbstractTradeModule" style="stroke: #A80036; stroke-width: 1.0; stroke-dasharray: 7.0,7.0;"/><polygon fill="none" points="464.79,1113.03,481.27,1099.7,476.7,1120.39,464.79,1113.03" style="stroke: #A80036; stroke-width: 1.0;"/><!--link IExchangeConnector to AbstractExchangeConnector--><path d="M415.35,635.38 C440.82,656.8 468.32,679.91 494.23,701.7 " fill="none" id="IExchangeConnector-AbstractExchangeConnector" style="stroke: #A80036; stroke-width: 1.0; stroke-dasharray: 7.0,7.0;"/><polygon fill="none" points="411.17,640.17,400.37,621.94,420.18,629.45,411.17,640.17" style="stroke: #A80036; stroke-width: 1.0;"/><!--link IExchangeConnector to ITradeModule--><path d="M308.17,621.84 C304.51,693.23 307.84,804.49 352,888 C367.44,917.2 391.43,943.02 416.54,964.45 " fill="none" id="IExchangeConnector-ITradeModule" style="stroke: #A80036; stroke-width: 1.0;"/><polygon fill="#A80036" points="419.9,968.13,415.5984,959.2702,416.0777,964.9067,410.4411,965.3859,419.9,968.13" style="stroke: #A80036; stroke-width: 1.0;"/><text fill="#000000" font-family="sans-serif" font-size="13" lengthAdjust="spacingAndGlyphs" textLength="7" x="401.9213" y="957.1611">1</text><!--link IExchangeConnector to IInfoModule--><path d="M429.72,478.27 C457.01,455.95 483.09,428.92 500,398 C539.59,325.61 543.99,229.14 541.35,164.57 " fill="none" id="IExchangeConnector-IInfoModule" style="stroke: #A80036; stroke-width: 1.0;"/><polygon fill="#A80036" points="541.09,159.82,537.5064,168.9937,541.319,164.8148,545.498,168.6274,541.09,159.82" style="stroke: #A80036; stroke-width: 1.0;"/><text fill="#000000" font-family="sans-serif" font-size="13" lengthAdjust="spacingAndGlyphs" textLength="7" x="535.1584" y="180.0289">1</text><!--link AbstractInfoModule to IExchangeConnector--><path d="M268.43,398.48 C275.86,422.49 284.01,448.82 291.38,472.65 " fill="none" id="AbstractInfoModule-IExchangeConnector" style="stroke: #A80036; stroke-width: 1.0;"/><polygon fill="#A80036" points="293.14,477.33,294.2835,467.5477,291.6535,472.5561,286.6452,469.9261,293.14,477.33" style="stroke: #A80036; stroke-width: 1.0;"/><text fill="#000000" font-family="sans-serif" font-size="13" lengthAdjust="spacingAndGlyphs" textLength="7" x="283.3663" y="467.0839">1</text><!--link AbstractTradeModule to IExchangeConnector--><path d="M312.79,1178.78 C300.14,1160.34 288.82,1139.94 282,1119 C226.99,950.22 265.48,738.49 293.3,627.29 " fill="none" id="AbstractTradeModule-IExchangeConnector" style="stroke: #A80036; stroke-width: 1.0;"/><polygon fill="#A80036" points="294.7,622.74,288.6152,630.4843,293.4739,627.5873,296.3709,632.4461,294.7,622.74" style="stroke: #A80036; stroke-width: 1.0;"/><text fill="#000000" font-family="sans-serif" font-size="13" lengthAdjust="spacingAndGlyphs" textLength="7" x="278.3287" y="644.2343">1</text><!--link AbstractExchangeConnector to ITradeModule--><path d="M571.55,888.45 C562.88,913.16 553.66,939.45 545.49,962.71 " fill="none" id="AbstractExchangeConnector-ITradeModule" style="stroke: #A80036; stroke-width: 1.0;"/><polygon fill="#A80036" points="543.55,967.24,550.2889,960.0576,545.1954,962.5185,542.7345,957.425,543.55,967.24" style="stroke: #A80036; stroke-width: 1.0;"/><text fill="#000000" font-family="sans-serif" font-size="13" lengthAdjust="spacingAndGlyphs" textLength="7" x="538.7527" y="957.2839">1</text><!--link AbstractExchangeConnector to IInfoModule--><path d="M594.89,701.6 C580.9,559.82 554.46,291.74 541.92,164.68 " fill="none" id="AbstractExchangeConnector-IInfoModule" style="stroke: #A80036; stroke-width: 1.0;"/><polygon fill="#A80036" points="541.34,159.74,538.2341,169.0863,541.8262,164.7163,546.1962,168.3084,541.34,159.74" style="stroke: #A80036; stroke-width: 1.0;"/><text fill="#000000" font-family="sans-serif" font-size="13" lengthAdjust="spacingAndGlyphs" textLength="7" x="534.6684" y="180.7229">1</text><!--
@startuml
interface IInfoModule<Domain extends DomainTemplate> {
    +getCurrencies(): Promise<GetCurrencyType<Domain>[]>
    +getSecurityLastPrice(ticker: string): Promise<number>
    +getSecurityCurrency(ticker: string): Promise<GetCurrencyType<Domain>>
    +getSecurityName(ticker: string): Promise<string>
    +getSecurity(ticker: string, ignoreCache?: boolean): Promise<any>
    +getSecurityByExchangeId(id: string, ignoreCache?: boolean): Promise<any>
}
interface ITradeModule<Domain extends DomainTemplate> {
    +sell(options: CreateOrderOptions): Promise<GetOrderType<Domain>>
    +buy(options: CreateOrderOptions): Promise<GetOrderType<Domain>>
    +marketSell(options: CreateOrderOptions): Promise<GetOrderType<Domain>>
    +marketBuy(options: CreateOrderOptions): Promise<GetOrderType<Domain>>
    +sellOrCancel(): Promise<GetOrderType<Domain>>
    +buyOrCancel(): Promise<GetOrderType<Domain>>
}
interface IExchangeConnector<Domain extends DomainTemplate, TExchangeApi> {
    +api: TExchangeApi
    +tradeModule: ITradeModule<Domain>
    +infoModule: IInfoModule<Domain>
    +domainMapper: IDomainMapper<Domain>
    +initAccount(): void | Promise<void>
    +getPortfolio(): Promise<GetSecurityBalanceType<Domain>[]>
    +getCurrenciesBalance(): Promise<GetCurrencyBalanceType<Domain>[]>
}
abstract class AbstractInfoModule<Domain extends DomainTemplate, TExchangeApi> implements IInfoModule {
    #exchangeConnector: IExchangeConnector<Domain, TExchangeApi>
    +setExchangeClient(exchangeConnector: IExchangeConnector<Domain, TExchangeApi>): void
    +{abstract} getCurrencies(): Promise<GetCurrencyType<Domain>[]>
    +{abstract} getSecurityLastPrice(ticker: string): Promise<number>
    +{abstract} getSecurityCurrency(ticker: string): Promise<GetCurrencyType<Domain>>
    +{abstract} getSecurityName(ticker: string): Promise<string>
    +{abstract} getSecurity(ticker: string, ignoreCache?: boolean): Promise<any>
    +{abstract} getSecurityByExchangeId(id: string, ignoreCache?: boolean): Promise<any>
}
abstract class AbstractTradeModule<Domain extends DomainTemplate, TExchangeApi> implements ITradeModule {
    #exchangeConnector: IExchangeConnector<Domain, TExchangeApi>
    +setExchangeClient(exchangeConnector: IExchangeConnector<Domain, TExchangeApi>): void
    +{abstract} sell(__0: CreateOrderOptions): Promise<GetOrderType<Domain>>
    +{abstract} buy(__0: CreateOrderOptions): Promise<GetOrderType<Domain>>
    +{abstract} marketSell(__0: CreateOrderOptions): Promise<GetOrderType<Domain>>
    +{abstract} marketBuy(__0: CreateOrderOptions): Promise<GetOrderType<Domain>>
    +{abstract} sellOrCancel(): Promise<GetOrderType<Domain>>
    +{abstract} buyOrCancel(): Promise<GetOrderType<Domain>>
}
abstract class AbstractExchangeConnector<Domain extends DomainTemplate, TExchangeApi> implements IExchangeConnector {
    -_isAccountInitialized: boolean
    +isAccountInitialized: boolean
    #isAccountInitialized: boolean
    +api: TExchangeApi
    +tradeModule: ITradeModule<Domain>
    +infoModule: IInfoModule<Domain>
    +domainMapper: IDomainMapper<Domain>
    +{abstract} initAccount(): void | Promise<void>
    +{abstract} getPortfolio(): Promise<GetSecurityBalanceType<Domain>[]>
    +{abstract} getCurrenciesBalance(): Promise<GetCurrencyBalanceType<Domain>[]>
}
IExchangeConnector - -> "1" ITradeModule
IExchangeConnector - -> "1" IInfoModule
AbstractInfoModule - -> "1" IExchangeConnector
AbstractTradeModule - -> "1" IExchangeConnector
AbstractExchangeConnector - -> "1" ITradeModule
AbstractExchangeConnector - -> "1" IInfoModule
@enduml

PlantUML version 1.2019.06(Fri May 24 21:10:25 GET 2019)
(GPL source distribution)
Java Runtime: Java(TM) SE Runtime Environment
JVM: Java HotSpot(TM) Client VM
Java Version: 1.8.0_361-b09
Operating System: Windows 10
OS Version: 10.0
Default Encoding: Cp1251
Language: ru
Country: RU
--></g></svg>