<?xml version="1.0" encoding="UTF-8" standalone="no"?><svg xmlns="http://www.w3.org/2000/svg" xmlns:xlink="http://www.w3.org/1999/xlink" contentScriptType="application/ecmascript" contentStyleType="text/css" height="1183px" preserveAspectRatio="none" style="width:982px;height:1183px;" version="1.1" viewBox="0 0 982 1183" width="982px" zoomAndPan="magnify"><defs><filter height="300%" id="f1w0yd83hvd5p3" width="300%" x="-1" y="-1"><feGaussianBlur result="blurOut" stdDeviation="2.0"/><feColorMatrix in="blurOut" result="blurOut2" type="matrix" values="0 0 0 0 0 0 0 0 0 0 0 0 0 0 0 0 0 0 .4 0"/><feOffset dx="4.0" dy="4.0" in="blurOut2" result="blurOut3"/><feBlend in="SourceGraphic" in2="blurOut3" mode="normal"/></filter></defs><g><!--class IInfoModule--><rect fill="#FEFECE" filter="url(#f1w0yd83hvd5p3)" height="124.8281" id="IInfoModule" style="stroke: #A80036; stroke-width: 1.5;" width="458" x="407.5" y="8"/><ellipse cx="488.75" cy="24" fill="#B4A7E5" rx="11" ry="11" style="stroke: #A80036; stroke-width: 1.0;"/><path d="M484.6719,19.7656 L484.6719,17.6094 L492.0625,17.6094 L492.0625,19.7656 L489.5938,19.7656 L489.5938,27.8438 L492.0625,27.8438 L492.0625,30 L484.6719,30 L484.6719,27.8438 L487.1406,27.8438 L487.1406,19.7656 L484.6719,19.7656 Z "/><text fill="#000000" font-family="sans-serif" font-size="12" font-style="italic" lengthAdjust="spacingAndGlyphs" textLength="73" x="509.25" y="28.1543">IInfoModule</text><rect fill="#FFFFFF" height="15.9688" style="stroke: #000000; stroke-width: 1.0; stroke-dasharray: 2.0,2.0;" width="212" x="656.5" y="5"/><text fill="#000000" font-family="sans-serif" font-size="12" font-style="italic" lengthAdjust="spacingAndGlyphs" textLength="210" x="657.5" y="17.1387">Domain extends DomainTemplate</text><line style="stroke: #A80036; stroke-width: 1.5;" x1="408.5" x2="864.5" y1="40" y2="40"/><line style="stroke: #A80036; stroke-width: 1.5;" x1="408.5" x2="864.5" y1="48" y2="48"/><ellipse cx="418.5" cy="59.9023" fill="#84BE84" rx="3" ry="3" style="stroke: #038048; stroke-width: 1.0;"/><text fill="#000000" font-family="sans-serif" font-size="11" lengthAdjust="spacingAndGlyphs" textLength="328" x="427.5" y="62.2104">getCurrencies(): Promise&lt;GetCurrencyType&lt;Domain&gt;[]&gt;</text><ellipse cx="418.5" cy="72.707" fill="#84BE84" rx="3" ry="3" style="stroke: #038048; stroke-width: 1.0;"/><text fill="#000000" font-family="sans-serif" font-size="11" lengthAdjust="spacingAndGlyphs" textLength="313" x="427.5" y="75.0151">getSecurityLastPrice(ticker: string): Promise&lt;number&gt;</text><ellipse cx="418.5" cy="85.5117" fill="#84BE84" rx="3" ry="3" style="stroke: #038048; stroke-width: 1.0;"/><text fill="#000000" font-family="sans-serif" font-size="11" lengthAdjust="spacingAndGlyphs" textLength="427" x="427.5" y="87.8198">getSecurityCurrency(ticker: string): Promise&lt;GetCurrencyType&lt;Domain&gt;&gt;</text><ellipse cx="418.5" cy="98.3164" fill="#84BE84" rx="3" ry="3" style="stroke: #038048; stroke-width: 1.0;"/><text fill="#000000" font-family="sans-serif" font-size="11" lengthAdjust="spacingAndGlyphs" textLength="283" x="427.5" y="100.6245">getSecurityName(ticker: string): Promise&lt;string&gt;</text><ellipse cx="418.5" cy="111.1211" fill="#84BE84" rx="3" ry="3" style="stroke: #038048; stroke-width: 1.0;"/><text fill="#000000" font-family="sans-serif" font-size="11" lengthAdjust="spacingAndGlyphs" textLength="375" x="427.5" y="113.4292">getSecurity(ticker: string, ignoreCache?: boolean): Promise&lt;any&gt;</text><ellipse cx="418.5" cy="123.9258" fill="#84BE84" rx="3" ry="3" style="stroke: #038048; stroke-width: 1.0;"/><text fill="#000000" font-family="sans-serif" font-size="11" lengthAdjust="spacingAndGlyphs" textLength="432" x="427.5" y="126.2339">getSecurityByExchangeId(id: string, ignoreCache?: boolean): Promise&lt;any&gt;</text><!--class ITradeModule--><rect fill="#FEFECE" filter="url(#f1w0yd83hvd5p3)" height="124.8281" id="ITradeModule" style="stroke: #A80036; stroke-width: 1.5;" width="474" x="375.5" y="837"/><ellipse cx="458.75" cy="853" fill="#B4A7E5" rx="11" ry="11" style="stroke: #A80036; stroke-width: 1.0;"/><path d="M454.6719,848.7656 L454.6719,846.6094 L462.0625,846.6094 L462.0625,848.7656 L459.5938,848.7656 L459.5938,856.8438 L462.0625,856.8438 L462.0625,859 L454.6719,859 L454.6719,856.8438 L457.1406,856.8438 L457.1406,848.7656 L454.6719,848.7656 Z "/><text fill="#000000" font-family="sans-serif" font-size="12" font-style="italic" lengthAdjust="spacingAndGlyphs" textLength="85" x="479.25" y="857.1543">ITradeModule</text><rect fill="#FFFFFF" height="15.9688" style="stroke: #000000; stroke-width: 1.0; stroke-dasharray: 2.0,2.0;" width="212" x="640.5" y="834"/><text fill="#000000" font-family="sans-serif" font-size="12" font-style="italic" lengthAdjust="spacingAndGlyphs" textLength="210" x="641.5" y="846.1387">Domain extends DomainTemplate</text><line style="stroke: #A80036; stroke-width: 1.5;" x1="376.5" x2="848.5" y1="869" y2="869"/><line style="stroke: #A80036; stroke-width: 1.5;" x1="376.5" x2="848.5" y1="877" y2="877"/><ellipse cx="386.5" cy="888.9023" fill="#84BE84" rx="3" ry="3" style="stroke: #038048; stroke-width: 1.0;"/><text fill="#000000" font-family="sans-serif" font-size="11" lengthAdjust="spacingAndGlyphs" textLength="407" x="395.5" y="891.2104">sell(options: CreateOrderOptions): Promise&lt;GetOrderType&lt;Domain&gt;&gt;</text><ellipse cx="386.5" cy="901.707" fill="#84BE84" rx="3" ry="3" style="stroke: #038048; stroke-width: 1.0;"/><text fill="#000000" font-family="sans-serif" font-size="11" lengthAdjust="spacingAndGlyphs" textLength="407" x="395.5" y="904.0151">buy(options: CreateOrderOptions): Promise&lt;GetOrderType&lt;Domain&gt;&gt;</text><ellipse cx="386.5" cy="914.5117" fill="#84BE84" rx="3" ry="3" style="stroke: #038048; stroke-width: 1.0;"/><text fill="#000000" font-family="sans-serif" font-size="11" lengthAdjust="spacingAndGlyphs" textLength="448" x="395.5" y="916.8198">marketSell(options: CreateOrderOptions): Promise&lt;GetOrderType&lt;Domain&gt;&gt;</text><ellipse cx="386.5" cy="927.3164" fill="#84BE84" rx="3" ry="3" style="stroke: #038048; stroke-width: 1.0;"/><text fill="#000000" font-family="sans-serif" font-size="11" lengthAdjust="spacingAndGlyphs" textLength="448" x="395.5" y="929.6245">marketBuy(options: CreateOrderOptions): Promise&lt;GetOrderType&lt;Domain&gt;&gt;</text><ellipse cx="386.5" cy="940.1211" fill="#84BE84" rx="3" ry="3" style="stroke: #038048; stroke-width: 1.0;"/><text fill="#000000" font-family="sans-serif" font-size="11" lengthAdjust="spacingAndGlyphs" textLength="294" x="395.5" y="942.4292">sellOrCancel(): Promise&lt;GetOrderType&lt;Domain&gt;&gt;</text><ellipse cx="386.5" cy="952.9258" fill="#84BE84" rx="3" ry="3" style="stroke: #038048; stroke-width: 1.0;"/><text fill="#000000" font-family="sans-serif" font-size="11" lengthAdjust="spacingAndGlyphs" textLength="294" x="395.5" y="955.2339">buyOrCancel(): Promise&lt;GetOrderType&lt;Domain&gt;&gt;</text><!--class IExchangeConnector--><rect fill="#FEFECE" filter="url(#f1w0yd83hvd5p3)" height="137.6328" id="IExchangeConnector" style="stroke: #A80036; stroke-width: 1.5;" width="473" x="157" y="403"/><ellipse cx="172" cy="419" fill="#B4A7E5" rx="11" ry="11" style="stroke: #A80036; stroke-width: 1.0;"/><path d="M167.9219,414.7656 L167.9219,412.6094 L175.3125,412.6094 L175.3125,414.7656 L172.8438,414.7656 L172.8438,422.8438 L175.3125,422.8438 L175.3125,425 L167.9219,425 L167.9219,422.8438 L170.3906,422.8438 L170.3906,414.7656 L167.9219,414.7656 Z "/><text fill="#000000" font-family="sans-serif" font-size="12" font-style="italic" lengthAdjust="spacingAndGlyphs" textLength="131" x="186" y="423.1543">IExchangeConnector</text><rect fill="#FFFFFF" height="15.9688" style="stroke: #000000; stroke-width: 1.0; stroke-dasharray: 2.0,2.0;" width="308" x="325" y="400"/><text fill="#000000" font-family="sans-serif" font-size="12" font-style="italic" lengthAdjust="spacingAndGlyphs" textLength="306" x="326" y="412.1387">Domain extends DomainTemplate, TExchangeApi</text><line style="stroke: #A80036; stroke-width: 1.5;" x1="158" x2="629" y1="435" y2="435"/><ellipse cx="168" cy="446.9023" fill="none" rx="3" ry="3" style="stroke: #038048; stroke-width: 1.0;"/><text fill="#000000" font-family="sans-serif" font-size="11" lengthAdjust="spacingAndGlyphs" textLength="103" x="177" y="449.2104">api: TExchangeApi</text><ellipse cx="168" cy="459.707" fill="none" rx="3" ry="3" style="stroke: #038048; stroke-width: 1.0;"/><text fill="#000000" font-family="sans-serif" font-size="11" lengthAdjust="spacingAndGlyphs" textLength="215" x="177" y="462.0151">tradeModule: ITradeModule&lt;Domain&gt;</text><ellipse cx="168" cy="472.5117" fill="none" rx="3" ry="3" style="stroke: #038048; stroke-width: 1.0;"/><text fill="#000000" font-family="sans-serif" font-size="11" lengthAdjust="spacingAndGlyphs" textLength="194" x="177" y="474.8198">infoModule: IInfoModule&lt;Domain&gt;</text><ellipse cx="168" cy="485.3164" fill="none" rx="3" ry="3" style="stroke: #038048; stroke-width: 1.0;"/><text fill="#000000" font-family="sans-serif" font-size="11" lengthAdjust="spacingAndGlyphs" textLength="241" x="177" y="487.6245">domainMapper: IDomainMapper&lt;Domain&gt;</text><line style="stroke: #A80036; stroke-width: 1.5;" x1="158" x2="629" y1="494.2188" y2="494.2188"/><ellipse cx="168" cy="506.1211" fill="#84BE84" rx="3" ry="3" style="stroke: #038048; stroke-width: 1.0;"/><text fill="#000000" font-family="sans-serif" font-size="11" lengthAdjust="spacingAndGlyphs" textLength="200" x="177" y="508.4292">initAccount(): void | Promise&lt;void&gt;</text><ellipse cx="168" cy="518.9258" fill="#84BE84" rx="3" ry="3" style="stroke: #038048; stroke-width: 1.0;"/><text fill="#000000" font-family="sans-serif" font-size="11" lengthAdjust="spacingAndGlyphs" textLength="353" x="177" y="521.2339">getPortfolio(): Promise&lt;GetSecurityBalanceType&lt;Domain&gt;[]&gt;</text><ellipse cx="168" cy="531.7305" fill="#84BE84" rx="3" ry="3" style="stroke: #038048; stroke-width: 1.0;"/><text fill="#000000" font-family="sans-serif" font-size="11" lengthAdjust="spacingAndGlyphs" textLength="418" x="177" y="534.0386">getCurrenciesBalance(): Promise&lt;GetCurrencyBalanceType&lt;Domain&gt;[]&gt;</text><!--class AbstractInfoModule--><rect fill="#FEFECE" filter="url(#f1w0yd83hvd5p3)" height="150.4375" id="AbstractInfoModule" style="stroke: #A80036; stroke-width: 1.5;" width="577" x="6" y="193"/><ellipse cx="74.75" cy="209" fill="#A9DCDF" rx="11" ry="11" style="stroke: #A80036; stroke-width: 1.0;"/><path d="M74.8594,204.3438 L73.7031,209.4219 L76.0313,209.4219 L74.8594,204.3438 Z M73.375,202.1094 L76.3594,202.1094 L79.7188,214.5 L77.2656,214.5 L76.5,211.4375 L73.2188,211.4375 L72.4688,214.5 L70.0313,214.5 L73.375,202.1094 Z "/><text fill="#000000" font-family="sans-serif" font-size="12" font-style="italic" lengthAdjust="spacingAndGlyphs" textLength="121" x="95.25" y="213.1543">AbstractInfoModule</text><rect fill="#FFFFFF" height="15.9688" style="stroke: #000000; stroke-width: 1.0; stroke-dasharray: 2.0,2.0;" width="308" x="278" y="190"/><text fill="#000000" font-family="sans-serif" font-size="12" font-style="italic" lengthAdjust="spacingAndGlyphs" textLength="306" x="279" y="202.1387">Domain extends DomainTemplate, TExchangeApi</text><line style="stroke: #A80036; stroke-width: 1.5;" x1="7" x2="582" y1="225" y2="225"/><polygon fill="none" points="17,231.9023,21,235.9023,17,239.9023,13,235.9023" style="stroke: #B38D22; stroke-width: 1.0;"/><text fill="#000000" font-family="sans-serif" font-size="11" lengthAdjust="spacingAndGlyphs" textLength="382" x="26" y="239.2104">exchangeConnector: IExchangeConnector&lt;Domain, TExchangeApi&gt;</text><line style="stroke: #A80036; stroke-width: 1.5;" x1="7" x2="582" y1="245.8047" y2="245.8047"/><ellipse cx="17" cy="257.707" fill="#84BE84" rx="3" ry="3" style="stroke: #038048; stroke-width: 1.0;"/><text fill="#000000" font-family="sans-serif" font-size="11" lengthAdjust="spacingAndGlyphs" textLength="551" x="26" y="260.0151">setExchangeConnector(exchangeConnector: IExchangeConnector&lt;Domain, TExchangeApi&gt;): void</text><ellipse cx="17" cy="270.5117" fill="#84BE84" rx="3" ry="3" style="stroke: #038048; stroke-width: 1.0;"/><text fill="#000000" font-family="sans-serif" font-size="11" font-style="italic" lengthAdjust="spacingAndGlyphs" textLength="328" x="26" y="272.8198">getCurrencies(): Promise&lt;GetCurrencyType&lt;Domain&gt;[]&gt;</text><ellipse cx="17" cy="283.3164" fill="#84BE84" rx="3" ry="3" style="stroke: #038048; stroke-width: 1.0;"/><text fill="#000000" font-family="sans-serif" font-size="11" font-style="italic" lengthAdjust="spacingAndGlyphs" textLength="310" x="26" y="285.6245">getSecurityLastPrice(ticker: string): Promise&lt;number&gt;</text><ellipse cx="17" cy="296.1211" fill="#84BE84" rx="3" ry="3" style="stroke: #038048; stroke-width: 1.0;"/><text fill="#000000" font-family="sans-serif" font-size="11" font-style="italic" lengthAdjust="spacingAndGlyphs" textLength="428" x="26" y="298.4292">getSecurityCurrency(ticker: string): Promise&lt;GetCurrencyType&lt;Domain&gt;&gt;</text><ellipse cx="17" cy="308.9258" fill="#84BE84" rx="3" ry="3" style="stroke: #038048; stroke-width: 1.0;"/><text fill="#000000" font-family="sans-serif" font-size="11" font-style="italic" lengthAdjust="spacingAndGlyphs" textLength="280" x="26" y="311.2339">getSecurityName(ticker: string): Promise&lt;string&gt;</text><ellipse cx="17" cy="321.7305" fill="#84BE84" rx="3" ry="3" style="stroke: #038048; stroke-width: 1.0;"/><text fill="#000000" font-family="sans-serif" font-size="11" font-style="italic" lengthAdjust="spacingAndGlyphs" textLength="374" x="26" y="324.0386">getSecurity(ticker: string, ignoreCache?: boolean): Promise&lt;any&gt;</text><ellipse cx="17" cy="334.5352" fill="#84BE84" rx="3" ry="3" style="stroke: #038048; stroke-width: 1.0;"/><text fill="#000000" font-family="sans-serif" font-size="11" font-style="italic" lengthAdjust="spacingAndGlyphs" textLength="433" x="26" y="336.8433">getSecurityByExchangeId(id: string, ignoreCache?: boolean): Promise&lt;any&gt;</text><!--class AbstractTradeModule--><rect fill="#FEFECE" filter="url(#f1w0yd83hvd5p3)" height="150.4375" id="AbstractTradeModule" style="stroke: #A80036; stroke-width: 1.5;" width="577" x="179" y="1022"/><ellipse cx="241.75" cy="1038" fill="#A9DCDF" rx="11" ry="11" style="stroke: #A80036; stroke-width: 1.0;"/><path d="M241.8594,1033.3438 L240.7031,1038.4219 L243.0313,1038.4219 L241.8594,1033.3438 Z M240.375,1031.1094 L243.3594,1031.1094 L246.7188,1043.5 L244.2656,1043.5 L243.5,1040.4375 L240.2188,1040.4375 L239.4688,1043.5 L237.0313,1043.5 L240.375,1031.1094 Z "/><text fill="#000000" font-family="sans-serif" font-size="12" font-style="italic" lengthAdjust="spacingAndGlyphs" textLength="133" x="262.25" y="1042.1543">AbstractTradeModule</text><rect fill="#FFFFFF" height="15.9688" style="stroke: #000000; stroke-width: 1.0; stroke-dasharray: 2.0,2.0;" width="308" x="451" y="1019"/><text fill="#000000" font-family="sans-serif" font-size="12" font-style="italic" lengthAdjust="spacingAndGlyphs" textLength="306" x="452" y="1031.1387">Domain extends DomainTemplate, TExchangeApi</text><line style="stroke: #A80036; stroke-width: 1.5;" x1="180" x2="755" y1="1054" y2="1054"/><polygon fill="none" points="190,1060.9023,194,1064.9023,190,1068.9023,186,1064.9023" style="stroke: #B38D22; stroke-width: 1.0;"/><text fill="#000000" font-family="sans-serif" font-size="11" lengthAdjust="spacingAndGlyphs" textLength="382" x="199" y="1068.2104">exchangeConnector: IExchangeConnector&lt;Domain, TExchangeApi&gt;</text><line style="stroke: #A80036; stroke-width: 1.5;" x1="180" x2="755" y1="1074.8047" y2="1074.8047"/><ellipse cx="190" cy="1086.707" fill="#84BE84" rx="3" ry="3" style="stroke: #038048; stroke-width: 1.0;"/><text fill="#000000" font-family="sans-serif" font-size="11" lengthAdjust="spacingAndGlyphs" textLength="551" x="199" y="1089.0151">setExchangeConnector(exchangeConnector: IExchangeConnector&lt;Domain, TExchangeApi&gt;): void</text><ellipse cx="190" cy="1099.5117" fill="#84BE84" rx="3" ry="3" style="stroke: #038048; stroke-width: 1.0;"/><text fill="#000000" font-family="sans-serif" font-size="11" font-style="italic" lengthAdjust="spacingAndGlyphs" textLength="382" x="199" y="1101.8198">sell(__0: CreateOrderOptions): Promise&lt;GetOrderType&lt;Domain&gt;&gt;</text><ellipse cx="190" cy="1112.3164" fill="#84BE84" rx="3" ry="3" style="stroke: #038048; stroke-width: 1.0;"/><text fill="#000000" font-family="sans-serif" font-size="11" font-style="italic" lengthAdjust="spacingAndGlyphs" textLength="384" x="199" y="1114.6245">buy(__0: CreateOrderOptions): Promise&lt;GetOrderType&lt;Domain&gt;&gt;</text><ellipse cx="190" cy="1125.1211" fill="#84BE84" rx="3" ry="3" style="stroke: #038048; stroke-width: 1.0;"/><text fill="#000000" font-family="sans-serif" font-size="11" font-style="italic" lengthAdjust="spacingAndGlyphs" textLength="423" x="199" y="1127.4292">marketSell(__0: CreateOrderOptions): Promise&lt;GetOrderType&lt;Domain&gt;&gt;</text><ellipse cx="190" cy="1137.9258" fill="#84BE84" rx="3" ry="3" style="stroke: #038048; stroke-width: 1.0;"/><text fill="#000000" font-family="sans-serif" font-size="11" font-style="italic" lengthAdjust="spacingAndGlyphs" textLength="425" x="199" y="1140.2339">marketBuy(__0: CreateOrderOptions): Promise&lt;GetOrderType&lt;Domain&gt;&gt;</text><ellipse cx="190" cy="1150.7305" fill="#84BE84" rx="3" ry="3" style="stroke: #038048; stroke-width: 1.0;"/><text fill="#000000" font-family="sans-serif" font-size="11" font-style="italic" lengthAdjust="spacingAndGlyphs" textLength="293" x="199" y="1153.0386">sellOrCancel(): Promise&lt;GetOrderType&lt;Domain&gt;&gt;</text><ellipse cx="190" cy="1163.5352" fill="#84BE84" rx="3" ry="3" style="stroke: #038048; stroke-width: 1.0;"/><text fill="#000000" font-family="sans-serif" font-size="11" font-style="italic" lengthAdjust="spacingAndGlyphs" textLength="295" x="199" y="1165.8433">buyOrCancel(): Promise&lt;GetOrderType&lt;Domain&gt;&gt;</text><!--class AbstractExchangeConnector--><rect fill="#FEFECE" filter="url(#f1w0yd83hvd5p3)" height="176.0469" id="AbstractExchangeConnector" style="stroke: #A80036; stroke-width: 1.5;" width="521" x="447" y="601"/><ellipse cx="462" cy="617" fill="#A9DCDF" rx="11" ry="11" style="stroke: #A80036; stroke-width: 1.0;"/><path d="M462.1094,612.3438 L460.9531,617.4219 L463.2813,617.4219 L462.1094,612.3438 Z M460.625,610.1094 L463.6094,610.1094 L466.9688,622.5 L464.5156,622.5 L463.75,619.4375 L460.4688,619.4375 L459.7188,622.5 L457.2813,622.5 L460.625,610.1094 Z "/><text fill="#000000" font-family="sans-serif" font-size="12" font-style="italic" lengthAdjust="spacingAndGlyphs" textLength="179" x="476" y="621.1543">AbstractExchangeConnector</text><rect fill="#FFFFFF" height="15.9688" style="stroke: #000000; stroke-width: 1.0; stroke-dasharray: 2.0,2.0;" width="308" x="663" y="598"/><text fill="#000000" font-family="sans-serif" font-size="12" font-style="italic" lengthAdjust="spacingAndGlyphs" textLength="306" x="664" y="610.1387">Domain extends DomainTemplate, TExchangeApi</text><line style="stroke: #A80036; stroke-width: 1.5;" x1="448" x2="967" y1="633" y2="633"/><ellipse cx="458" cy="644.9023" fill="none" rx="3" ry="3" style="stroke: #038048; stroke-width: 1.0;"/><text fill="#000000" font-family="sans-serif" font-size="11" lengthAdjust="spacingAndGlyphs" textLength="103" x="467" y="647.2104">api: TExchangeApi</text><ellipse cx="458" cy="657.707" fill="none" rx="3" ry="3" style="stroke: #038048; stroke-width: 1.0;"/><text fill="#000000" font-family="sans-serif" font-size="11" lengthAdjust="spacingAndGlyphs" textLength="215" x="467" y="660.0151">tradeModule: ITradeModule&lt;Domain&gt;</text><ellipse cx="458" cy="670.5117" fill="none" rx="3" ry="3" style="stroke: #038048; stroke-width: 1.0;"/><text fill="#000000" font-family="sans-serif" font-size="11" lengthAdjust="spacingAndGlyphs" textLength="194" x="467" y="672.8198">infoModule: IInfoModule&lt;Domain&gt;</text><ellipse cx="458" cy="683.3164" fill="none" rx="3" ry="3" style="stroke: #038048; stroke-width: 1.0;"/><text fill="#000000" font-family="sans-serif" font-size="11" lengthAdjust="spacingAndGlyphs" textLength="241" x="467" y="685.6245">domainMapper: IDomainMapper&lt;Domain&gt;</text><ellipse cx="458" cy="696.1211" fill="none" rx="3" ry="3" style="stroke: #038048; stroke-width: 1.0;"/><text fill="#000000" font-family="sans-serif" font-size="11" lengthAdjust="spacingAndGlyphs" textLength="159" x="467" y="698.4292">isAccountInitialized: boolean</text><polygon fill="none" points="458,703.9258,462,707.9258,458,711.9258,454,707.9258" style="stroke: #B38D22; stroke-width: 1.0;"/><text fill="#000000" font-family="sans-serif" font-size="11" lengthAdjust="spacingAndGlyphs" textLength="159" x="467" y="711.2339">isAccountInitialized: boolean</text><rect fill="none" height="6" style="stroke: #C82930; stroke-width: 1.0;" width="6" x="455" y="718.7305"/><text fill="#000000" font-family="sans-serif" font-size="11" lengthAdjust="spacingAndGlyphs" textLength="165" x="467" y="724.0386">_isAccountInitialized: boolean</text><line style="stroke: #A80036; stroke-width: 1.5;" x1="448" x2="967" y1="730.6328" y2="730.6328"/><ellipse cx="458" cy="742.5352" fill="#84BE84" rx="3" ry="3" style="stroke: #038048; stroke-width: 1.0;"/><text fill="#000000" font-family="sans-serif" font-size="11" font-style="italic" lengthAdjust="spacingAndGlyphs" textLength="202" x="467" y="744.8433">initAccount(): void | Promise&lt;void&gt;</text><ellipse cx="458" cy="755.3398" fill="#84BE84" rx="3" ry="3" style="stroke: #038048; stroke-width: 1.0;"/><text fill="#000000" font-family="sans-serif" font-size="11" font-style="italic" lengthAdjust="spacingAndGlyphs" textLength="353" x="467" y="757.6479">getPortfolio(): Promise&lt;GetSecurityBalanceType&lt;Domain&gt;[]&gt;</text><ellipse cx="458" cy="768.1445" fill="#84BE84" rx="3" ry="3" style="stroke: #038048; stroke-width: 1.0;"/><text fill="#000000" font-family="sans-serif" font-size="11" font-style="italic" lengthAdjust="spacingAndGlyphs" textLength="418" x="467" y="770.4526">getCurrenciesBalance(): Promise&lt;GetCurrencyBalanceType&lt;Domain&gt;[]&gt;</text><!--link IInfoModule to AbstractInfoModule--><path d="M511.35,143.04 C482.96,159.27 452.75,176.54 424.18,192.87 " fill="none" id="IInfoModule-AbstractInfoModule" style="stroke: #A80036; stroke-width: 1.0; stroke-dasharray: 7.0,7.0;"/><polygon fill="none" points="507.92,136.94,528.76,133.09,514.87,149.09,507.92,136.94" style="stroke: #A80036; stroke-width: 1.0;"/><!--link ITradeModule to AbstractTradeModule--><path d="M554.67,978.47 C544.1,992.72 533.1,1007.55 522.61,1021.69 " fill="none" id="ITradeModule-AbstractTradeModule" style="stroke: #A80036; stroke-width: 1.0; stroke-dasharray: 7.0,7.0;"/><polygon fill="none" points="549.28,973.98,566.82,962.09,560.53,982.32,549.28,973.98" style="stroke: #A80036; stroke-width: 1.0;"/><!--link IExchangeConnector to AbstractExchangeConnector--><path d="M509.4,552.36 C532.49,568.17 556.85,584.85 580.29,600.9 " fill="none" id="IExchangeConnector-AbstractExchangeConnector" style="stroke: #A80036; stroke-width: 1.0; stroke-dasharray: 7.0,7.0;"/><polygon fill="none" points="505.4,558.1,492.85,541.03,513.31,546.55,505.4,558.1" style="stroke: #A80036; stroke-width: 1.0;"/><!--link IExchangeConnector to ITradeModule--><path d="M385.95,541.09 C382.11,606.43 385.52,705.47 429.5,777 C442.98,798.93 462.08,817.74 482.89,833.55 " fill="none" id="IExchangeConnector-ITradeModule" style="stroke: #A80036; stroke-width: 1.0;"/><polygon fill="#A80036" points="487.07,836.68,482.2357,828.0993,483.058,833.696,477.4613,834.5184,487.07,836.68" style="stroke: #A80036; stroke-width: 1.0;"/><text fill="#000000" font-family="sans-serif" font-size="13" lengthAdjust="spacingAndGlyphs" textLength="8" x="464.9136" y="826.0723">1</text><!--link IExchangeConnector to IInfoModule--><path d="M541.28,402.82 C564.25,386.26 585.35,366.41 600.5,343 C640,281.97 645.16,197 642.91,138.46 " fill="none" id="IExchangeConnector-IInfoModule" style="stroke: #A80036; stroke-width: 1.0;"/><polygon fill="#A80036" points="642.68,133.23,639.069,142.393,642.8941,138.2254,647.0617,142.0505,642.68,133.23" style="stroke: #A80036; stroke-width: 1.0;"/><text fill="#000000" font-family="sans-serif" font-size="13" lengthAdjust="spacingAndGlyphs" textLength="8" x="634.9184" y="152.995">1</text><!--link AbstractInfoModule to IExchangeConnector--><path d="M330.8,343.07 C339.65,361.13 349.11,380.43 357.93,398.42 " fill="none" id="AbstractInfoModule-IExchangeConnector" style="stroke: #A80036; stroke-width: 1.0;"/><polygon fill="#A80036" points="360.16,402.97,359.7883,393.1282,357.9583,398.4808,352.6056,396.6509,360.16,402.97" style="stroke: #A80036; stroke-width: 1.0;"/><text fill="#000000" font-family="sans-serif" font-size="13" lengthAdjust="spacingAndGlyphs" textLength="8" x="348.3093" y="392.1705">1</text><!--link AbstractTradeModule to IExchangeConnector--><path d="M391.7,1021.64 C377.7,1003.56 365.11,983.25 357.5,962 C307.22,821.51 342.68,644.14 370.03,546.27 " fill="none" id="AbstractTradeModule-IExchangeConnector" style="stroke: #A80036; stroke-width: 1.0;"/><polygon fill="#A80036" points="371.41,541.39,365.1122,548.9622,370.0496,546.2014,372.8105,551.1388,371.41,541.39" style="stroke: #A80036; stroke-width: 1.0;"/><text fill="#000000" font-family="sans-serif" font-size="13" lengthAdjust="spacingAndGlyphs" textLength="8" x="360.9233" y="560.8093">1</text><!--link AbstractExchangeConnector to ITradeModule--><path d="M667.76,777.21 C659.4,795.57 650.7,814.66 642.75,832.11 " fill="none" id="AbstractExchangeConnector-ITradeModule" style="stroke: #A80036; stroke-width: 1.0;"/><polygon fill="#A80036" points="640.53,836.98,647.8957,830.4419,642.599,832.4282,640.6128,827.1315,640.53,836.98" style="stroke: #A80036; stroke-width: 1.0;"/><text fill="#000000" font-family="sans-serif" font-size="13" lengthAdjust="spacingAndGlyphs" textLength="8" x="635.3085" y="825.9684">1</text><!--link AbstractExchangeConnector to IInfoModule--><path d="M697.47,600.94 C683.15,476.53 657.13,250.59 644.21,138.41 " fill="none" id="AbstractExchangeConnector-IInfoModule" style="stroke: #A80036; stroke-width: 1.0;"/><polygon fill="#A80036" points="643.6,133.15,640.6539,142.5479,644.171,138.1173,648.6016,141.6344,643.6,133.15" style="stroke: #A80036; stroke-width: 1.0;"/><text fill="#000000" font-family="sans-serif" font-size="13" lengthAdjust="spacingAndGlyphs" textLength="8" x="644.8141" y="152.9062">1</text><!--
@startuml
interface IInfoModule<Domain extends DomainTemplate> {
    +getCurrencies(): Promise<GetCurrencyType<Domain>[]>
    +getSecurityLastPrice(ticker: string): Promise<number>
    +getSecurityCurrency(ticker: string): Promise<GetCurrencyType<Domain>>
    +getSecurityName(ticker: string): Promise<string>
    +getSecurity(ticker: string, ignoreCache?: boolean): Promise<any>
    +getSecurityByExchangeId(id: string, ignoreCache?: boolean): Promise<any>
}
interface ITradeModule<Domain extends DomainTemplate> {
    +sell(options: CreateOrderOptions): Promise<GetOrderType<Domain>>
    +buy(options: CreateOrderOptions): Promise<GetOrderType<Domain>>
    +marketSell(options: CreateOrderOptions): Promise<GetOrderType<Domain>>
    +marketBuy(options: CreateOrderOptions): Promise<GetOrderType<Domain>>
    +sellOrCancel(): Promise<GetOrderType<Domain>>
    +buyOrCancel(): Promise<GetOrderType<Domain>>
}
interface IExchangeConnector<Domain extends DomainTemplate, TExchangeApi> {
    +api: TExchangeApi
    +tradeModule: ITradeModule<Domain>
    +infoModule: IInfoModule<Domain>
    +domainMapper: IDomainMapper<Domain>
    +initAccount(): void | Promise<void>
    +getPortfolio(): Promise<GetSecurityBalanceType<Domain>[]>
    +getCurrenciesBalance(): Promise<GetCurrencyBalanceType<Domain>[]>
}
abstract class AbstractInfoModule<Domain extends DomainTemplate, TExchangeApi> implements IInfoModule {
    #exchangeConnector: IExchangeConnector<Domain, TExchangeApi>
    +setExchangeConnector(exchangeConnector: IExchangeConnector<Domain, TExchangeApi>): void
    +{abstract} getCurrencies(): Promise<GetCurrencyType<Domain>[]>
    +{abstract} getSecurityLastPrice(ticker: string): Promise<number>
    +{abstract} getSecurityCurrency(ticker: string): Promise<GetCurrencyType<Domain>>
    +{abstract} getSecurityName(ticker: string): Promise<string>
    +{abstract} getSecurity(ticker: string, ignoreCache?: boolean): Promise<any>
    +{abstract} getSecurityByExchangeId(id: string, ignoreCache?: boolean): Promise<any>
}
abstract class AbstractTradeModule<Domain extends DomainTemplate, TExchangeApi> implements ITradeModule {
    #exchangeConnector: IExchangeConnector<Domain, TExchangeApi>
    +setExchangeConnector(exchangeConnector: IExchangeConnector<Domain, TExchangeApi>): void
    +{abstract} sell(__0: CreateOrderOptions): Promise<GetOrderType<Domain>>
    +{abstract} buy(__0: CreateOrderOptions): Promise<GetOrderType<Domain>>
    +{abstract} marketSell(__0: CreateOrderOptions): Promise<GetOrderType<Domain>>
    +{abstract} marketBuy(__0: CreateOrderOptions): Promise<GetOrderType<Domain>>
    +{abstract} sellOrCancel(): Promise<GetOrderType<Domain>>
    +{abstract} buyOrCancel(): Promise<GetOrderType<Domain>>
}
abstract class AbstractExchangeConnector<Domain extends DomainTemplate, TExchangeApi> implements IExchangeConnector {
    +api: TExchangeApi
    +tradeModule: ITradeModule<Domain>
    +infoModule: IInfoModule<Domain>
    +domainMapper: IDomainMapper<Domain>
    +{abstract} initAccount(): void | Promise<void>
    +{abstract} getPortfolio(): Promise<GetSecurityBalanceType<Domain>[]>
    +{abstract} getCurrenciesBalance(): Promise<GetCurrencyBalanceType<Domain>[]>
    +isAccountInitialized: boolean
    #isAccountInitialized: boolean
    -_isAccountInitialized: boolean
}
IExchangeConnector - -> "1" ITradeModule
IExchangeConnector - -> "1" IInfoModule
AbstractInfoModule - -> "1" IExchangeConnector
AbstractTradeModule - -> "1" IExchangeConnector
AbstractExchangeConnector - -> "1" ITradeModule
AbstractExchangeConnector - -> "1" IInfoModule
@enduml

PlantUML version 1.2019.06(Fri May 24 17:10:25 UTC 2019)
(GPL source distribution)
Java Runtime: OpenJDK Runtime Environment
JVM: OpenJDK 64-Bit Server VM
Java Version: 11.0.19+7
Operating System: Linux
OS Version: 5.15.0-1038-azure
Default Encoding: UTF-8
Language: en
Country: null
--></g></svg>