<?xml version="1.0" encoding="UTF-8" standalone="no"?><svg xmlns="http://www.w3.org/2000/svg" xmlns:xlink="http://www.w3.org/1999/xlink" contentScriptType="application/ecmascript" contentStyleType="text/css" height="1348px" preserveAspectRatio="none" style="width:876px;height:1348px;" version="1.1" viewBox="0 0 876 1348" width="876px" zoomAndPan="magnify"><defs><filter height="300%" id="f1j28fi7b9ly43" width="300%" x="-1" y="-1"><feGaussianBlur result="blurOut" stdDeviation="2.0"/><feColorMatrix in="blurOut" result="blurOut2" type="matrix" values="0 0 0 0 0 0 0 0 0 0 0 0 0 0 0 0 0 0 .4 0"/><feOffset dx="4.0" dy="4.0" in="blurOut2" result="blurOut3"/><feBlend in="SourceGraphic" in2="blurOut3" mode="normal"/></filter></defs><g><!--class IInfoModule--><rect fill="#FEFECE" filter="url(#f1j28fi7b9ly43)" height="131.0156" id="IInfoModule" style="stroke: #A80036; stroke-width: 1.5;" width="390" x="364" y="28"/><ellipse cx="425.75" cy="44" fill="#B4A7E5" rx="11" ry="11" style="stroke: #A80036; stroke-width: 1.0;"/><path d="M426.7031,40.6406 L426.7031,47.2969 L428.4219,47.2969 Q429.0313,47.2969 429.2969,47.5313 Q429.5625,47.7656 429.5625,48.1563 Q429.5625,48.5313 429.2969,48.7656 Q429.0313,49 428.4219,49 L423.2813,49 Q422.6719,49 422.4063,48.7656 Q422.1406,48.5313 422.1406,48.1406 Q422.1406,47.7656 422.4063,47.5313 Q422.6719,47.2969 423.2813,47.2969 L425,47.2969 L425,40.6406 L423.2813,40.6406 Q422.6719,40.6406 422.4063,40.4063 Q422.1406,40.1719 422.1406,39.7813 Q422.1406,39.4063 422.4063,39.1719 Q422.6719,38.9375 423.2813,38.9375 L428.4219,38.9375 Q429.0313,38.9375 429.2969,39.1719 Q429.5625,39.4063 429.5625,39.7813 Q429.5625,40.1719 429.2969,40.4063 Q429.0313,40.6406 428.4219,40.6406 L426.7031,40.6406 Z "/><text fill="#000000" font-family="sans-serif" font-size="12" font-style="italic" lengthAdjust="spacingAndGlyphs" textLength="65" x="446.25" y="48.9102">IInfoModule</text><rect fill="#FFFFFF" height="17.0938" style="stroke: #000000; stroke-width: 1.0; stroke-dasharray: 2.0,2.0;" width="191" x="566" y="25"/><text fill="#000000" font-family="sans-serif" font-size="12" font-style="italic" lengthAdjust="spacingAndGlyphs" textLength="189" x="567" y="38.457">Domain extends DomainTemplate</text><line style="stroke: #A80036; stroke-width: 1.5;" x1="365" x2="753" y1="60" y2="60"/><line style="stroke: #A80036; stroke-width: 1.5;" x1="365" x2="753" y1="68" y2="68"/><ellipse cx="375" cy="80.418" fill="#84BE84" rx="3" ry="3" style="stroke: #038048; stroke-width: 1.0;"/><text fill="#000000" font-family="sans-serif" font-size="11" lengthAdjust="spacingAndGlyphs" textLength="271" x="384" y="83.4189">getCurrencies(): Promise&lt;GetCurrencyType&lt;Domain&gt;[]&gt;</text><ellipse cx="375" cy="94.2539" fill="#84BE84" rx="3" ry="3" style="stroke: #038048; stroke-width: 1.0;"/><text fill="#000000" font-family="sans-serif" font-size="11" lengthAdjust="spacingAndGlyphs" textLength="259" x="384" y="97.2549">getSecurityLastPrice(ticker: string): Promise&lt;number&gt;</text><ellipse cx="375" cy="108.0898" fill="#84BE84" rx="3" ry="3" style="stroke: #038048; stroke-width: 1.0;"/><text fill="#000000" font-family="sans-serif" font-size="11" lengthAdjust="spacingAndGlyphs" textLength="356" x="384" y="111.0908">getSecurityCurrency(ticker: string): Promise&lt;GetCurrencyType&lt;Domain&gt;&gt;</text><ellipse cx="375" cy="121.9258" fill="#84BE84" rx="3" ry="3" style="stroke: #038048; stroke-width: 1.0;"/><text fill="#000000" font-family="sans-serif" font-size="11" lengthAdjust="spacingAndGlyphs" textLength="232" x="384" y="124.9268">getSecurityName(ticker: string): Promise&lt;string&gt;</text><ellipse cx="375" cy="135.7617" fill="#84BE84" rx="3" ry="3" style="stroke: #038048; stroke-width: 1.0;"/><text fill="#000000" font-family="sans-serif" font-size="11" lengthAdjust="spacingAndGlyphs" textLength="313" x="384" y="138.7627">getSecurity(ticker: string, ignoreCache?: boolean): Promise&lt;any&gt;</text><ellipse cx="375" cy="149.5977" fill="#84BE84" rx="3" ry="3" style="stroke: #038048; stroke-width: 1.0;"/><text fill="#000000" font-family="sans-serif" font-size="11" lengthAdjust="spacingAndGlyphs" textLength="364" x="384" y="152.5986">getSecurityByExchangeId(id: string, ignoreCache?: boolean): Promise&lt;any&gt;</text><!--class ITradeModule--><rect fill="#FEFECE" filter="url(#f1j28fi7b9ly43)" height="131.0156" id="ITradeModule" style="stroke: #A80036; stroke-width: 1.5;" width="395" x="347.5" y="968"/><ellipse cx="406.25" cy="984" fill="#B4A7E5" rx="11" ry="11" style="stroke: #A80036; stroke-width: 1.0;"/><path d="M407.2031,980.6406 L407.2031,987.2969 L408.9219,987.2969 Q409.5313,987.2969 409.7969,987.5313 Q410.0625,987.7656 410.0625,988.1563 Q410.0625,988.5313 409.7969,988.7656 Q409.5313,989 408.9219,989 L403.7813,989 Q403.1719,989 402.9063,988.7656 Q402.6406,988.5313 402.6406,988.1406 Q402.6406,987.7656 402.9063,987.5313 Q403.1719,987.2969 403.7813,987.2969 L405.5,987.2969 L405.5,980.6406 L403.7813,980.6406 Q403.1719,980.6406 402.9063,980.4063 Q402.6406,980.1719 402.6406,979.7813 Q402.6406,979.4063 402.9063,979.1719 Q403.1719,978.9375 403.7813,978.9375 L408.9219,978.9375 Q409.5313,978.9375 409.7969,979.1719 Q410.0625,979.4063 410.0625,979.7813 Q410.0625,980.1719 409.7969,980.4063 Q409.5313,980.6406 408.9219,980.6406 L407.2031,980.6406 Z "/><text fill="#000000" font-family="sans-serif" font-size="12" font-style="italic" lengthAdjust="spacingAndGlyphs" textLength="76" x="426.75" y="988.9102">ITradeModule</text><rect fill="#FFFFFF" height="17.0938" style="stroke: #000000; stroke-width: 1.0; stroke-dasharray: 2.0,2.0;" width="191" x="554.5" y="965"/><text fill="#000000" font-family="sans-serif" font-size="12" font-style="italic" lengthAdjust="spacingAndGlyphs" textLength="189" x="555.5" y="978.457">Domain extends DomainTemplate</text><line style="stroke: #A80036; stroke-width: 1.5;" x1="348.5" x2="741.5" y1="1000" y2="1000"/><line style="stroke: #A80036; stroke-width: 1.5;" x1="348.5" x2="741.5" y1="1008" y2="1008"/><ellipse cx="358.5" cy="1020.418" fill="#84BE84" rx="3" ry="3" style="stroke: #038048; stroke-width: 1.0;"/><text fill="#000000" font-family="sans-serif" font-size="11" lengthAdjust="spacingAndGlyphs" textLength="334" x="367.5" y="1023.4189">sell(options: CreateOrderOptions): Promise&lt;GetOrderType&lt;Domain&gt;&gt;</text><ellipse cx="358.5" cy="1034.2539" fill="#84BE84" rx="3" ry="3" style="stroke: #038048; stroke-width: 1.0;"/><text fill="#000000" font-family="sans-serif" font-size="11" lengthAdjust="spacingAndGlyphs" textLength="336" x="367.5" y="1037.2549">buy(options: CreateOrderOptions): Promise&lt;GetOrderType&lt;Domain&gt;&gt;</text><ellipse cx="358.5" cy="1048.0898" fill="#84BE84" rx="3" ry="3" style="stroke: #038048; stroke-width: 1.0;"/><text fill="#000000" font-family="sans-serif" font-size="11" lengthAdjust="spacingAndGlyphs" textLength="367" x="367.5" y="1051.0908">marketSell(options: CreateOrderOptions): Promise&lt;GetOrderType&lt;Domain&gt;&gt;</text><ellipse cx="358.5" cy="1061.9258" fill="#84BE84" rx="3" ry="3" style="stroke: #038048; stroke-width: 1.0;"/><text fill="#000000" font-family="sans-serif" font-size="11" lengthAdjust="spacingAndGlyphs" textLength="369" x="367.5" y="1064.9268">marketBuy(options: CreateOrderOptions): Promise&lt;GetOrderType&lt;Domain&gt;&gt;</text><ellipse cx="358.5" cy="1075.7617" fill="#84BE84" rx="3" ry="3" style="stroke: #038048; stroke-width: 1.0;"/><text fill="#000000" font-family="sans-serif" font-size="11" lengthAdjust="spacingAndGlyphs" textLength="241" x="367.5" y="1078.7627">sellOrCancel(): Promise&lt;GetOrderType&lt;Domain&gt;&gt;</text><ellipse cx="358.5" cy="1089.5977" fill="#84BE84" rx="3" ry="3" style="stroke: #038048; stroke-width: 1.0;"/><text fill="#000000" font-family="sans-serif" font-size="11" lengthAdjust="spacingAndGlyphs" textLength="243" x="367.5" y="1092.5986">buyOrCancel(): Promise&lt;GetOrderType&lt;Domain&gt;&gt;</text><!--class IExchangeConnector--><rect fill="#FEFECE" filter="url(#f1j28fi7b9ly43)" height="144.8516" id="IExchangeConnector" style="stroke: #A80036; stroke-width: 1.5;" width="427" x="125.5" y="478"/><ellipse cx="140.5" cy="494" fill="#B4A7E5" rx="11" ry="11" style="stroke: #A80036; stroke-width: 1.0;"/><path d="M141.4531,490.6406 L141.4531,497.2969 L143.1719,497.2969 Q143.7813,497.2969 144.0469,497.5313 Q144.3125,497.7656 144.3125,498.1563 Q144.3125,498.5313 144.0469,498.7656 Q143.7813,499 143.1719,499 L138.0313,499 Q137.4219,499 137.1563,498.7656 Q136.8906,498.5313 136.8906,498.1406 Q136.8906,497.7656 137.1563,497.5313 Q137.4219,497.2969 138.0313,497.2969 L139.75,497.2969 L139.75,490.6406 L138.0313,490.6406 Q137.4219,490.6406 137.1563,490.4063 Q136.8906,490.1719 136.8906,489.7813 Q136.8906,489.4063 137.1563,489.1719 Q137.4219,488.9375 138.0313,488.9375 L143.1719,488.9375 Q143.7813,488.9375 144.0469,489.1719 Q144.3125,489.4063 144.3125,489.7813 Q144.3125,490.1719 144.0469,490.4063 Q143.7813,490.6406 143.1719,490.6406 L141.4531,490.6406 Z "/><text fill="#000000" font-family="sans-serif" font-size="12" font-style="italic" lengthAdjust="spacingAndGlyphs" textLength="116" x="154.5" y="498.9102">IExchangeConnector</text><rect fill="#FFFFFF" height="17.0938" style="stroke: #000000; stroke-width: 1.0; stroke-dasharray: 2.0,2.0;" width="277" x="278.5" y="475"/><text fill="#000000" font-family="sans-serif" font-size="12" font-style="italic" lengthAdjust="spacingAndGlyphs" textLength="275" x="279.5" y="488.457">Domain extends DomainTemplate, TExchangeApi</text><line style="stroke: #A80036; stroke-width: 1.5;" x1="126.5" x2="551.5" y1="510" y2="510"/><ellipse cx="136.5" cy="522.418" fill="none" rx="3" ry="3" style="stroke: #038048; stroke-width: 1.0;"/><text fill="#000000" font-family="sans-serif" font-size="11" lengthAdjust="spacingAndGlyphs" textLength="90" x="145.5" y="525.4189">api: TExchangeApi</text><ellipse cx="136.5" cy="536.2539" fill="none" rx="3" ry="3" style="stroke: #038048; stroke-width: 1.0;"/><text fill="#000000" font-family="sans-serif" font-size="11" lengthAdjust="spacingAndGlyphs" textLength="176" x="145.5" y="539.2549">tradeModule: ITradeModule&lt;Domain&gt;</text><ellipse cx="136.5" cy="550.0898" fill="none" rx="3" ry="3" style="stroke: #038048; stroke-width: 1.0;"/><text fill="#000000" font-family="sans-serif" font-size="11" lengthAdjust="spacingAndGlyphs" textLength="159" x="145.5" y="553.0908">infoModule: IInfoModule&lt;Domain&gt;</text><ellipse cx="136.5" cy="563.9258" fill="none" rx="3" ry="3" style="stroke: #038048; stroke-width: 1.0;"/><text fill="#000000" font-family="sans-serif" font-size="11" lengthAdjust="spacingAndGlyphs" textLength="196" x="145.5" y="566.9268">domainMapper: IDomainMapper&lt;Domain&gt;</text><line style="stroke: #A80036; stroke-width: 1.5;" x1="126.5" x2="551.5" y1="573.3438" y2="573.3438"/><ellipse cx="136.5" cy="585.7617" fill="#84BE84" rx="3" ry="3" style="stroke: #038048; stroke-width: 1.0;"/><text fill="#000000" font-family="sans-serif" font-size="11" lengthAdjust="spacingAndGlyphs" textLength="166" x="145.5" y="588.7627">initAccount(): void | Promise&lt;void&gt;</text><ellipse cx="136.5" cy="599.5977" fill="#84BE84" rx="3" ry="3" style="stroke: #038048; stroke-width: 1.0;"/><text fill="#000000" font-family="sans-serif" font-size="11" lengthAdjust="spacingAndGlyphs" textLength="291" x="145.5" y="602.5986">getPortfolio(): Promise&lt;GetSecurityBalanceType&lt;Domain&gt;[]&gt;</text><ellipse cx="136.5" cy="613.4336" fill="#84BE84" rx="3" ry="3" style="stroke: #038048; stroke-width: 1.0;"/><text fill="#000000" font-family="sans-serif" font-size="11" lengthAdjust="spacingAndGlyphs" textLength="349" x="145.5" y="616.4346">getCurrenciesBalance(): Promise&lt;GetCurrencyBalanceType&lt;Domain&gt;[]&gt;</text><!--class AbstractInfoModule--><rect fill="#FEFECE" filter="url(#f1j28fi7b9ly43)" height="158.6875" id="AbstractInfoModule" style="stroke: #A80036; stroke-width: 1.5;" width="500" x="6" y="239"/><ellipse cx="59.25" cy="255" fill="#A9DCDF" rx="11" ry="11" style="stroke: #A80036; stroke-width: 1.0;"/><path d="M61.4375,256.7656 L57.2969,256.7656 L56.875,257.7969 L57.2969,257.7969 Q57.9063,257.7969 58.1719,258.0313 Q58.4375,258.2656 58.4375,258.6563 Q58.4375,259.0313 58.1719,259.2656 Q57.9063,259.5 57.2969,259.5 L55,259.5 Q54.3906,259.5 54.1328,259.2656 Q53.875,259.0313 53.875,258.6406 Q53.875,258.2656 54.1484,258.0234 Q54.4219,257.7813 55.0469,257.7969 L57.7188,251.1406 L56.6094,251.1406 Q56,251.1406 55.7344,250.9063 Q55.4688,250.6719 55.4688,250.2813 Q55.4688,249.9063 55.7344,249.6719 Q56,249.4375 56.6094,249.4375 L60.2813,249.4375 L63.6719,257.7969 Q64.2656,257.7969 64.4531,257.9375 Q64.8438,258.2031 64.8438,258.6563 Q64.8438,259.0313 64.5859,259.2656 Q64.3281,259.5 63.7188,259.5 L61.4219,259.5 Q60.8125,259.5 60.5469,259.2656 Q60.2813,259.0313 60.2813,258.6406 Q60.2813,258.2656 60.5469,258.0313 Q60.8125,257.7969 61.4219,257.7969 L61.8438,257.7969 L61.4375,256.7656 Z M60.7188,255.0625 L59.3594,251.6875 L57.9844,255.0625 L60.7188,255.0625 Z "/><text fill="#000000" font-family="sans-serif" font-size="12" font-style="italic" lengthAdjust="spacingAndGlyphs" textLength="106" x="79.75" y="259.9102">AbstractInfoModule</text><rect fill="#FFFFFF" height="17.0938" style="stroke: #000000; stroke-width: 1.0; stroke-dasharray: 2.0,2.0;" width="277" x="232" y="236"/><text fill="#000000" font-family="sans-serif" font-size="12" font-style="italic" lengthAdjust="spacingAndGlyphs" textLength="275" x="233" y="249.457">Domain extends DomainTemplate, TExchangeApi</text><line style="stroke: #A80036; stroke-width: 1.5;" x1="7" x2="505" y1="271" y2="271"/><polygon fill="none" points="17,278.418,21,282.418,17,286.418,13,282.418" style="stroke: #B38D22; stroke-width: 1.0;"/><text fill="#000000" font-family="sans-serif" font-size="11" lengthAdjust="spacingAndGlyphs" textLength="327" x="26" y="286.4189">exchangeConnector: IExchangeConnector&lt;Domain, TExchangeApi&gt;</text><line style="stroke: #A80036; stroke-width: 1.5;" x1="7" x2="505" y1="292.8359" y2="292.8359"/><ellipse cx="17" cy="305.2539" fill="#84BE84" rx="3" ry="3" style="stroke: #038048; stroke-width: 1.0;"/><text fill="#000000" font-family="sans-serif" font-size="11" lengthAdjust="spacingAndGlyphs" textLength="474" x="26" y="308.2549">setExchangeConnector(exchangeConnector: IExchangeConnector&lt;Domain, TExchangeApi&gt;): void</text><ellipse cx="17" cy="319.0898" fill="#84BE84" rx="3" ry="3" style="stroke: #038048; stroke-width: 1.0;"/><text fill="#000000" font-family="sans-serif" font-size="11" font-style="italic" lengthAdjust="spacingAndGlyphs" textLength="280" x="26" y="322.0908">getCurrencies(): Promise&lt;GetCurrencyType&lt;Domain&gt;[]&gt;</text><ellipse cx="17" cy="332.9258" fill="#84BE84" rx="3" ry="3" style="stroke: #038048; stroke-width: 1.0;"/><text fill="#000000" font-family="sans-serif" font-size="11" font-style="italic" lengthAdjust="spacingAndGlyphs" textLength="269" x="26" y="335.9268">getSecurityLastPrice(ticker: string): Promise&lt;number&gt;</text><ellipse cx="17" cy="346.7617" fill="#84BE84" rx="3" ry="3" style="stroke: #038048; stroke-width: 1.0;"/><text fill="#000000" font-family="sans-serif" font-size="11" font-style="italic" lengthAdjust="spacingAndGlyphs" textLength="366" x="26" y="349.7627">getSecurityCurrency(ticker: string): Promise&lt;GetCurrencyType&lt;Domain&gt;&gt;</text><ellipse cx="17" cy="360.5977" fill="#84BE84" rx="3" ry="3" style="stroke: #038048; stroke-width: 1.0;"/><text fill="#000000" font-family="sans-serif" font-size="11" font-style="italic" lengthAdjust="spacingAndGlyphs" textLength="241" x="26" y="363.5986">getSecurityName(ticker: string): Promise&lt;string&gt;</text><ellipse cx="17" cy="374.4336" fill="#84BE84" rx="3" ry="3" style="stroke: #038048; stroke-width: 1.0;"/><text fill="#000000" font-family="sans-serif" font-size="11" font-style="italic" lengthAdjust="spacingAndGlyphs" textLength="322" x="26" y="377.4346">getSecurity(ticker: string, ignoreCache?: boolean): Promise&lt;any&gt;</text><ellipse cx="17" cy="388.2695" fill="#84BE84" rx="3" ry="3" style="stroke: #038048; stroke-width: 1.0;"/><text fill="#000000" font-family="sans-serif" font-size="11" font-style="italic" lengthAdjust="spacingAndGlyphs" textLength="373" x="26" y="391.2705">getSecurityByExchangeId(id: string, ignoreCache?: boolean): Promise&lt;any&gt;</text><!--class AbstractTradeModule--><rect fill="#FEFECE" filter="url(#f1j28fi7b9ly43)" height="158.6875" id="AbstractTradeModule" style="stroke: #A80036; stroke-width: 1.5;" width="500" x="157" y="1179"/><ellipse cx="204.75" cy="1195" fill="#A9DCDF" rx="11" ry="11" style="stroke: #A80036; stroke-width: 1.0;"/><path d="M206.9375,1196.7656 L202.7969,1196.7656 L202.375,1197.7969 L202.7969,1197.7969 Q203.4063,1197.7969 203.6719,1198.0313 Q203.9375,1198.2656 203.9375,1198.6563 Q203.9375,1199.0313 203.6719,1199.2656 Q203.4063,1199.5 202.7969,1199.5 L200.5,1199.5 Q199.8906,1199.5 199.6328,1199.2656 Q199.375,1199.0313 199.375,1198.6406 Q199.375,1198.2656 199.6484,1198.0234 Q199.9219,1197.7813 200.5469,1197.7969 L203.2188,1191.1406 L202.1094,1191.1406 Q201.5,1191.1406 201.2344,1190.9063 Q200.9688,1190.6719 200.9688,1190.2813 Q200.9688,1189.9063 201.2344,1189.6719 Q201.5,1189.4375 202.1094,1189.4375 L205.7813,1189.4375 L209.1719,1197.7969 Q209.7656,1197.7969 209.9531,1197.9375 Q210.3438,1198.2031 210.3438,1198.6563 Q210.3438,1199.0313 210.0859,1199.2656 Q209.8281,1199.5 209.2188,1199.5 L206.9219,1199.5 Q206.3125,1199.5 206.0469,1199.2656 Q205.7813,1199.0313 205.7813,1198.6406 Q205.7813,1198.2656 206.0469,1198.0313 Q206.3125,1197.7969 206.9219,1197.7969 L207.3438,1197.7969 L206.9375,1196.7656 Z M206.2188,1195.0625 L204.8594,1191.6875 L203.4844,1195.0625 L206.2188,1195.0625 Z "/><text fill="#000000" font-family="sans-serif" font-size="12" font-style="italic" lengthAdjust="spacingAndGlyphs" textLength="117" x="225.25" y="1199.9102">AbstractTradeModule</text><rect fill="#FFFFFF" height="17.0938" style="stroke: #000000; stroke-width: 1.0; stroke-dasharray: 2.0,2.0;" width="277" x="383" y="1176"/><text fill="#000000" font-family="sans-serif" font-size="12" font-style="italic" lengthAdjust="spacingAndGlyphs" textLength="275" x="384" y="1189.457">Domain extends DomainTemplate, TExchangeApi</text><line style="stroke: #A80036; stroke-width: 1.5;" x1="158" x2="656" y1="1211" y2="1211"/><polygon fill="none" points="168,1218.418,172,1222.418,168,1226.418,164,1222.418" style="stroke: #B38D22; stroke-width: 1.0;"/><text fill="#000000" font-family="sans-serif" font-size="11" lengthAdjust="spacingAndGlyphs" textLength="327" x="177" y="1226.4189">exchangeConnector: IExchangeConnector&lt;Domain, TExchangeApi&gt;</text><line style="stroke: #A80036; stroke-width: 1.5;" x1="158" x2="656" y1="1232.8359" y2="1232.8359"/><ellipse cx="168" cy="1245.2539" fill="#84BE84" rx="3" ry="3" style="stroke: #038048; stroke-width: 1.0;"/><text fill="#000000" font-family="sans-serif" font-size="11" lengthAdjust="spacingAndGlyphs" textLength="474" x="177" y="1248.2549">setExchangeConnector(exchangeConnector: IExchangeConnector&lt;Domain, TExchangeApi&gt;): void</text><ellipse cx="168" cy="1259.0898" fill="#84BE84" rx="3" ry="3" style="stroke: #038048; stroke-width: 1.0;"/><text fill="#000000" font-family="sans-serif" font-size="11" font-style="italic" lengthAdjust="spacingAndGlyphs" textLength="331" x="177" y="1262.0908">sell(__0: CreateOrderOptions): Promise&lt;GetOrderType&lt;Domain&gt;&gt;</text><ellipse cx="168" cy="1272.9258" fill="#84BE84" rx="3" ry="3" style="stroke: #038048; stroke-width: 1.0;"/><text fill="#000000" font-family="sans-serif" font-size="11" font-style="italic" lengthAdjust="spacingAndGlyphs" textLength="331" x="177" y="1275.9268">buy(__0: CreateOrderOptions): Promise&lt;GetOrderType&lt;Domain&gt;&gt;</text><ellipse cx="168" cy="1286.7617" fill="#84BE84" rx="3" ry="3" style="stroke: #038048; stroke-width: 1.0;"/><text fill="#000000" font-family="sans-serif" font-size="11" font-style="italic" lengthAdjust="spacingAndGlyphs" textLength="366" x="177" y="1289.7627">marketSell(__0: CreateOrderOptions): Promise&lt;GetOrderType&lt;Domain&gt;&gt;</text><ellipse cx="168" cy="1300.5977" fill="#84BE84" rx="3" ry="3" style="stroke: #038048; stroke-width: 1.0;"/><text fill="#000000" font-family="sans-serif" font-size="11" font-style="italic" lengthAdjust="spacingAndGlyphs" textLength="365" x="177" y="1303.5986">marketBuy(__0: CreateOrderOptions): Promise&lt;GetOrderType&lt;Domain&gt;&gt;</text><ellipse cx="168" cy="1314.4336" fill="#84BE84" rx="3" ry="3" style="stroke: #038048; stroke-width: 1.0;"/><text fill="#000000" font-family="sans-serif" font-size="11" font-style="italic" lengthAdjust="spacingAndGlyphs" textLength="254" x="177" y="1317.4346">sellOrCancel(): Promise&lt;GetOrderType&lt;Domain&gt;&gt;</text><ellipse cx="168" cy="1328.2695" fill="#84BE84" rx="3" ry="3" style="stroke: #038048; stroke-width: 1.0;"/><text fill="#000000" font-family="sans-serif" font-size="11" font-style="italic" lengthAdjust="spacingAndGlyphs" textLength="254" x="177" y="1331.2705">buyOrCancel(): Promise&lt;GetOrderType&lt;Domain&gt;&gt;</text><!--class AbstractExchangeConnector--><rect fill="#FEFECE" filter="url(#f1j28fi7b9ly43)" height="186.3594" id="AbstractExchangeConnector" style="stroke: #A80036; stroke-width: 1.5;" width="468" x="394" y="702"/><ellipse cx="409" cy="718" fill="#A9DCDF" rx="11" ry="11" style="stroke: #A80036; stroke-width: 1.0;"/><path d="M411.1875,719.7656 L407.0469,719.7656 L406.625,720.7969 L407.0469,720.7969 Q407.6563,720.7969 407.9219,721.0313 Q408.1875,721.2656 408.1875,721.6563 Q408.1875,722.0313 407.9219,722.2656 Q407.6563,722.5 407.0469,722.5 L404.75,722.5 Q404.1406,722.5 403.8828,722.2656 Q403.625,722.0313 403.625,721.6406 Q403.625,721.2656 403.8984,721.0234 Q404.1719,720.7813 404.7969,720.7969 L407.4688,714.1406 L406.3594,714.1406 Q405.75,714.1406 405.4844,713.9063 Q405.2188,713.6719 405.2188,713.2813 Q405.2188,712.9063 405.4844,712.6719 Q405.75,712.4375 406.3594,712.4375 L410.0313,712.4375 L413.4219,720.7969 Q414.0156,720.7969 414.2031,720.9375 Q414.5938,721.2031 414.5938,721.6563 Q414.5938,722.0313 414.3359,722.2656 Q414.0781,722.5 413.4688,722.5 L411.1719,722.5 Q410.5625,722.5 410.2969,722.2656 Q410.0313,722.0313 410.0313,721.6406 Q410.0313,721.2656 410.2969,721.0313 Q410.5625,720.7969 411.1719,720.7969 L411.5938,720.7969 L411.1875,719.7656 Z M410.4688,718.0625 L409.1094,714.6875 L407.7344,718.0625 L410.4688,718.0625 Z "/><text fill="#000000" font-family="sans-serif" font-size="12" font-style="italic" lengthAdjust="spacingAndGlyphs" textLength="157" x="423" y="722.9102">AbstractExchangeConnector</text><rect fill="#FFFFFF" height="17.0938" style="stroke: #000000; stroke-width: 1.0; stroke-dasharray: 2.0,2.0;" width="277" x="588" y="699"/><text fill="#000000" font-family="sans-serif" font-size="12" font-style="italic" lengthAdjust="spacingAndGlyphs" textLength="275" x="589" y="712.457">Domain extends DomainTemplate, TExchangeApi</text><line style="stroke: #A80036; stroke-width: 1.5;" x1="395" x2="861" y1="734" y2="734"/><ellipse cx="405" cy="746.418" fill="none" rx="3" ry="3" style="stroke: #038048; stroke-width: 1.0;"/><text fill="#000000" font-family="sans-serif" font-size="11" lengthAdjust="spacingAndGlyphs" textLength="90" x="414" y="749.4189">api: TExchangeApi</text><ellipse cx="405" cy="760.2539" fill="none" rx="3" ry="3" style="stroke: #038048; stroke-width: 1.0;"/><text fill="#000000" font-family="sans-serif" font-size="11" lengthAdjust="spacingAndGlyphs" textLength="176" x="414" y="763.2549">tradeModule: ITradeModule&lt;Domain&gt;</text><ellipse cx="405" cy="774.0898" fill="none" rx="3" ry="3" style="stroke: #038048; stroke-width: 1.0;"/><text fill="#000000" font-family="sans-serif" font-size="11" lengthAdjust="spacingAndGlyphs" textLength="159" x="414" y="777.0908">infoModule: IInfoModule&lt;Domain&gt;</text><ellipse cx="405" cy="787.9258" fill="none" rx="3" ry="3" style="stroke: #038048; stroke-width: 1.0;"/><text fill="#000000" font-family="sans-serif" font-size="11" lengthAdjust="spacingAndGlyphs" textLength="196" x="414" y="790.9268">domainMapper: IDomainMapper&lt;Domain&gt;</text><rect fill="none" height="6" style="stroke: #C82930; stroke-width: 1.0;" width="6" x="402" y="798.7617"/><text fill="#000000" font-family="sans-serif" font-size="11" lengthAdjust="spacingAndGlyphs" textLength="142" x="414" y="804.7627">_isAccountInitialized: boolean</text><ellipse cx="405" cy="815.5977" fill="none" rx="3" ry="3" style="stroke: #038048; stroke-width: 1.0;"/><text fill="#000000" font-family="sans-serif" font-size="11" lengthAdjust="spacingAndGlyphs" textLength="136" x="414" y="818.5986">isAccountInitialized: boolean</text><polygon fill="none" points="405,824.4336,409,828.4336,405,832.4336,401,828.4336" style="stroke: #B38D22; stroke-width: 1.0;"/><text fill="#000000" font-family="sans-serif" font-size="11" lengthAdjust="spacingAndGlyphs" textLength="136" x="414" y="832.4346">isAccountInitialized: boolean</text><line style="stroke: #A80036; stroke-width: 1.5;" x1="395" x2="861" y1="838.8516" y2="838.8516"/><ellipse cx="405" cy="851.2695" fill="#84BE84" rx="3" ry="3" style="stroke: #038048; stroke-width: 1.0;"/><text fill="#000000" font-family="sans-serif" font-size="11" font-style="italic" lengthAdjust="spacingAndGlyphs" textLength="171" x="414" y="854.2705">initAccount(): void | Promise&lt;void&gt;</text><ellipse cx="405" cy="865.1055" fill="#84BE84" rx="3" ry="3" style="stroke: #038048; stroke-width: 1.0;"/><text fill="#000000" font-family="sans-serif" font-size="11" font-style="italic" lengthAdjust="spacingAndGlyphs" textLength="301" x="414" y="868.1064">getPortfolio(): Promise&lt;GetSecurityBalanceType&lt;Domain&gt;[]&gt;</text><ellipse cx="405" cy="878.9414" fill="#84BE84" rx="3" ry="3" style="stroke: #038048; stroke-width: 1.0;"/><text fill="#000000" font-family="sans-serif" font-size="11" font-style="italic" lengthAdjust="spacingAndGlyphs" textLength="360" x="414" y="881.9424">getCurrenciesBalance(): Promise&lt;GetCurrencyBalanceType&lt;Domain&gt;[]&gt;</text><!--link IInfoModule to AbstractInfoModule--><path d="M455.14,170.93 C425.51,192.74 393.17,216.55 363.33,238.51 " fill="none" id="IInfoModule-AbstractInfoModule" style="stroke: #A80036; stroke-width: 1.0; stroke-dasharray: 7.0,7.0;"/><polygon fill="none" points="450.51,164.92,470.77,158.7,458.81,176.19,450.51,164.92" style="stroke: #A80036; stroke-width: 1.0;"/><!--link ITradeModule to AbstractTradeModule--><path d="M494.26,1116.5 C481.68,1136.82 468.24,1158.55 455.76,1178.71 " fill="none" id="ITradeModule-AbstractTradeModule" style="stroke: #A80036; stroke-width: 1.0; stroke-dasharray: 7.0,7.0;"/><polygon fill="none" points="488.79,1113.03,505.27,1099.7,500.7,1120.39,488.79,1113.03" style="stroke: #A80036; stroke-width: 1.0;"/><!--link IExchangeConnector to AbstractExchangeConnector--><path d="M439.35,635.38 C464.82,656.8 492.32,679.91 518.23,701.7 " fill="none" id="IExchangeConnector-AbstractExchangeConnector" style="stroke: #A80036; stroke-width: 1.0; stroke-dasharray: 7.0,7.0;"/><polygon fill="none" points="435.17,640.17,424.37,621.94,444.18,629.45,435.17,640.17" style="stroke: #A80036; stroke-width: 1.0;"/><!--link IExchangeConnector to ITradeModule--><path d="M332.17,621.84 C328.51,693.23 331.84,804.49 376,888 C391.44,917.2 415.43,943.02 440.54,964.45 " fill="none" id="IExchangeConnector-ITradeModule" style="stroke: #A80036; stroke-width: 1.0;"/><polygon fill="#A80036" points="443.9,968.13,439.5984,959.2702,440.0777,964.9067,434.4411,965.3859,443.9,968.13" style="stroke: #A80036; stroke-width: 1.0;"/><text fill="#000000" font-family="sans-serif" font-size="13" lengthAdjust="spacingAndGlyphs" textLength="7" x="425.9213" y="957.1611">1</text><!--link IExchangeConnector to IInfoModule--><path d="M453.04,478.13 C480.18,455.81 506.13,428.81 523,398 C562.63,325.6 567.39,229.13 565.03,164.57 " fill="none" id="IExchangeConnector-IInfoModule" style="stroke: #A80036; stroke-width: 1.0;"/><polygon fill="#A80036" points="564.79,159.81,561.154,168.9631,564.9904,164.806,569.1475,168.6424,564.79,159.81" style="stroke: #A80036; stroke-width: 1.0;"/><text fill="#000000" font-family="sans-serif" font-size="13" lengthAdjust="spacingAndGlyphs" textLength="7" x="558.7346" y="180.0148">1</text><!--link AbstractInfoModule to IExchangeConnector--><path d="M284.56,398.48 C293.28,422.59 302.85,449.04 311.5,472.95 " fill="none" id="AbstractInfoModule-IExchangeConnector" style="stroke: #A80036; stroke-width: 1.0;"/><polygon fill="#A80036" points="313.44,477.33,314.1403,467.5061,311.7393,472.6281,306.6173,470.2272,313.44,477.33" style="stroke: #A80036; stroke-width: 1.0;"/><text fill="#000000" font-family="sans-serif" font-size="13" lengthAdjust="spacingAndGlyphs" textLength="7" x="303.2616" y="467.0839">1</text><!--link AbstractTradeModule to IExchangeConnector--><path d="M336.79,1178.78 C324.14,1160.34 312.82,1139.94 306,1119 C250.99,950.22 289.48,738.49 317.3,627.29 " fill="none" id="AbstractTradeModule-IExchangeConnector" style="stroke: #A80036; stroke-width: 1.0;"/><polygon fill="#A80036" points="318.7,622.74,312.6152,630.4843,317.4739,627.5873,320.3709,632.4461,318.7,622.74" style="stroke: #A80036; stroke-width: 1.0;"/><text fill="#000000" font-family="sans-serif" font-size="13" lengthAdjust="spacingAndGlyphs" textLength="7" x="302.3287" y="644.2343">1</text><!--link AbstractExchangeConnector to ITradeModule--><path d="M595.55,888.45 C586.88,913.16 577.66,939.45 569.49,962.71 " fill="none" id="AbstractExchangeConnector-ITradeModule" style="stroke: #A80036; stroke-width: 1.0;"/><polygon fill="#A80036" points="567.55,967.24,574.2889,960.0576,569.1954,962.5185,566.7345,957.425,567.55,967.24" style="stroke: #A80036; stroke-width: 1.0;"/><text fill="#000000" font-family="sans-serif" font-size="13" lengthAdjust="spacingAndGlyphs" textLength="7" x="562.7527" y="957.2839">1</text><!--link AbstractExchangeConnector to IInfoModule--><path d="M618.89,701.6 C604.9,559.82 578.46,291.74 565.92,164.68 " fill="none" id="AbstractExchangeConnector-IInfoModule" style="stroke: #A80036; stroke-width: 1.0;"/><polygon fill="#A80036" points="565.34,159.74,562.2341,169.0863,565.8262,164.7163,570.1962,168.3084,565.34,159.74" style="stroke: #A80036; stroke-width: 1.0;"/><text fill="#000000" font-family="sans-serif" font-size="13" lengthAdjust="spacingAndGlyphs" textLength="7" x="558.6684" y="180.7229">1</text><!--
@startuml
interface IInfoModule<Domain extends DomainTemplate> {
    +getCurrencies(): Promise<GetCurrencyType<Domain>[]>
    +getSecurityLastPrice(ticker: string): Promise<number>
    +getSecurityCurrency(ticker: string): Promise<GetCurrencyType<Domain>>
    +getSecurityName(ticker: string): Promise<string>
    +getSecurity(ticker: string, ignoreCache?: boolean): Promise<any>
    +getSecurityByExchangeId(id: string, ignoreCache?: boolean): Promise<any>
}
interface ITradeModule<Domain extends DomainTemplate> {
    +sell(options: CreateOrderOptions): Promise<GetOrderType<Domain>>
    +buy(options: CreateOrderOptions): Promise<GetOrderType<Domain>>
    +marketSell(options: CreateOrderOptions): Promise<GetOrderType<Domain>>
    +marketBuy(options: CreateOrderOptions): Promise<GetOrderType<Domain>>
    +sellOrCancel(): Promise<GetOrderType<Domain>>
    +buyOrCancel(): Promise<GetOrderType<Domain>>
}
interface IExchangeConnector<Domain extends DomainTemplate, TExchangeApi> {
    +api: TExchangeApi
    +tradeModule: ITradeModule<Domain>
    +infoModule: IInfoModule<Domain>
    +domainMapper: IDomainMapper<Domain>
    +initAccount(): void | Promise<void>
    +getPortfolio(): Promise<GetSecurityBalanceType<Domain>[]>
    +getCurrenciesBalance(): Promise<GetCurrencyBalanceType<Domain>[]>
}
abstract class AbstractInfoModule<Domain extends DomainTemplate, TExchangeApi> implements IInfoModule {
    #exchangeConnector: IExchangeConnector<Domain, TExchangeApi>
    +setExchangeConnector(exchangeConnector: IExchangeConnector<Domain, TExchangeApi>): void
    +{abstract} getCurrencies(): Promise<GetCurrencyType<Domain>[]>
    +{abstract} getSecurityLastPrice(ticker: string): Promise<number>
    +{abstract} getSecurityCurrency(ticker: string): Promise<GetCurrencyType<Domain>>
    +{abstract} getSecurityName(ticker: string): Promise<string>
    +{abstract} getSecurity(ticker: string, ignoreCache?: boolean): Promise<any>
    +{abstract} getSecurityByExchangeId(id: string, ignoreCache?: boolean): Promise<any>
}
abstract class AbstractTradeModule<Domain extends DomainTemplate, TExchangeApi> implements ITradeModule {
    #exchangeConnector: IExchangeConnector<Domain, TExchangeApi>
    +setExchangeConnector(exchangeConnector: IExchangeConnector<Domain, TExchangeApi>): void
    +{abstract} sell(__0: CreateOrderOptions): Promise<GetOrderType<Domain>>
    +{abstract} buy(__0: CreateOrderOptions): Promise<GetOrderType<Domain>>
    +{abstract} marketSell(__0: CreateOrderOptions): Promise<GetOrderType<Domain>>
    +{abstract} marketBuy(__0: CreateOrderOptions): Promise<GetOrderType<Domain>>
    +{abstract} sellOrCancel(): Promise<GetOrderType<Domain>>
    +{abstract} buyOrCancel(): Promise<GetOrderType<Domain>>
}
abstract class AbstractExchangeConnector<Domain extends DomainTemplate, TExchangeApi> implements IExchangeConnector {
    +api: TExchangeApi
    +tradeModule: ITradeModule<Domain>
    +infoModule: IInfoModule<Domain>
    +domainMapper: IDomainMapper<Domain>
    +{abstract} initAccount(): void | Promise<void>
    +{abstract} getPortfolio(): Promise<GetSecurityBalanceType<Domain>[]>
    +{abstract} getCurrenciesBalance(): Promise<GetCurrencyBalanceType<Domain>[]>
    -_isAccountInitialized: boolean
    +isAccountInitialized: boolean
    #isAccountInitialized: boolean
}
IExchangeConnector - -> "1" ITradeModule
IExchangeConnector - -> "1" IInfoModule
AbstractInfoModule - -> "1" IExchangeConnector
AbstractTradeModule - -> "1" IExchangeConnector
AbstractExchangeConnector - -> "1" ITradeModule
AbstractExchangeConnector - -> "1" IInfoModule
@enduml

PlantUML version 1.2019.06(Fri May 24 21:10:25 GET 2019)
(GPL source distribution)
Java Runtime: Java(TM) SE Runtime Environment
JVM: Java HotSpot(TM) Client VM
Java Version: 1.8.0_361-b09
Operating System: Windows 10
OS Version: 10.0
Default Encoding: Cp1251
Language: ru
Country: RU
--></g></svg>