<?xml version="1.0" encoding="UTF-8" standalone="no"?><svg xmlns="http://www.w3.org/2000/svg" xmlns:xlink="http://www.w3.org/1999/xlink" contentScriptType="application/ecmascript" contentStyleType="text/css" height="1335px" preserveAspectRatio="none" style="width:828px;height:1335px;" version="1.1" viewBox="0 0 828 1335" width="828px" zoomAndPan="magnify"><defs><filter height="300%" id="f1o9gq3dtl6yik" width="300%" x="-1" y="-1"><feGaussianBlur result="blurOut" stdDeviation="2.0"/><feColorMatrix in="blurOut" result="blurOut2" type="matrix" values="0 0 0 0 0 0 0 0 0 0 0 0 0 0 0 0 0 0 .4 0"/><feOffset dx="4.0" dy="4.0" in="blurOut2" result="blurOut3"/><feBlend in="SourceGraphic" in2="blurOut3" mode="normal"/></filter></defs><g><!--class IInfoModule--><rect fill="#FEFECE" filter="url(#f1o9gq3dtl6yik)" height="131.0156" id="IInfoModule" style="stroke: #A80036; stroke-width: 1.5;" width="390" x="316" y="28"/><ellipse cx="377.75" cy="44" fill="#B4A7E5" rx="11" ry="11" style="stroke: #A80036; stroke-width: 1.0;"/><path d="M378.7031,40.6406 L378.7031,47.2969 L380.4219,47.2969 Q381.0313,47.2969 381.2969,47.5313 Q381.5625,47.7656 381.5625,48.1563 Q381.5625,48.5313 381.2969,48.7656 Q381.0313,49 380.4219,49 L375.2813,49 Q374.6719,49 374.4063,48.7656 Q374.1406,48.5313 374.1406,48.1406 Q374.1406,47.7656 374.4063,47.5313 Q374.6719,47.2969 375.2813,47.2969 L377,47.2969 L377,40.6406 L375.2813,40.6406 Q374.6719,40.6406 374.4063,40.4063 Q374.1406,40.1719 374.1406,39.7813 Q374.1406,39.4063 374.4063,39.1719 Q374.6719,38.9375 375.2813,38.9375 L380.4219,38.9375 Q381.0313,38.9375 381.2969,39.1719 Q381.5625,39.4063 381.5625,39.7813 Q381.5625,40.1719 381.2969,40.4063 Q381.0313,40.6406 380.4219,40.6406 L378.7031,40.6406 Z "/><text fill="#000000" font-family="sans-serif" font-size="12" font-style="italic" lengthAdjust="spacingAndGlyphs" textLength="65" x="398.25" y="48.9102">IInfoModule</text><rect fill="#FFFFFF" height="17.0938" style="stroke: #000000; stroke-width: 1.0; stroke-dasharray: 2.0,2.0;" width="191" x="518" y="25"/><text fill="#000000" font-family="sans-serif" font-size="12" font-style="italic" lengthAdjust="spacingAndGlyphs" textLength="189" x="519" y="38.457">Domain extends DomainTemplate</text><line style="stroke: #A80036; stroke-width: 1.5;" x1="317" x2="705" y1="60" y2="60"/><line style="stroke: #A80036; stroke-width: 1.5;" x1="317" x2="705" y1="68" y2="68"/><ellipse cx="327" cy="80.418" fill="#84BE84" rx="3" ry="3" style="stroke: #038048; stroke-width: 1.0;"/><text fill="#000000" font-family="sans-serif" font-size="11" lengthAdjust="spacingAndGlyphs" textLength="271" x="336" y="83.4189">getCurrencies(): Promise&lt;GetCurrencyType&lt;Domain&gt;[]&gt;</text><ellipse cx="327" cy="94.2539" fill="#84BE84" rx="3" ry="3" style="stroke: #038048; stroke-width: 1.0;"/><text fill="#000000" font-family="sans-serif" font-size="11" lengthAdjust="spacingAndGlyphs" textLength="259" x="336" y="97.2549">getSecurityLastPrice(ticker: string): Promise&lt;number&gt;</text><ellipse cx="327" cy="108.0898" fill="#84BE84" rx="3" ry="3" style="stroke: #038048; stroke-width: 1.0;"/><text fill="#000000" font-family="sans-serif" font-size="11" lengthAdjust="spacingAndGlyphs" textLength="356" x="336" y="111.0908">getSecurityCurrency(ticker: string): Promise&lt;GetCurrencyType&lt;Domain&gt;&gt;</text><ellipse cx="327" cy="121.9258" fill="#84BE84" rx="3" ry="3" style="stroke: #038048; stroke-width: 1.0;"/><text fill="#000000" font-family="sans-serif" font-size="11" lengthAdjust="spacingAndGlyphs" textLength="232" x="336" y="124.9268">getSecurityName(ticker: string): Promise&lt;string&gt;</text><ellipse cx="327" cy="135.7617" fill="#84BE84" rx="3" ry="3" style="stroke: #038048; stroke-width: 1.0;"/><text fill="#000000" font-family="sans-serif" font-size="11" lengthAdjust="spacingAndGlyphs" textLength="313" x="336" y="138.7627">getSecurity(ticker: string, ignoreCache?: boolean): Promise&lt;any&gt;</text><ellipse cx="327" cy="149.5977" fill="#84BE84" rx="3" ry="3" style="stroke: #038048; stroke-width: 1.0;"/><text fill="#000000" font-family="sans-serif" font-size="11" lengthAdjust="spacingAndGlyphs" textLength="364" x="336" y="152.5986">getSecurityByExchangeId(id: string, ignoreCache?: boolean): Promise&lt;any&gt;</text><!--class ITradeModule--><rect fill="#FEFECE" filter="url(#f1o9gq3dtl6yik)" height="131.0156" id="ITradeModule" style="stroke: #A80036; stroke-width: 1.5;" width="395" x="299.5" y="955"/><ellipse cx="358.25" cy="971" fill="#B4A7E5" rx="11" ry="11" style="stroke: #A80036; stroke-width: 1.0;"/><path d="M359.2031,967.6406 L359.2031,974.2969 L360.9219,974.2969 Q361.5313,974.2969 361.7969,974.5313 Q362.0625,974.7656 362.0625,975.1563 Q362.0625,975.5313 361.7969,975.7656 Q361.5313,976 360.9219,976 L355.7813,976 Q355.1719,976 354.9063,975.7656 Q354.6406,975.5313 354.6406,975.1406 Q354.6406,974.7656 354.9063,974.5313 Q355.1719,974.2969 355.7813,974.2969 L357.5,974.2969 L357.5,967.6406 L355.7813,967.6406 Q355.1719,967.6406 354.9063,967.4063 Q354.6406,967.1719 354.6406,966.7813 Q354.6406,966.4063 354.9063,966.1719 Q355.1719,965.9375 355.7813,965.9375 L360.9219,965.9375 Q361.5313,965.9375 361.7969,966.1719 Q362.0625,966.4063 362.0625,966.7813 Q362.0625,967.1719 361.7969,967.4063 Q361.5313,967.6406 360.9219,967.6406 L359.2031,967.6406 Z "/><text fill="#000000" font-family="sans-serif" font-size="12" font-style="italic" lengthAdjust="spacingAndGlyphs" textLength="76" x="378.75" y="975.9102">ITradeModule</text><rect fill="#FFFFFF" height="17.0938" style="stroke: #000000; stroke-width: 1.0; stroke-dasharray: 2.0,2.0;" width="191" x="506.5" y="952"/><text fill="#000000" font-family="sans-serif" font-size="12" font-style="italic" lengthAdjust="spacingAndGlyphs" textLength="189" x="507.5" y="965.457">Domain extends DomainTemplate</text><line style="stroke: #A80036; stroke-width: 1.5;" x1="300.5" x2="693.5" y1="987" y2="987"/><line style="stroke: #A80036; stroke-width: 1.5;" x1="300.5" x2="693.5" y1="995" y2="995"/><ellipse cx="310.5" cy="1007.418" fill="#84BE84" rx="3" ry="3" style="stroke: #038048; stroke-width: 1.0;"/><text fill="#000000" font-family="sans-serif" font-size="11" lengthAdjust="spacingAndGlyphs" textLength="334" x="319.5" y="1010.4189">sell(options: CreateOrderOptions): Promise&lt;GetOrderType&lt;Domain&gt;&gt;</text><ellipse cx="310.5" cy="1021.2539" fill="#84BE84" rx="3" ry="3" style="stroke: #038048; stroke-width: 1.0;"/><text fill="#000000" font-family="sans-serif" font-size="11" lengthAdjust="spacingAndGlyphs" textLength="336" x="319.5" y="1024.2549">buy(options: CreateOrderOptions): Promise&lt;GetOrderType&lt;Domain&gt;&gt;</text><ellipse cx="310.5" cy="1035.0898" fill="#84BE84" rx="3" ry="3" style="stroke: #038048; stroke-width: 1.0;"/><text fill="#000000" font-family="sans-serif" font-size="11" lengthAdjust="spacingAndGlyphs" textLength="367" x="319.5" y="1038.0908">marketSell(options: CreateOrderOptions): Promise&lt;GetOrderType&lt;Domain&gt;&gt;</text><ellipse cx="310.5" cy="1048.9258" fill="#84BE84" rx="3" ry="3" style="stroke: #038048; stroke-width: 1.0;"/><text fill="#000000" font-family="sans-serif" font-size="11" lengthAdjust="spacingAndGlyphs" textLength="369" x="319.5" y="1051.9268">marketBuy(options: CreateOrderOptions): Promise&lt;GetOrderType&lt;Domain&gt;&gt;</text><ellipse cx="310.5" cy="1062.7617" fill="#84BE84" rx="3" ry="3" style="stroke: #038048; stroke-width: 1.0;"/><text fill="#000000" font-family="sans-serif" font-size="11" lengthAdjust="spacingAndGlyphs" textLength="241" x="319.5" y="1065.7627">sellOrCancel(): Promise&lt;GetOrderType&lt;Domain&gt;&gt;</text><ellipse cx="310.5" cy="1076.5977" fill="#84BE84" rx="3" ry="3" style="stroke: #038048; stroke-width: 1.0;"/><text fill="#000000" font-family="sans-serif" font-size="11" lengthAdjust="spacingAndGlyphs" textLength="243" x="319.5" y="1079.5986">buyOrCancel(): Promise&lt;GetOrderType&lt;Domain&gt;&gt;</text><!--class IExchangeConnector--><rect fill="#FEFECE" filter="url(#f1o9gq3dtl6yik)" height="131.0156" id="IExchangeConnector" style="stroke: #A80036; stroke-width: 1.5;" width="427" x="77.5" y="478"/><ellipse cx="92.5" cy="494" fill="#B4A7E5" rx="11" ry="11" style="stroke: #A80036; stroke-width: 1.0;"/><path d="M93.4531,490.6406 L93.4531,497.2969 L95.1719,497.2969 Q95.7813,497.2969 96.0469,497.5313 Q96.3125,497.7656 96.3125,498.1563 Q96.3125,498.5313 96.0469,498.7656 Q95.7813,499 95.1719,499 L90.0313,499 Q89.4219,499 89.1563,498.7656 Q88.8906,498.5313 88.8906,498.1406 Q88.8906,497.7656 89.1563,497.5313 Q89.4219,497.2969 90.0313,497.2969 L91.75,497.2969 L91.75,490.6406 L90.0313,490.6406 Q89.4219,490.6406 89.1563,490.4063 Q88.8906,490.1719 88.8906,489.7813 Q88.8906,489.4063 89.1563,489.1719 Q89.4219,488.9375 90.0313,488.9375 L95.1719,488.9375 Q95.7813,488.9375 96.0469,489.1719 Q96.3125,489.4063 96.3125,489.7813 Q96.3125,490.1719 96.0469,490.4063 Q95.7813,490.6406 95.1719,490.6406 L93.4531,490.6406 Z "/><text fill="#000000" font-family="sans-serif" font-size="12" font-style="italic" lengthAdjust="spacingAndGlyphs" textLength="116" x="106.5" y="498.9102">IExchangeConnector</text><rect fill="#FFFFFF" height="17.0938" style="stroke: #000000; stroke-width: 1.0; stroke-dasharray: 2.0,2.0;" width="277" x="230.5" y="475"/><text fill="#000000" font-family="sans-serif" font-size="12" font-style="italic" lengthAdjust="spacingAndGlyphs" textLength="275" x="231.5" y="488.457">Domain extends DomainTemplate, TExchangeApi</text><line style="stroke: #A80036; stroke-width: 1.5;" x1="78.5" x2="503.5" y1="510" y2="510"/><ellipse cx="88.5" cy="522.418" fill="none" rx="3" ry="3" style="stroke: #038048; stroke-width: 1.0;"/><text fill="#000000" font-family="sans-serif" font-size="11" lengthAdjust="spacingAndGlyphs" textLength="90" x="97.5" y="525.4189">api: TExchangeApi</text><ellipse cx="88.5" cy="536.2539" fill="none" rx="3" ry="3" style="stroke: #038048; stroke-width: 1.0;"/><text fill="#000000" font-family="sans-serif" font-size="11" lengthAdjust="spacingAndGlyphs" textLength="176" x="97.5" y="539.2549">tradeModule: ITradeModule&lt;Domain&gt;</text><ellipse cx="88.5" cy="550.0898" fill="none" rx="3" ry="3" style="stroke: #038048; stroke-width: 1.0;"/><text fill="#000000" font-family="sans-serif" font-size="11" lengthAdjust="spacingAndGlyphs" textLength="159" x="97.5" y="553.0908">infoModule: IInfoModule&lt;Domain&gt;</text><ellipse cx="88.5" cy="563.9258" fill="none" rx="3" ry="3" style="stroke: #038048; stroke-width: 1.0;"/><text fill="#000000" font-family="sans-serif" font-size="11" lengthAdjust="spacingAndGlyphs" textLength="196" x="97.5" y="566.9268">domainMapper: IDomainMapper&lt;Domain&gt;</text><line style="stroke: #A80036; stroke-width: 1.5;" x1="78.5" x2="503.5" y1="573.3438" y2="573.3438"/><ellipse cx="88.5" cy="585.7617" fill="#84BE84" rx="3" ry="3" style="stroke: #038048; stroke-width: 1.0;"/><text fill="#000000" font-family="sans-serif" font-size="11" lengthAdjust="spacingAndGlyphs" textLength="291" x="97.5" y="588.7627">getPortfolio(): Promise&lt;GetSecurityBalanceType&lt;Domain&gt;[]&gt;</text><ellipse cx="88.5" cy="599.5977" fill="#84BE84" rx="3" ry="3" style="stroke: #038048; stroke-width: 1.0;"/><text fill="#000000" font-family="sans-serif" font-size="11" lengthAdjust="spacingAndGlyphs" textLength="349" x="97.5" y="602.5986">getCurrenciesBalance(): Promise&lt;GetCurrencyBalanceType&lt;Domain&gt;[]&gt;</text><!--class AbstractInfoModule--><rect fill="#FEFECE" filter="url(#f1o9gq3dtl6yik)" height="158.6875" id="AbstractInfoModule" style="stroke: #A80036; stroke-width: 1.5;" width="452" x="6" y="239"/><ellipse cx="36.75" cy="255" fill="#A9DCDF" rx="11" ry="11" style="stroke: #A80036; stroke-width: 1.0;"/><path d="M38.9375,256.7656 L34.7969,256.7656 L34.375,257.7969 L34.7969,257.7969 Q35.4063,257.7969 35.6719,258.0313 Q35.9375,258.2656 35.9375,258.6563 Q35.9375,259.0313 35.6719,259.2656 Q35.4063,259.5 34.7969,259.5 L32.5,259.5 Q31.8906,259.5 31.6328,259.2656 Q31.375,259.0313 31.375,258.6406 Q31.375,258.2656 31.6484,258.0234 Q31.9219,257.7813 32.5469,257.7969 L35.2188,251.1406 L34.1094,251.1406 Q33.5,251.1406 33.2344,250.9063 Q32.9688,250.6719 32.9688,250.2813 Q32.9688,249.9063 33.2344,249.6719 Q33.5,249.4375 34.1094,249.4375 L37.7813,249.4375 L41.1719,257.7969 Q41.7656,257.7969 41.9531,257.9375 Q42.3438,258.2031 42.3438,258.6563 Q42.3438,259.0313 42.0859,259.2656 Q41.8281,259.5 41.2188,259.5 L38.9219,259.5 Q38.3125,259.5 38.0469,259.2656 Q37.7813,259.0313 37.7813,258.6406 Q37.7813,258.2656 38.0469,258.0313 Q38.3125,257.7969 38.9219,257.7969 L39.3438,257.7969 L38.9375,256.7656 Z M38.2188,255.0625 L36.8594,251.6875 L35.4844,255.0625 L38.2188,255.0625 Z "/><text fill="#000000" font-family="sans-serif" font-size="12" font-style="italic" lengthAdjust="spacingAndGlyphs" textLength="106" x="54.25" y="259.9102">AbstractInfoModule</text><rect fill="#FFFFFF" height="17.0938" style="stroke: #000000; stroke-width: 1.0; stroke-dasharray: 2.0,2.0;" width="277" x="184" y="236"/><text fill="#000000" font-family="sans-serif" font-size="12" font-style="italic" lengthAdjust="spacingAndGlyphs" textLength="275" x="185" y="249.457">Domain extends DomainTemplate, TExchangeApi</text><line style="stroke: #A80036; stroke-width: 1.5;" x1="7" x2="457" y1="271" y2="271"/><polygon fill="none" points="17,278.418,21,282.418,17,286.418,13,282.418" style="stroke: #B38D22; stroke-width: 1.0;"/><text fill="#000000" font-family="sans-serif" font-size="11" lengthAdjust="spacingAndGlyphs" textLength="303" x="26" y="286.4189">exchangeClient: IExchangeConnector&lt;Domain, TExchangeApi&gt;</text><line style="stroke: #A80036; stroke-width: 1.5;" x1="7" x2="457" y1="292.8359" y2="292.8359"/><ellipse cx="17" cy="305.2539" fill="#84BE84" rx="3" ry="3" style="stroke: #038048; stroke-width: 1.0;"/><text fill="#000000" font-family="sans-serif" font-size="11" lengthAdjust="spacingAndGlyphs" textLength="426" x="26" y="308.2549">setExchangeClient(exchangeClient: IExchangeConnector&lt;Domain, TExchangeApi&gt;): void</text><ellipse cx="17" cy="319.0898" fill="#84BE84" rx="3" ry="3" style="stroke: #038048; stroke-width: 1.0;"/><text fill="#000000" font-family="sans-serif" font-size="11" font-style="italic" lengthAdjust="spacingAndGlyphs" textLength="280" x="26" y="322.0908">getCurrencies(): Promise&lt;GetCurrencyType&lt;Domain&gt;[]&gt;</text><ellipse cx="17" cy="332.9258" fill="#84BE84" rx="3" ry="3" style="stroke: #038048; stroke-width: 1.0;"/><text fill="#000000" font-family="sans-serif" font-size="11" font-style="italic" lengthAdjust="spacingAndGlyphs" textLength="269" x="26" y="335.9268">getSecurityLastPrice(ticker: string): Promise&lt;number&gt;</text><ellipse cx="17" cy="346.7617" fill="#84BE84" rx="3" ry="3" style="stroke: #038048; stroke-width: 1.0;"/><text fill="#000000" font-family="sans-serif" font-size="11" font-style="italic" lengthAdjust="spacingAndGlyphs" textLength="366" x="26" y="349.7627">getSecurityCurrency(ticker: string): Promise&lt;GetCurrencyType&lt;Domain&gt;&gt;</text><ellipse cx="17" cy="360.5977" fill="#84BE84" rx="3" ry="3" style="stroke: #038048; stroke-width: 1.0;"/><text fill="#000000" font-family="sans-serif" font-size="11" font-style="italic" lengthAdjust="spacingAndGlyphs" textLength="241" x="26" y="363.5986">getSecurityName(ticker: string): Promise&lt;string&gt;</text><ellipse cx="17" cy="374.4336" fill="#84BE84" rx="3" ry="3" style="stroke: #038048; stroke-width: 1.0;"/><text fill="#000000" font-family="sans-serif" font-size="11" font-style="italic" lengthAdjust="spacingAndGlyphs" textLength="322" x="26" y="377.4346">getSecurity(ticker: string, ignoreCache?: boolean): Promise&lt;any&gt;</text><ellipse cx="17" cy="388.2695" fill="#84BE84" rx="3" ry="3" style="stroke: #038048; stroke-width: 1.0;"/><text fill="#000000" font-family="sans-serif" font-size="11" font-style="italic" lengthAdjust="spacingAndGlyphs" textLength="373" x="26" y="391.2705">getSecurityByExchangeId(id: string, ignoreCache?: boolean): Promise&lt;any&gt;</text><!--class AbstractTradeModule--><rect fill="#FEFECE" filter="url(#f1o9gq3dtl6yik)" height="158.6875" id="AbstractTradeModule" style="stroke: #A80036; stroke-width: 1.5;" width="452" x="133" y="1166"/><ellipse cx="158.8" cy="1182" fill="#A9DCDF" rx="11" ry="11" style="stroke: #A80036; stroke-width: 1.0;"/><path d="M160.9875,1183.7656 L156.8469,1183.7656 L156.425,1184.7969 L156.8469,1184.7969 Q157.4563,1184.7969 157.7219,1185.0313 Q157.9875,1185.2656 157.9875,1185.6563 Q157.9875,1186.0313 157.7219,1186.2656 Q157.4563,1186.5 156.8469,1186.5 L154.55,1186.5 Q153.9406,1186.5 153.6828,1186.2656 Q153.425,1186.0313 153.425,1185.6406 Q153.425,1185.2656 153.6984,1185.0234 Q153.9719,1184.7813 154.5969,1184.7969 L157.2688,1178.1406 L156.1594,1178.1406 Q155.55,1178.1406 155.2844,1177.9063 Q155.0188,1177.6719 155.0188,1177.2813 Q155.0188,1176.9063 155.2844,1176.6719 Q155.55,1176.4375 156.1594,1176.4375 L159.8313,1176.4375 L163.2219,1184.7969 Q163.8156,1184.7969 164.0031,1184.9375 Q164.3938,1185.2031 164.3938,1185.6563 Q164.3938,1186.0313 164.1359,1186.2656 Q163.8781,1186.5 163.2688,1186.5 L160.9719,1186.5 Q160.3625,1186.5 160.0969,1186.2656 Q159.8313,1186.0313 159.8313,1185.6406 Q159.8313,1185.2656 160.0969,1185.0313 Q160.3625,1184.7969 160.9719,1184.7969 L161.3938,1184.7969 L160.9875,1183.7656 Z M160.2688,1182.0625 L158.9094,1178.6875 L157.5344,1182.0625 L160.2688,1182.0625 Z "/><text fill="#000000" font-family="sans-serif" font-size="12" font-style="italic" lengthAdjust="spacingAndGlyphs" textLength="117" x="175.2" y="1186.9102">AbstractTradeModule</text><rect fill="#FFFFFF" height="17.0938" style="stroke: #000000; stroke-width: 1.0; stroke-dasharray: 2.0,2.0;" width="277" x="311" y="1163"/><text fill="#000000" font-family="sans-serif" font-size="12" font-style="italic" lengthAdjust="spacingAndGlyphs" textLength="275" x="312" y="1176.457">Domain extends DomainTemplate, TExchangeApi</text><line style="stroke: #A80036; stroke-width: 1.5;" x1="134" x2="584" y1="1198" y2="1198"/><polygon fill="none" points="144,1205.418,148,1209.418,144,1213.418,140,1209.418" style="stroke: #B38D22; stroke-width: 1.0;"/><text fill="#000000" font-family="sans-serif" font-size="11" lengthAdjust="spacingAndGlyphs" textLength="303" x="153" y="1213.4189">exchangeClient: IExchangeConnector&lt;Domain, TExchangeApi&gt;</text><line style="stroke: #A80036; stroke-width: 1.5;" x1="134" x2="584" y1="1219.8359" y2="1219.8359"/><ellipse cx="144" cy="1232.2539" fill="#84BE84" rx="3" ry="3" style="stroke: #038048; stroke-width: 1.0;"/><text fill="#000000" font-family="sans-serif" font-size="11" lengthAdjust="spacingAndGlyphs" textLength="426" x="153" y="1235.2549">setExchangeClient(exchangeClient: IExchangeConnector&lt;Domain, TExchangeApi&gt;): void</text><ellipse cx="144" cy="1246.0898" fill="#84BE84" rx="3" ry="3" style="stroke: #038048; stroke-width: 1.0;"/><text fill="#000000" font-family="sans-serif" font-size="11" font-style="italic" lengthAdjust="spacingAndGlyphs" textLength="331" x="153" y="1249.0908">sell(__0: CreateOrderOptions): Promise&lt;GetOrderType&lt;Domain&gt;&gt;</text><ellipse cx="144" cy="1259.9258" fill="#84BE84" rx="3" ry="3" style="stroke: #038048; stroke-width: 1.0;"/><text fill="#000000" font-family="sans-serif" font-size="11" font-style="italic" lengthAdjust="spacingAndGlyphs" textLength="331" x="153" y="1262.9268">buy(__0: CreateOrderOptions): Promise&lt;GetOrderType&lt;Domain&gt;&gt;</text><ellipse cx="144" cy="1273.7617" fill="#84BE84" rx="3" ry="3" style="stroke: #038048; stroke-width: 1.0;"/><text fill="#000000" font-family="sans-serif" font-size="11" font-style="italic" lengthAdjust="spacingAndGlyphs" textLength="366" x="153" y="1276.7627">marketSell(__0: CreateOrderOptions): Promise&lt;GetOrderType&lt;Domain&gt;&gt;</text><ellipse cx="144" cy="1287.5977" fill="#84BE84" rx="3" ry="3" style="stroke: #038048; stroke-width: 1.0;"/><text fill="#000000" font-family="sans-serif" font-size="11" font-style="italic" lengthAdjust="spacingAndGlyphs" textLength="365" x="153" y="1290.5986">marketBuy(__0: CreateOrderOptions): Promise&lt;GetOrderType&lt;Domain&gt;&gt;</text><ellipse cx="144" cy="1301.4336" fill="#84BE84" rx="3" ry="3" style="stroke: #038048; stroke-width: 1.0;"/><text fill="#000000" font-family="sans-serif" font-size="11" font-style="italic" lengthAdjust="spacingAndGlyphs" textLength="254" x="153" y="1304.4346">sellOrCancel(): Promise&lt;GetOrderType&lt;Domain&gt;&gt;</text><ellipse cx="144" cy="1315.2695" fill="#84BE84" rx="3" ry="3" style="stroke: #038048; stroke-width: 1.0;"/><text fill="#000000" font-family="sans-serif" font-size="11" font-style="italic" lengthAdjust="spacingAndGlyphs" textLength="254" x="153" y="1318.2705">buyOrCancel(): Promise&lt;GetOrderType&lt;Domain&gt;&gt;</text><!--class AbstractExchangeConnector--><rect fill="#FEFECE" filter="url(#f1o9gq3dtl6yik)" height="186.3594" id="AbstractExchangeConnector" style="stroke: #A80036; stroke-width: 1.5;" width="468" x="346" y="689"/><ellipse cx="361" cy="705" fill="#A9DCDF" rx="11" ry="11" style="stroke: #A80036; stroke-width: 1.0;"/><path d="M363.1875,706.7656 L359.0469,706.7656 L358.625,707.7969 L359.0469,707.7969 Q359.6563,707.7969 359.9219,708.0313 Q360.1875,708.2656 360.1875,708.6563 Q360.1875,709.0313 359.9219,709.2656 Q359.6563,709.5 359.0469,709.5 L356.75,709.5 Q356.1406,709.5 355.8828,709.2656 Q355.625,709.0313 355.625,708.6406 Q355.625,708.2656 355.8984,708.0234 Q356.1719,707.7813 356.7969,707.7969 L359.4688,701.1406 L358.3594,701.1406 Q357.75,701.1406 357.4844,700.9063 Q357.2188,700.6719 357.2188,700.2813 Q357.2188,699.9063 357.4844,699.6719 Q357.75,699.4375 358.3594,699.4375 L362.0313,699.4375 L365.4219,707.7969 Q366.0156,707.7969 366.2031,707.9375 Q366.5938,708.2031 366.5938,708.6563 Q366.5938,709.0313 366.3359,709.2656 Q366.0781,709.5 365.4688,709.5 L363.1719,709.5 Q362.5625,709.5 362.2969,709.2656 Q362.0313,709.0313 362.0313,708.6406 Q362.0313,708.2656 362.2969,708.0313 Q362.5625,707.7969 363.1719,707.7969 L363.5938,707.7969 L363.1875,706.7656 Z M362.4688,705.0625 L361.1094,701.6875 L359.7344,705.0625 L362.4688,705.0625 Z "/><text fill="#000000" font-family="sans-serif" font-size="12" font-style="italic" lengthAdjust="spacingAndGlyphs" textLength="157" x="375" y="709.9102">AbstractExchangeConnector</text><rect fill="#FFFFFF" height="17.0938" style="stroke: #000000; stroke-width: 1.0; stroke-dasharray: 2.0,2.0;" width="277" x="540" y="686"/><text fill="#000000" font-family="sans-serif" font-size="12" font-style="italic" lengthAdjust="spacingAndGlyphs" textLength="275" x="541" y="699.457">Domain extends DomainTemplate, TExchangeApi</text><line style="stroke: #A80036; stroke-width: 1.5;" x1="347" x2="813" y1="721" y2="721"/><rect fill="none" height="6" style="stroke: #C82930; stroke-width: 1.0;" width="6" x="354" y="730.418"/><text fill="#000000" font-family="sans-serif" font-size="11" lengthAdjust="spacingAndGlyphs" textLength="142" x="366" y="736.4189">_isAccountInitialized: boolean</text><ellipse cx="357" cy="747.2539" fill="none" rx="3" ry="3" style="stroke: #038048; stroke-width: 1.0;"/><text fill="#000000" font-family="sans-serif" font-size="11" lengthAdjust="spacingAndGlyphs" textLength="136" x="366" y="750.2549">isAccountInitialized: boolean</text><polygon fill="none" points="357,756.0898,361,760.0898,357,764.0898,353,760.0898" style="stroke: #B38D22; stroke-width: 1.0;"/><text fill="#000000" font-family="sans-serif" font-size="11" lengthAdjust="spacingAndGlyphs" textLength="136" x="366" y="764.0908">isAccountInitialized: boolean</text><ellipse cx="357" cy="774.9258" fill="none" rx="3" ry="3" style="stroke: #038048; stroke-width: 1.0;"/><text fill="#000000" font-family="sans-serif" font-size="11" lengthAdjust="spacingAndGlyphs" textLength="90" x="366" y="777.9268">api: TExchangeApi</text><ellipse cx="357" cy="788.7617" fill="none" rx="3" ry="3" style="stroke: #038048; stroke-width: 1.0;"/><text fill="#000000" font-family="sans-serif" font-size="11" lengthAdjust="spacingAndGlyphs" textLength="176" x="366" y="791.7627">tradeModule: ITradeModule&lt;Domain&gt;</text><ellipse cx="357" cy="802.5977" fill="none" rx="3" ry="3" style="stroke: #038048; stroke-width: 1.0;"/><text fill="#000000" font-family="sans-serif" font-size="11" lengthAdjust="spacingAndGlyphs" textLength="159" x="366" y="805.5986">infoModule: IInfoModule&lt;Domain&gt;</text><ellipse cx="357" cy="816.4336" fill="none" rx="3" ry="3" style="stroke: #038048; stroke-width: 1.0;"/><text fill="#000000" font-family="sans-serif" font-size="11" lengthAdjust="spacingAndGlyphs" textLength="196" x="366" y="819.4346">domainMapper: IDomainMapper&lt;Domain&gt;</text><line style="stroke: #A80036; stroke-width: 1.5;" x1="347" x2="813" y1="825.8516" y2="825.8516"/><polygon fill="#FFFF44" points="357,833.2695,361,837.2695,357,841.2695,353,837.2695" style="stroke: #B38D22; stroke-width: 1.0;"/><text fill="#000000" font-family="sans-serif" font-size="11" font-style="italic" lengthAdjust="spacingAndGlyphs" textLength="165" x="366" y="841.2705">initAccount(): Promise&lt;unknown&gt;</text><ellipse cx="357" cy="852.1055" fill="#84BE84" rx="3" ry="3" style="stroke: #038048; stroke-width: 1.0;"/><text fill="#000000" font-family="sans-serif" font-size="11" font-style="italic" lengthAdjust="spacingAndGlyphs" textLength="301" x="366" y="855.1064">getPortfolio(): Promise&lt;GetSecurityBalanceType&lt;Domain&gt;[]&gt;</text><ellipse cx="357" cy="865.9414" fill="#84BE84" rx="3" ry="3" style="stroke: #038048; stroke-width: 1.0;"/><text fill="#000000" font-family="sans-serif" font-size="11" font-style="italic" lengthAdjust="spacingAndGlyphs" textLength="360" x="366" y="868.9424">getCurrenciesBalance(): Promise&lt;GetCurrencyBalanceType&lt;Domain&gt;[]&gt;</text><!--link IInfoModule to AbstractInfoModule--><path d="M414.61,171.54 C387.53,193.19 358.05,216.75 330.83,238.51 " fill="none" id="IInfoModule-AbstractInfoModule" style="stroke: #A80036; stroke-width: 1.0; stroke-dasharray: 7.0,7.0;"/><polygon fill="none" points="409.68,165.72,429.68,158.7,418.42,176.66,409.68,165.72" style="stroke: #A80036; stroke-width: 1.0;"/><!--link ITradeModule to AbstractTradeModule--><path d="M446.26,1103.5 C433.68,1123.82 420.24,1145.55 407.76,1165.71 " fill="none" id="ITradeModule-AbstractTradeModule" style="stroke: #A80036; stroke-width: 1.0; stroke-dasharray: 7.0,7.0;"/><polygon fill="none" points="440.79,1100.03,457.27,1086.7,452.7,1107.39,440.79,1100.03" style="stroke: #A80036; stroke-width: 1.0;"/><!--link IExchangeConnector to AbstractExchangeConnector--><path d="M385.82,622.09 C411.77,643.33 440.15,666.55 467,688.53 " fill="none" id="IExchangeConnector-AbstractExchangeConnector" style="stroke: #A80036; stroke-width: 1.0; stroke-dasharray: 7.0,7.0;"/><polygon fill="none" points="381.63,626.9,370.59,608.81,390.5,616.06,381.63,626.9" style="stroke: #A80036; stroke-width: 1.0;"/><!--link IExchangeConnector to ITradeModule--><path d="M284.75,608.82 C280.92,678.55 283.52,791.08 328,875 C343.47,904.18 367.47,929.99 392.58,951.43 " fill="none" id="IExchangeConnector-ITradeModule" style="stroke: #A80036; stroke-width: 1.0;"/><polygon fill="#A80036" points="395.94,955.11,391.6384,946.2502,392.1177,951.8867,386.4811,952.3659,395.94,955.11" style="stroke: #A80036; stroke-width: 1.0;"/><text fill="#000000" font-family="sans-serif" font-size="13" lengthAdjust="spacingAndGlyphs" textLength="7" x="377.9659" y="944.1388">1</text><!--link IExchangeConnector to IInfoModule--><path d="M401.63,478.12 C429.98,456.29 457.4,429.34 475,398 C515.41,326.03 520,229.46 517.38,164.77 " fill="none" id="IExchangeConnector-IInfoModule" style="stroke: #A80036; stroke-width: 1.0;"/><polygon fill="#A80036" points="517.13,160,513.5452,169.1733,517.3583,164.9948,521.5368,168.8079,517.13,160" style="stroke: #A80036; stroke-width: 1.0;"/><text fill="#000000" font-family="sans-serif" font-size="13" lengthAdjust="spacingAndGlyphs" textLength="7" x="511.2149" y="180.2832">1</text><!--link AbstractInfoModule to IExchangeConnector--><path d="M252.88,398.44 C259.27,422.56 266.24,448.92 272.46,472.42 " fill="none" id="AbstractInfoModule-IExchangeConnector" style="stroke: #A80036; stroke-width: 1.0;"/><polygon fill="#A80036" points="273.94,477.01,275.5164,467.2881,272.6668,472.1748,267.7801,469.3252,273.94,477.01" style="stroke: #A80036; stroke-width: 1.0;"/><text fill="#000000" font-family="sans-serif" font-size="13" lengthAdjust="spacingAndGlyphs" textLength="7" x="264.5628" y="467.0273">1</text><!--link AbstractTradeModule to IExchangeConnector--><path d="M288.79,1165.78 C276.14,1147.34 264.82,1126.94 258,1106 C202.71,936.34 243.16,722.8 270.85,614.47 " fill="none" id="AbstractTradeModule-IExchangeConnector" style="stroke: #A80036; stroke-width: 1.0;"/><polygon fill="#A80036" points="272.32,609.75,266.2083,617.4732,271.0771,614.5931,273.9572,619.4618,272.32,609.75" style="stroke: #A80036; stroke-width: 1.0;"/><text fill="#000000" font-family="sans-serif" font-size="13" lengthAdjust="spacingAndGlyphs" textLength="7" x="256.1708" y="629.93">1</text><!--link AbstractExchangeConnector to ITradeModule--><path d="M547.55,875.45 C538.88,900.16 529.66,926.45 521.49,949.71 " fill="none" id="AbstractExchangeConnector-ITradeModule" style="stroke: #A80036; stroke-width: 1.0;"/><polygon fill="#A80036" points="519.55,954.24,526.2889,947.0576,521.1954,949.5185,518.7345,944.425,519.55,954.24" style="stroke: #A80036; stroke-width: 1.0;"/><text fill="#000000" font-family="sans-serif" font-size="13" lengthAdjust="spacingAndGlyphs" textLength="7" x="514.7527" y="944.2839">1</text><!--link AbstractExchangeConnector to IInfoModule--><path d="M570.72,688.7 C556.74,549.61 530.58,289.31 518.05,164.61 " fill="none" id="AbstractExchangeConnector-IInfoModule" style="stroke: #A80036; stroke-width: 1.0;"/><polygon fill="#A80036" points="517.46,159.78,514.3807,169.1351,517.9603,164.7549,522.3406,168.3345,517.46,159.78" style="stroke: #A80036; stroke-width: 1.0;"/><text fill="#000000" font-family="sans-serif" font-size="13" lengthAdjust="spacingAndGlyphs" textLength="7" x="510.7838" y="180.3085">1</text><!--
@startuml
interface IInfoModule<Domain extends DomainTemplate> {
    +getCurrencies(): Promise<GetCurrencyType<Domain>[]>
    +getSecurityLastPrice(ticker: string): Promise<number>
    +getSecurityCurrency(ticker: string): Promise<GetCurrencyType<Domain>>
    +getSecurityName(ticker: string): Promise<string>
    +getSecurity(ticker: string, ignoreCache?: boolean): Promise<any>
    +getSecurityByExchangeId(id: string, ignoreCache?: boolean): Promise<any>
}
interface ITradeModule<Domain extends DomainTemplate> {
    +sell(options: CreateOrderOptions): Promise<GetOrderType<Domain>>
    +buy(options: CreateOrderOptions): Promise<GetOrderType<Domain>>
    +marketSell(options: CreateOrderOptions): Promise<GetOrderType<Domain>>
    +marketBuy(options: CreateOrderOptions): Promise<GetOrderType<Domain>>
    +sellOrCancel(): Promise<GetOrderType<Domain>>
    +buyOrCancel(): Promise<GetOrderType<Domain>>
}
interface IExchangeConnector<Domain extends DomainTemplate, TExchangeApi> {
    +api: TExchangeApi
    +tradeModule: ITradeModule<Domain>
    +infoModule: IInfoModule<Domain>
    +domainMapper: IDomainMapper<Domain>
    +getPortfolio(): Promise<GetSecurityBalanceType<Domain>[]>
    +getCurrenciesBalance(): Promise<GetCurrencyBalanceType<Domain>[]>
}
abstract class AbstractInfoModule<Domain extends DomainTemplate, TExchangeApi> implements IInfoModule {
    #exchangeClient: IExchangeConnector<Domain, TExchangeApi>
    +setExchangeClient(exchangeClient: IExchangeConnector<Domain, TExchangeApi>): void
    +{abstract} getCurrencies(): Promise<GetCurrencyType<Domain>[]>
    +{abstract} getSecurityLastPrice(ticker: string): Promise<number>
    +{abstract} getSecurityCurrency(ticker: string): Promise<GetCurrencyType<Domain>>
    +{abstract} getSecurityName(ticker: string): Promise<string>
    +{abstract} getSecurity(ticker: string, ignoreCache?: boolean): Promise<any>
    +{abstract} getSecurityByExchangeId(id: string, ignoreCache?: boolean): Promise<any>
}
abstract class AbstractTradeModule<Domain extends DomainTemplate, TExchangeApi> implements ITradeModule {
    #exchangeClient: IExchangeConnector<Domain, TExchangeApi>
    +setExchangeClient(exchangeClient: IExchangeConnector<Domain, TExchangeApi>): void
    +{abstract} sell(__0: CreateOrderOptions): Promise<GetOrderType<Domain>>
    +{abstract} buy(__0: CreateOrderOptions): Promise<GetOrderType<Domain>>
    +{abstract} marketSell(__0: CreateOrderOptions): Promise<GetOrderType<Domain>>
    +{abstract} marketBuy(__0: CreateOrderOptions): Promise<GetOrderType<Domain>>
    +{abstract} sellOrCancel(): Promise<GetOrderType<Domain>>
    +{abstract} buyOrCancel(): Promise<GetOrderType<Domain>>
}
abstract class AbstractExchangeConnector<Domain extends DomainTemplate, TExchangeApi> implements IExchangeConnector {
    -_isAccountInitialized: boolean
    +isAccountInitialized: boolean
    #isAccountInitialized: boolean
    +api: TExchangeApi
    +tradeModule: ITradeModule<Domain>
    +infoModule: IInfoModule<Domain>
    +domainMapper: IDomainMapper<Domain>
    #{abstract} initAccount(): Promise<unknown>
    +{abstract} getPortfolio(): Promise<GetSecurityBalanceType<Domain>[]>
    +{abstract} getCurrenciesBalance(): Promise<GetCurrencyBalanceType<Domain>[]>
}
IExchangeConnector - -> "1" ITradeModule
IExchangeConnector - -> "1" IInfoModule
AbstractInfoModule - -> "1" IExchangeConnector
AbstractTradeModule - -> "1" IExchangeConnector
AbstractExchangeConnector - -> "1" ITradeModule
AbstractExchangeConnector - -> "1" IInfoModule
@enduml

PlantUML version 1.2019.06(Fri May 24 21:10:25 GET 2019)
(GPL source distribution)
Java Runtime: Java(TM) SE Runtime Environment
JVM: Java HotSpot(TM) Client VM
Java Version: 1.8.0_361-b09
Operating System: Windows 10
OS Version: 10.0
Default Encoding: Cp1251
Language: ru
Country: RU
--></g></svg>