<?xml version="1.0" encoding="UTF-8" standalone="no"?><svg xmlns="http://www.w3.org/2000/svg" xmlns:xlink="http://www.w3.org/1999/xlink" contentScriptType="application/ecmascript" contentStyleType="text/css" height="200px" preserveAspectRatio="none" style="width:368px;height:200px;" version="1.1" viewBox="0 0 368 200" width="368px" zoomAndPan="magnify"><defs><filter height="300%" id="fbbxcr97tmrnb" width="300%" x="-1" y="-1"><feGaussianBlur result="blurOut" stdDeviation="2.0"/><feColorMatrix in="blurOut" result="blurOut2" type="matrix" values="0 0 0 0 0 0 0 0 0 0 0 0 0 0 0 0 0 0 .4 0"/><feOffset dx="4.0" dy="4.0" in="blurOut2" result="blurOut3"/><feBlend in="SourceGraphic" in2="blurOut3" mode="normal"/></filter></defs><g><!--class CurrenciesRepository--><rect fill="#FEFECE" filter="url(#fbbxcr97tmrnb)" height="73.6094" id="CurrenciesRepository" style="stroke: #A80036; stroke-width: 1.5;" width="351" x="6" y="116"/><ellipse cx="110.75" cy="132" fill="#ADD1B2" rx="11" ry="11" style="stroke: #A80036; stroke-width: 1.0;"/><path d="M113.7188,137.6406 Q113.1406,137.9375 112.5,138.0781 Q111.8594,138.2344 111.1563,138.2344 Q108.6563,138.2344 107.3281,136.5938 Q106.0156,134.9375 106.0156,131.8125 Q106.0156,128.6875 107.3281,127.0313 Q108.6563,125.375 111.1563,125.375 Q111.8594,125.375 112.5,125.5313 Q113.1563,125.6875 113.7188,125.9844 L113.7188,128.7031 Q113.0938,128.125 112.5,127.8594 Q111.9063,127.5781 111.2813,127.5781 Q109.9375,127.5781 109.25,128.6563 Q108.5625,129.7188 108.5625,131.8125 Q108.5625,133.9063 109.25,134.9844 Q109.9375,136.0469 111.2813,136.0469 Q111.9063,136.0469 112.5,135.7813 Q113.0938,135.5 113.7188,134.9219 L113.7188,137.6406 Z "/><text fill="#000000" font-family="sans-serif" font-size="12" lengthAdjust="spacingAndGlyphs" textLength="133" x="131.25" y="136.1543">CurrenciesRepository</text><line style="stroke: #A80036; stroke-width: 1.5;" x1="7" x2="356" y1="148" y2="148"/><line style="stroke: #A80036; stroke-width: 1.5;" x1="7" x2="356" y1="156" y2="156"/><ellipse cx="17" cy="167.9023" fill="#84BE84" rx="3" ry="3" style="stroke: #038048; stroke-width: 1.0;"/><text fill="#000000" font-family="sans-serif" font-size="11" lengthAdjust="spacingAndGlyphs" textLength="325" x="26" y="170.2104">findByTicker(currencyTicker: string): Promise&lt;Currency&gt;</text><ellipse cx="17" cy="180.707" fill="#84BE84" rx="3" ry="3" style="stroke: #038048; stroke-width: 1.0;"/><text fill="#000000" font-family="sans-serif" font-size="11" lengthAdjust="spacingAndGlyphs" textLength="283" x="26" y="183.0151">updateAll(currencies: Currency[]): Promise&lt;void&gt;</text><!--class Repository--><rect fill="#FEFECE" filter="url(#fbbxcr97tmrnb)" height="48" id="Repository" style="stroke: #A80036; stroke-width: 1.5;" width="98" x="132.5" y="8"/><ellipse cx="147.5" cy="24" fill="#ADD1B2" rx="11" ry="11" style="stroke: #A80036; stroke-width: 1.0;"/><path d="M150.4688,29.6406 Q149.8906,29.9375 149.25,30.0781 Q148.6094,30.2344 147.9063,30.2344 Q145.4063,30.2344 144.0781,28.5938 Q142.7656,26.9375 142.7656,23.8125 Q142.7656,20.6875 144.0781,19.0313 Q145.4063,17.375 147.9063,17.375 Q148.6094,17.375 149.25,17.5313 Q149.9063,17.6875 150.4688,17.9844 L150.4688,20.7031 Q149.8438,20.125 149.25,19.8594 Q148.6563,19.5781 148.0313,19.5781 Q146.6875,19.5781 146,20.6563 Q145.3125,21.7188 145.3125,23.8125 Q145.3125,25.9063 146,26.9844 Q146.6875,28.0469 148.0313,28.0469 Q148.6563,28.0469 149.25,27.7813 Q149.8438,27.5 150.4688,26.9219 L150.4688,29.6406 Z "/><text fill="#000000" font-family="sans-serif" font-size="12" lengthAdjust="spacingAndGlyphs" textLength="66" x="161.5" y="28.1543">Repository</text><line style="stroke: #A80036; stroke-width: 1.5;" x1="133.5" x2="229.5" y1="40" y2="40"/><line style="stroke: #A80036; stroke-width: 1.5;" x1="133.5" x2="229.5" y1="48" y2="48"/><!--link Repository to CurrenciesRepository--><path d="M181.5,76.43 C181.5,89.33 181.5,103.32 181.5,115.71 " fill="none" id="Repository-CurrenciesRepository" style="stroke: #A80036; stroke-width: 1.0;"/><polygon fill="none" points="174.5,76.23,181.5,56.23,188.5,76.23,174.5,76.23" style="stroke: #A80036; stroke-width: 1.0;"/><!--
@startuml
class CurrenciesRepository extends Repository {
    +findByTicker(currencyTicker: string): Promise<Currency>
    +updateAll(currencies: Currency[]): Promise<void>
}
@enduml

PlantUML version 1.2019.06(Fri May 24 17:10:25 UTC 2019)
(GPL source distribution)
Java Runtime: OpenJDK Runtime Environment
JVM: OpenJDK 64-Bit Server VM
Java Version: 11.0.19+7
Operating System: Linux
OS Version: 5.15.0-1038-azure
Default Encoding: UTF-8
Language: en
Country: null
--></g></svg>